<?xml version="1.0" encoding="utf-8"?>
<!-- Generator: Adobe Illustrator 24.0.1, SVG Export Plug-In . SVG Version: 6.00 Build 0)  -->
<svg version="1.1" id="Layer_1" xmlns="http://www.w3.org/2000/svg" xmlns:xlink="http://www.w3.org/1999/xlink" x="0px" y="0px"
	 viewBox="0 0 240 80" style="enable-background:new 0 0 240 80;" xml:space="preserve">
<style type="text/css">
	.st0{display:none;}
	.st1{fill-rule:evenodd;clip-rule:evenodd;fill:#3F4042;}
</style>
<g id="guides" class="st0">
</g>
<path class="st1" d="M111.1,9.1c-13.4,4-23,16.2-23,30.8c0,14.8,9.6,27,23,31V9.1L111.1,9.1z"/>
<path class="st1" d="M120.5,7.7c-0.8,0-1.4,0-2.2,0v3.4c0.4,0,0.8,0,1.4,0c11,0,20.2,9,20.2,20c0,11-9,20-20,20.2v21
	c0.2,0,0.4,0,0.6,0c18,0,32.6-14.4,32.6-32.4C153.1,22.1,138.5,7.7,120.5,7.7L120.5,7.7z"/>
</svg>
