<?xml version="1.0" encoding="utf-8"?>
<!-- Generator: Adobe Illustrator 25.3.1, SVG Export Plug-In . SVG Version: 6.00 Build 0)  -->
<svg version="1.1" id="Layer_1" xmlns="http://www.w3.org/2000/svg" xmlns:xlink="http://www.w3.org/1999/xlink" x="0px" y="0px"
	 viewBox="0 0 240 80" enable-background="new 0 0 240 80" xml:space="preserve">
<g id="guides" display="none">
</g>
<g>
	<g>
		<path fill="#253148" d="M88.2,40H83v11.4c0,2.1,1.2,2.5,3.1,2.5c0.7,0,1.5-0.1,2.2-0.1v6.3c-1.6,0.1-3.1,0.2-4.7,0.2
			c-7.3,0-9.2-2.1-9.2-9.2V40h-4.3v-5.7h4.3v-8.2H83v8.2h5.3V40z"/>
	</g>
	<g>
		<path fill="#253148" d="M131.3,40H126v11.4c0,2.1,1.2,2.5,3.1,2.5c0.7,0,1.5-0.1,2.2-0.1v6.3c-1.6,0.1-3.1,0.2-4.7,0.2
			c-7.3,0-9.2-2.1-9.2-9.2V40h-4.3v-5.7h4.3v-8.2h8.6v8.2h5.3V40z"/>
	</g>
	<path fill="#253148" d="M42.7,49.2c0,7.6-3.9,11.5-11.9,11.5c-9,0-11.9-5.2-11.9-12.8v-1.5h8.4v3.1c0,2.2,1.2,3.5,3.4,3.5
		c2,0,3.2-1.1,3.2-4.4V25.9h8.9V49.2z"/>
	<path fill="#253148" d="M52.1,49.1c0.2,3.5,2.2,5.9,5.8,5.9c2,0,4-0.9,4.8-2.8h7.9c-1.5,6-7.1,8.6-12.9,8.6
		c-8.4,0-14.2-5.1-14.2-13.8c0-7.9,6.3-13.6,14-13.6c9.3,0,13.9,7,13.5,15.8H52.1z M62.6,44.3c-0.2-2.9-2.2-5.3-5-5.3
		c-3,0-5,2.1-5.5,5.3H62.6z"/>
	<path fill="#253148" d="M96.6,51.4c0,1.3,0.5,2.2,1.4,2.9c0.8,0.6,1.9,0.9,3.1,0.9c1.6,0,4-0.7,4-2.7c0-2-2.6-2.4-4.1-2.7
		c-5.3-1.3-12-1.5-12-8.5c0-6.2,6.7-7.9,11.8-7.9c5.7,0,11.6,1.6,11.9,8.4h-7.8c0-1.1-0.4-1.8-1.1-2.2c-0.7-0.4-1.6-0.6-2.7-0.6
		c-1.4,0-3.6,0.1-3.6,1.9c0,2.4,5.7,2.9,9.5,3.7c5.2,1,6.6,4.8,6.6,7c0,6.9-6.6,9.2-12.4,9.2c-6.1,0-12.4-2-12.6-9.2H96.6z"/>
	<path fill="#253148" d="M132.8,42.1c0.1-3.4,1.7-5.6,4-6.9c2.3-1.3,5.3-1.8,8.2-1.8c6.1,0,12,1.3,12,8.6v11.3c0,2.2,0,4.6,1,6.6
		h-8.5c-0.3-0.8-0.4-1.6-0.5-2.4c-2.2,2.3-5.4,3.2-8.5,3.2c-4.9,0-8.8-2.5-8.8-7.8c0-8.4,9.1-7.7,15-8.9c1.4-0.3,2.2-0.8,2.2-2.4
		c0-1.9-2.3-2.7-4.1-2.7c-2.3,0-3.8,1-4.2,3.2H132.8z M143.8,55.5c4,0,5.4-2.3,5.2-7.6c-1.2,0.7-3.4,0.9-5.2,1.4
		c-1.9,0.4-3.5,1.2-3.5,3.3C140.2,54.6,141.9,55.5,143.8,55.5z"/>
	<path fill="#253148" d="M170,35c-1.3,0.8-2.3,2.1-2.9,3.7H167v-4.5h-8.2V60h8.5V47.2c0-3.2,2.2-6.1,6.4-6.1c1,0,1.8,0.1,2.7,0.4
		L170,35z"/>
	<polygon fill-rule="evenodd" clip-rule="evenodd" fill="#253148" points="201,16.1 201.9,30.7 222.1,30.7 202.8,43.6 207,64.7 
		190.5,50.4 168.4,61.9 181.6,43.8 169.1,30.7 189.4,30.7 201,16.1 	"/>
</g>
</svg>
