<?xml version="1.0" encoding="utf-8"?>
<!-- Generator: Adobe Illustrator 26.0.0, SVG Export Plug-In . SVG Version: 6.00 Build 0)  -->
<svg version="1.1" id="Layer_1" xmlns="http://www.w3.org/2000/svg" xmlns:xlink="http://www.w3.org/1999/xlink" x="0px" y="0px"
	 viewBox="0 0 240 80" style="enable-background:new 0 0 240 80;" xml:space="preserve">
<style type="text/css">
	.st0{display:none;}
	.st1{fill:#002D40;}
</style>
<g id="guides" class="st0">
</g>
<g>
	<polygon class="st1" points="49.7,54.9 62.5,47.4 62.5,62.3 75.4,69.7 88.3,62.3 88.3,17.7 75.4,10.3 49.7,25.1 23.9,10.3 11,17.7 
		11,62.3 23.9,69.7 36.8,62.3 36.8,47.4 49.7,54.9 	"/>
	<g>
		<path class="st1" d="M128.5,17.3h-9c-0.2,0-0.3,0.2-0.3,0.3v2.9c0,0.2,0.2,0.3,0.3,0.3h2.7v16.9c0,0.2,0.2,0.3,0.3,0.3h2.9
			c0.2,0,0.3-0.2,0.3-0.3V20.8h2.7c0.2,0,0.3-0.2,0.3-0.3v-2.9C128.8,17.4,128.7,17.3,128.5,17.3 M111.2,17.3h-6.7
			c-1.8,0-3.5,1.5-3.5,3.5v13.8c0,2.2,1.8,3.5,3.5,3.5h6.7c0.2,0,0.3-0.2,0.3-0.3v-2.9c0-0.2-0.2-0.3-0.3-0.3h-5.4
			c-0.8,0-1.2-0.3-1.2-0.9V21.7c0-0.7,0.2-0.9,1-0.9h5.6c0.2,0,0.3-0.2,0.3-0.3v-2.9C111.5,17.4,111.3,17.3,111.2,17.3 M117.1,17.3
			h-2.9c-0.2,0-0.3,0.2-0.3,0.3v17v3.2c0,0.2,0.2,0.3,0.3,0.3h2.9c0.2,0,0.3-0.2,0.3-0.3V17.6C117.4,17.4,117.2,17.3,117.1,17.3
			 M141.8,17.3h-3.2c-0.2,0-0.3,0.1-0.3,0.3l-0.3,3l-1.6,6.6l-1.6-6.6l-0.4-3c0-0.2-0.2-0.3-0.3-0.3h-3.2c-0.2,0-0.3,0.2-0.3,0.3
			c0.2,1.7,0.3,3,0.9,5.1c0.9,3.2,2.9,9.2,3.2,10v5c0,0.2,0.2,0.3,0.3,0.3h2.9c0.2,0,0.3-0.2,0.3-0.3v-5c0.3-0.8,2.3-6.7,3.1-9.9
			c0.6-2.4,0.6-3,0.9-5.2C142.1,17.4,142,17.3,141.8,17.3 M157,33.6c0,0.7-0.6,0.9-1.2,0.9h-1c-0.6,0-1.2-0.3-1.2-0.9V21.7
			c0-0.7,0.3-0.9,1-0.9h1.5c0.7,0,1,0.2,1,0.9V33.6z M157,17.3h-3.5c-1.9,0-3.5,1.6-3.5,3.4v13.8c0,1.9,1.5,3.4,3.5,3.4h3.5
			c1.9,0,3.5-1.5,3.5-3.4V20.8C160.5,18.9,158.8,17.3,157,17.3 M173.4,17.3h-9.8c-0.2,0-0.3,0.2-0.3,0.3v20.1c0,0.2,0.2,0.3,0.3,0.3
			h2.9c0.2,0,0.3-0.2,0.3-0.3l0-9.1h5c0.2,0,0.3-0.2,0.3-0.3v-2.8c0-0.2-0.2-0.3-0.3-0.3h-5v-4.3h6.6c0.2,0,0.3-0.2,0.3-0.3v-2.8
			C173.7,17.5,173.6,17.3,173.4,17.3"/>
		<path class="st1" d="M195.9,55l0.3-0.2c1-0.7,1.6-2.1,1.6-3.5v-4.7c0-2.9-2.3-5.2-5.2-5.2h-5.3c-0.2,0-0.3,0.2-0.3,0.3v20.1
			c0,0.2,0.2,0.3,0.3,0.3h2.9c0.2,0,0.3-0.2,0.3-0.3v-5.3h2l2.2,5.5c0.1,0.1,0.2,0.2,0.3,0.2h3.3c0.3,0,0.4-0.2,0.3-0.4L195.9,55z
			 M194.3,51.2c0,0.9-0.8,1.8-1.7,1.8h-2.1v-8.1h2.1c0.9,0,1.7,0.7,1.7,1.7V51.2z"/>
		<path class="st1" d="M165.9,41.4h-3.5c-1.9,0-3.5,1.6-3.5,3.5v13.8c0,1.9,1.5,3.5,3.5,3.5h3.5c1.9,0,3.5-1.5,3.5-3.5V44.8
			C169.4,43,167.8,41.4,165.9,41.4z M165.9,57.7c0,0.7-0.6,0.9-1.2,0.9h-1c-0.6,0-1.2-0.3-1.2-0.9V45.8c0-0.7,0.3-0.9,1-0.9h1.5
			c0.7,0,1,0.2,1,0.9V57.7z"/>
		<path class="st1" d="M141.6,58.7h-5.8V41.7c0-0.2-0.2-0.3-0.3-0.3h-2.9c-0.2,0-0.3,0.2-0.3,0.3v20.1c0,0.2,0.2,0.3,0.3,0.3h8.9
			c0.2,0,0.3-0.2,0.3-0.3V59C141.9,58.8,141.7,58.7,141.6,58.7"/>
		<path class="st1" d="M183.1,41.4h-2.9c-0.2,0-0.3,0.2-0.3,0.3v16c0,0.7-0.6,0.9-1.2,0.9h-1c-0.6,0-1.2-0.3-1.2-0.9v-16
			c0-0.2-0.2-0.3-0.3-0.3h-2.9c-0.2,0-0.3,0.2-0.3,0.3v17c0,1.9,1.5,3.5,3.5,3.5h3.5c1.9,0,3.5-1.5,3.5-3.5v-17
			C183.4,41.6,183.2,41.4,183.1,41.4"/>
		<path class="st1" d="M226.3,44.9c0.2,0,0.3-0.2,0.3-0.3v-2.9c0-0.2-0.2-0.3-0.3-0.3h-9.8c-0.2,0-0.3,0.2-0.3,0.3v20.1
			c0,0.2,0.2,0.3,0.3,0.3h9.8c0.2,0,0.3-0.2,0.3-0.3V59c0-0.2-0.2-0.3-0.3-0.3h-6.6v-5.9h5c0.2,0,0.3-0.2,0.3-0.3v-2.9
			c0-0.2-0.2-0.3-0.3-0.3h-5v-4.4H226.3z"/>
		<path class="st1" d="M212.2,41.4h-2.9c-0.1,0-0.2,0.1-0.2,0.1v0l0,0c0,0,0,0-0.1,0.1l0,0v8l-2.7-5.1l-0.5-2.9
			c0-0.2-0.2-0.3-0.3-0.3h-3.7c-0.2,0-0.3,0.2-0.3,0.3v20.1c0,0.2,0.2,0.3,0.3,0.3h2.9c0.2,0,0.3-0.2,0.3-0.3V49
			c1.4,3.1,3.8,6.8,4,7.5v5.4c0,0.2,0.2,0.3,0.3,0.3h2.9c0.2,0,0.3-0.2,0.3-0.3V41.8C212.5,41.6,212.4,41.4,212.2,41.4"/>
		<path class="st1" d="M129.2,41.4h-9.8c-0.2,0-0.3,0.2-0.3,0.3v20.1c0,0.2,0.2,0.3,0.3,0.3h9.8c0.2,0,0.3-0.2,0.3-0.3V59
			c0-0.2-0.2-0.3-0.3-0.3h-6.6v-5.9h5c0.2,0,0.3-0.2,0.3-0.3v-2.9c0-0.2-0.2-0.3-0.3-0.3h-5v-4.4h6.6c0.2,0,0.3-0.2,0.3-0.3v-2.9
			C129.6,41.6,129.4,41.4,129.2,41.4"/>
		<path class="st1" d="M155.3,47.4v-1.1c0-2.9-2.3-4.9-5.2-4.9h-5.3c-0.2,0-0.3,0.2-0.3,0.3v20.1c0,0.2,0.2,0.3,0.3,0.3h5.3
			c2.9,0,5.2-2.3,5.2-5.2v-2.5c0-1.2-0.5-2.5-1.7-3.5C154.9,50.1,155.3,48.6,155.3,47.4z M151.7,57c0,0.9-0.8,1.7-1.7,1.7H148v-5.9
			h2.1c0.9,0,1.7,0.8,1.7,1.8V57z M151.7,47.6c0,0.9-0.8,1.6-1.7,1.6H148v-4.4h2.1c0.9,0,1.7,0.8,1.7,1.8V47.6z"/>
		<path class="st1" d="M115.1,41.4h-3.7c-0.2,0-0.3,0.1-0.3,0.3l-0.5,2.9l-2.4,6.6l-2.4-6.6l-0.5-2.9c0-0.2-0.2-0.3-0.3-0.3h-3.7
			c-0.2,0-0.3,0.2-0.3,0.3v20.1c0,0.2,0.2,0.3,0.3,0.3h2.9c0.2,0,0.3-0.2,0.3-0.3V50.7c0.9,2.6,1.9,5.3,2.1,5.8
			c0.1,0.2,0.2,0.3,0.3,0.3h2.6c0.1,0,0.3-0.1,0.3-0.3c0.2-0.5,1.2-3.2,2.1-5.8v11.1c0,0.2,0.2,0.3,0.3,0.3h2.9
			c0.2,0,0.3-0.2,0.3-0.3V41.8C115.5,41.6,115.3,41.4,115.1,41.4"/>
	</g>
</g>
</svg>
