<?xml version="1.0" encoding="utf-8"?>
<!-- Generator: Adobe Illustrator 26.0.0, SVG Export Plug-In . SVG Version: 6.00 Build 0)  -->
<svg version="1.1" id="Layer_1" xmlns="http://www.w3.org/2000/svg" xmlns:xlink="http://www.w3.org/1999/xlink" x="0px" y="0px"
	 viewBox="0 0 240 80" style="enable-background:new 0 0 240 80;" xml:space="preserve">
<style type="text/css">
	.st0{display:none;}
	.st1{fill:#002D40;}
</style>
<g id="guides" class="st0">
</g>
<g>
	<g>
		<path class="st1" d="M10.1,22.8c0.7-0.4,2-0.3,2.9-0.1l0,4.1c-0.6-0.2-1.4-0.5-2.1-1.1c-0.8-0.6-1.2-1.4-1.2-2.2
			C9.7,23.1,9.8,22.9,10.1,22.8 M16.1,22.6c1.5-0.6,3.3-0.6,4.4-0.1l0,8.4c-1.3-0.3-3.6-1.8-4.4-3.1V22.6z M23.6,22.5
			c2.7-1.4,6-1.2,7.7-0.1v15.1c-0.3,0-0.8-0.1-1.4-0.4c-2.5-1-5.3-3.4-6.2-5.3V22.5z M34.4,22.4c4-2.5,9.6-2.6,12.3-0.2v25.5
			c-0.1,0.1-0.4,0.1-0.8,0.1c-3.3-0.3-9.7-5.4-11.5-9.7L34.4,22.4z M49.8,22.5c4.4-2.2,9.2-2.8,13-1.4c3.9,1.4,7,4.7,9.1,9.9
			c3.3,8.2,6.9,12.7,12.2,15.3c0,1.1,0,2.7,0,2.8c0,0.2-0.1,0.3-0.3,0.4c-1.9,0.1-3.3,1.6-3.4,3.5c0,0.3-0.2,0.4-0.4,0.4
			c-0.8-0.2-1.7,0-2.4,0.4c-0.8,0.4-1.4,1.2-1.7,2.1c0,0.1-0.1,0.2-0.2,0.3c-0.1,0.1-0.2,0.1-0.3,0.1c-1.7-0.8-3.6-0.2-4.6,1.4
			c-0.2,0.3-0.4,0.3-0.5,0.2c-1.4-1.2-3.5-1.1-4.8,0.2c-0.1,0.1-0.2,0.2-0.3,0.2c-0.1,0-0.2,0-0.2-0.1c-1.1-1.5-3-2-4.7-1
			c-0.1,0-0.2,0.1-0.3,0.1c-0.1,0-0.2-0.1-0.2-0.2c-0.7-1.8-2.5-2.7-4.3-2.1c-0.1,0-0.2,0-0.3,0c-0.1,0-0.1-0.1-0.2-0.2
			c-0.2-1.9-1.7-3.2-3.6-3.1c-0.1,0-0.3,0-0.3-0.1c-0.1-0.1-0.1-0.2-0.1-0.4l0-0.1l0-0.2c-0.1-0.3-0.1-0.6-0.2-0.8
			c-0.1-0.7-0.2-1.6-0.8-2.3V22.5z M11.4,29.6c0.5,0.2,1.4,0.5,2.4,0.5c1.6,2,4.7,3.8,6.7,4c0.3,0,0.6,0,0.8,0c2,3,6.4,6.1,9.5,6.4
			c0.5,0,0.9,0,1.3,0c2.7,4.9,9.2,10,13.5,10.4c0.8,0.1,1.5,0,2.1-0.2c0,0.2,0.1,0.4,0.1,0.6c0.1,0.9,0.5,1.7,1.1,2.3
			c0.7,0.6,1.6,1,2.5,0.9c0.3,0,0.5,0.1,0.5,0.4l0,0.2l0.1,0.2c0.3,0.9,0.9,1.7,1.7,2.1c0.8,0.4,1.8,0.5,2.7,0.3
			c0.3-0.1,0.5,0,0.5,0.3l0,0.2l0.1,0.2c0.5,0.8,1.3,1.4,2.2,1.6c0.9,0.2,1.9,0.1,2.7-0.4c0.3-0.1,0.4-0.1,0.6,0.2l0.1,0.2l0.1,0.1
			c0.7,0.7,1.6,1.1,2.5,1.1c0.9,0,1.8-0.4,2.5-1.1c0.2-0.2,0.4-0.2,0.6,0l0.1,0.1l0.2,0.1c1.7,1,3.9,0.5,4.9-1.3
			c0.2-0.3,0.4-0.3,0.6-0.2l0.2,0.1l0.2,0.1c0.9,0.2,1.9,0.2,2.7-0.3c0.8-0.5,1.4-1.2,1.7-2.2c0-0.1,0.1-0.2,0.2-0.3
			c0.1-0.1,0.3,0,0.4,0l0.2,0.1l0.2,0c2,0,3.6-1.5,3.6-3.5c0-0.3,0.2-0.5,0.5-0.5h0.2l0.2,0c1.6-0.4,2.8-1.8,2.8-3.5l0-3.7l0-1
			l-0.9-0.4c-5-2.2-8.2-6.1-11.5-14c-2.4-6-6.1-9.9-10.9-11.6c-6.2-2.2-12.2,0-15.3,1.5c-3.8-3.1-10.6-3.2-15.7,0
			C30.1,18,25.5,18,22,19.8c-2-1-5.1-1-7.6,0.1c-1.5-0.6-4-0.8-5.7,0c-1.4,0.7-2.2,1.9-2.2,3.5C6.6,26.7,9.1,28.7,11.4,29.6"/>
		<path class="st1" d="M51.7,25.3c-0.2,0.1-0.4,0.4-0.4,0.7c0,0.5,0.4,0.8,0.8,0.8c0.4,0,0.8-0.4,0.8-0.8c0-0.3-0.2-0.6-0.5-0.8
			c0.2-0.1,0.4-0.4,0.4-0.7c0-0.5-0.4-0.8-0.8-0.8c-0.5,0-0.8,0.4-0.8,0.8C51.2,24.9,51.4,25.1,51.7,25.3"/>
		<path class="st1" d="M36.3,24.8c0.5,0,0.8-0.4,0.8-0.8c0-0.5-0.4-0.8-0.8-0.8c-0.5,0-0.8,0.4-0.8,0.8
			C35.5,24.5,35.9,24.8,36.3,24.8"/>
		<path class="st1" d="M25.4,24.7c0.5,0,0.8-0.4,0.8-0.8c0-0.5-0.4-0.8-0.8-0.8c-0.5,0-0.8,0.4-0.8,0.8C24.6,24.3,25,24.7,25.4,24.7
			"/>
		<path class="st1" d="M17.7,24.8c0.5,0,0.8-0.4,0.8-0.8c0-0.5-0.4-0.8-0.8-0.8c-0.5,0-0.8,0.4-0.8,0.8
			C16.8,24.4,17.2,24.8,17.7,24.8"/>
		<path class="st1" d="M17.6,27.8c0.1,0,0.2,0,0.2,0c0,0.5,0.4,0.8,0.8,0.8c0.4,0,0.8-0.4,0.8-0.8c0-0.5-0.4-0.8-0.8-0.8
			c-0.1,0-0.2,0-0.3,0c0-0.2-0.1-0.4-0.3-0.6c0.2-0.1,0.3-0.4,0.3-0.7c0-0.5-0.4-0.8-0.8-0.8c-0.5,0-0.8,0.4-0.8,0.8
			c0,0.2,0.1,0.4,0.2,0.6c-0.2,0.1-0.3,0.4-0.3,0.7C16.8,27.4,17.1,27.8,17.6,27.8"/>
		<path class="st1" d="M26.1,32.5c0.1,0,0.2,0,0.3-0.1l0,0c0,0.5,0.4,0.8,0.8,0.8l0.1,0c0,0.4,0.4,0.8,0.8,0.8c0.1,0,0.2,0,0.3-0.1
			l0,0.1c0,0.5,0.4,0.8,0.8,0.8c0.5,0,0.8-0.4,0.8-0.8c0-0.5-0.9-0.8-0.7-0.8c0.5,0,0.8-0.4,0.8-0.8c0-0.5-0.4-0.8-0.8-0.8l-0.2,0
			c0-0.4-0.4-0.8-0.8-0.8c-0.2,0-0.4,0.1-0.5,0.2c-0.2-0.1-0.4-0.2-0.6-0.2c-0.2,0-0.4,0.1-0.6,0.3l-0.1-0.1c0-0.1,0-0.4,0-0.5
			l0-0.1c0.1,0.1,0.3,0.2,0.5,0.2c0.5,0,0.8-0.3,0.8-0.8c0-0.5-0.4-0.7-0.8-0.7c-0.1,0-0.1,0-0.2,0c-0.1-0.1-0.1-0.2-0.2-0.2
			c0.2-0.1,0.4-0.4,0.4-0.7c0-0.3-0.2-0.6-0.5-0.8c-0.1-0.2-0.2-0.3-0.4-0.4c0.3-0.1,0.4-0.4,0.4-0.7c0-0.5-0.4-0.8-0.8-0.8
			c-0.5,0-0.8,0.4-0.8,0.8c0,0.3,0.2,0.6,0.5,0.7c-0.3,0.1-0.5,0.4-0.5,0.7c0,0.2,0.1,0.5,0.3,0.6c-0.4,0.1-0.7,0.4-0.7,0.8
			c0,0.5,0.3,0.8,0.8,0.8c-0.2,0.1-0.4,0.4-0.4,0.7c0,0.3,0.1,0.5,0.4,0.7c0,0.1,0,0.2,0,0.3C25.2,32.1,25.6,32.5,26.1,32.5"/>
		<path class="st1" d="M38.2,40.3c-0.1,0.1-0.1,0.3-0.1,0.4c0,0.4,0.3,0.7,0.6,0.8c0,0.1-0.1,0.2-0.1,0.3c0,0.5,0.4,0.8,0.8,0.8
			c0.1,0,0.3,0,0.4-0.1v0c0,0.5,0.4,0.8,0.8,0.8c0.2,0,0.3,0,0.4-0.1l0,0.2c0,0.5,0.4,0.8,0.8,0.8l0.1,0c0.2,0.1,0.3,0.2,0.6,0.2
			c0.4,0,0.8-0.3,0.8-0.7l0.1,0c0.1,0.1,0.2,0.3,0.3,0.4c-0.3,0.1-0.5,0.4-0.5,0.7c0,0.5,0.4,0.9,0.8,0.9c0.5,0,0.8-0.4,0.8-0.9
			c0-0.3-0.1-0.5-0.3-0.7c0.3-0.1,0.4-0.4,0.4-0.8c0-0.4-0.4-0.8-0.8-0.8v0c0.5,0,0.8-0.4,0.8-0.8c0-0.5-0.4-0.9-0.8-0.9
			c-0.4,0-0.7,0.2-0.8,0.6l-0.1,0c0.1-0.1,0.1-0.3,0.1-0.4c0-0.5-0.4-0.8-0.8-0.8c-0.2,0-0.4,0.1-0.5,0.2c0.1-0.1,0.1-0.3,0.1-0.4
			c0-0.5-0.4-0.8-0.8-0.8c-0.3,0-0.5,0.1-0.6,0.3l0,0c0-0.1,0-0.2,0-0.2c0-0.4-0.4-0.8-0.8-0.8l-0.1,0c0.1-0.1,0.1-0.2,0.1-0.3
			c0.1,0.1,0.3,0.1,0.4,0.1c0.5,0,0.8-0.4,0.8-0.8c0-0.5-0.4-0.8-0.8-0.8c-0.4,0-0.8,0.3-0.8,0.8c-0.1-0.1-0.3-0.1-0.5-0.1
			c-0.2,0-0.6,0.1-0.6,0.1c0.2-0.1,0.2-0.4,0.2-0.6c0-0.5-0.4-0.8-0.8-0.8c-0.1,0,0-0.3,0-0.5c0-0.5-0.4-0.8-0.8-0.8
			c0,0,0.7-0.4,0.7-0.8c0-0.4-0.4-0.8-0.8-0.8l0,0c0-0.3-0.2-0.6-0.4-0.7c0.2-0.2,0.3-0.4,0.3-0.7c0-0.1,0-0.2-0.1-0.4
			c0.3-0.1,0.5-0.4,0.5-0.8c0-0.3-0.1-0.5-0.3-0.7c0.2-0.2,0.4-0.4,0.4-0.7c0-0.3-0.2-0.6-0.5-0.8c-0.1-0.2-0.2-0.3-0.4-0.4
			c0.3-0.1,0.4-0.4,0.4-0.7c0-0.5-0.4-0.8-0.8-0.8c-0.5,0-0.8,0.4-0.8,0.8c0,0.3,0.2,0.6,0.5,0.7c-0.3,0.1-0.5,0.4-0.5,0.7
			c0,0.2,0.1,0.5,0.3,0.6c-0.4,0.1-0.7,0.4-0.7,0.8c0,0.4,0.3,0.8,0.8,0.8c-0.2,0.2-0.4,0.4-0.4,0.7c0,0.3,0.2,0.6,0.4,0.7
			c-0.2,0.2-0.3,0.4-0.3,0.7c0,0.3,0.2,0.7,0.5,0.8c-0.3,0.1-0.6,0.4-0.6,0.8c0,0.4,0.2,0.7,0.6,0.8c-0.1,0.1-0.2,0.3-0.2,0.5
			c0,0.4,0.2,0.7,0.6,0.8v0l-0.2,0c-0.5,0-0.8,0.4-0.8,0.9c0,0.4,0.3,0.8,0.8,0.8l0,0.2c0,0.5,0.4,0.8,0.8,0.8l0.1,0
			c-0.1,0.1-0.1,0.2-0.1,0.4c0,0.5,0.4,0.8,0.8,0.8C38.1,40.3,38.1,40.3,38.2,40.3"/>
		<path class="st1" d="M44.4,40.3c0.5,0,0.8-0.4,0.8-0.8c0-0.5-0.4-0.8-0.8-0.8c-0.5,0-0.8,0.4-0.8,0.8
			C43.5,39.9,43.9,40.3,44.4,40.3"/>
		<path class="st1" d="M51.7,36.3c-0.2,0.1-0.4,0.4-0.4,0.7c0,0.5,0.3,0.8,0.8,0.8v0.2c-0.4,0.1-0.7,0.4-0.7,0.8
			c0,0.2,0.1,0.4,0.2,0.5c-0.1,0.2-0.2,0.4-0.2,0.6c0,0.4,0.3,0.7,0.6,0.8c-0.1,0.2-0.2,0.3-0.2,0.5c0,0.3,0.1,0.5,0.3,0.7v0.2
			c-0.4,0.1-0.7,0.4-0.7,0.8c0,0.3,0.2,0.6,0.4,0.7c-0.3,0.1-0.4,0.4-0.4,0.7c0,0.3,0.1,0.5,0.3,0.6c-0.3,0.1-0.5,0.4-0.5,0.8
			c0,0.4,0.3,0.7,0.7,0.8c-0.3,0.1-0.4,0.4-0.4,0.7c0,0.5,0.4,0.8,0.8,0.8l0.2,0c0.1,0.4,0.4,0.7,0.8,0.7c0.2,0,0.4-0.1,0.5-0.2
			l0,0.1c0,0.5,0.4,0.8,0.8,0.8c0.4,0,0.7-0.3,0.8-0.6c0.1,0.3,0.4,0.5,0.8,0.5c0.3,0,0.5-0.2,0.7-0.3c0.1,0.3,0.4,0.5,0.8,0.5
			c0.2,0,0.3,0,0.4-0.1c0,0.5,0.4,0.8,0.8,0.8c0.5,0,0.8-0.4,0.8-0.8c0-0.1,0.4,0.4,0.8,0.4c0.1,0,0.2,0,0.3-0.1
			c0.2,0.2,0.4,0.3,0.6,0.3c0.4,0,0.7-0.3,0.8-0.6c0.1,0.3,0.4,0.5,0.8,0.5c0.5,0,0.8-0.4,0.8-0.8c0-0.1,0.4,0.5,0.8,0.5
			c0.2,0,0.4-0.1,0.5-0.2c0.2,0.2,0.4,0.3,0.7,0.3c0.4,0,0.7-0.2,0.8-0.6c0.2,0.1,0.3,0.2,0.5,0.2c0.5,0,0.8-0.4,0.8-0.8l0.1-0.1
			c0,0.5,0.4,0.8,0.8,0.8c0.4,0,0.8-0.3,0.8-0.7c0.2,0.1,0.3,0.2,0.6,0.2c0.4,0,0.6-0.2,0.8-0.5c0.2-0.1,0.4-0.4,0.4-0.6
			c0.1,0.3,0.4,0.5,0.8,0.5c0.5,0,0.8-0.4,0.8-0.8c0-0.5-0.4-0.8-0.8-0.8c-0.4,0-0.8,0.3-0.8,0.7c-0.1-0.2-0.2-0.3-0.4-0.4
			c-0.1-0.3-0.4-0.6-0.8-0.6c-0.3,0-0.6,0.2-0.7,0.5c-0.1-0.2-0.4-0.3-0.7-0.3c-0.1,0-0.2,0-0.2,0c0-0.1,0-0.2-0.1-0.3
			c0.3-0.1,0.5-0.4,0.5-0.7c0-0.5-0.4-0.9-0.8-0.9c-0.5,0-0.9,0.4-0.9,0.9c0,0.1,0,0.2,0.1,0.3c-0.3,0.1-0.5,0.8-0.6,0.8l0-0.1
			c0-0.5-0.4-0.8-0.8-0.8c-0.1,0-0.2,0-0.3,0c0-0.4-0.4-0.7-0.8-0.7c-0.3,0-0.6,0.2-0.7,0.5c-0.1-0.3-0.4-0.5-0.7-0.5
			c-0.3,0-0.6,0.2-0.8,0.5c-0.1-0.4-0.4-0.6-0.8-0.6c-0.3,0-0.7,0.4-0.8,0.4c0.1-0.1,0.1-0.3,0.1-0.4c0-0.5-0.4-0.8-0.8-0.8
			c-0.4,0-0.6,0.3-0.6,0l0-0.2c0.4-0.1,0.7-0.4,0.7-0.8c0-0.5-0.4-0.9-0.8-0.9c-0.5,0-0.8,0.4-0.8,0.9l0,0.2h-0.3l0.1-0.3
			c0-0.6-0.6-0.7-0.7-0.7c-0.3,0-0.6,0.2-0.7,0.5c-0.1-0.4-0.4-0.7-0.8-0.7c0.1-0.2,0.2-0.3,0.2-0.6c0-0.5-0.4-0.8-0.8-0.8
			c-0.1,0-0.3,0-0.4,0.1c0-0.1,0-0.1,0-0.2l0-0.1l0.2,0c0.5,0,0.8-0.4,0.8-0.8c0-0.4-0.2-0.8-0.7-0.8c-0.5,0-0.9,0.2-0.9,0.6
			l-0.1,0.4L54.5,40c-0.3,0-0.4,0.1-0.6,0.3c0-0.1-0.1-0.4-0.2-0.5l0.1,0c0.5,0,0.9-0.4,0.9-0.8c0-0.5-0.4-0.8-0.9-0.8l-0.1,0
			c0.2-0.1,0.4-0.3,0.4-0.6c0.3-0.1,0.5-0.4,0.5-0.8c0-0.5-0.4-0.9-0.9-0.9c-0.2,0-0.4,0.1-0.5,0.2c0-0.1,0.1-0.2,0.1-0.3
			c0-0.3-0.1-0.5-0.3-0.7c0.1-0.1,0.3-0.3,0.3-0.4c0.2-0.1,0.3-0.4,0.3-0.6c0-0.5-0.4-0.8-0.8-0.8c-0.1,0-0.2,0-0.3,0.1l0,0
			c0.3-0.2,0.5-0.4,0.5-0.7c0-0.3-0.2-0.6-0.4-0.7c0.4-0.1,0.7-0.4,0.7-0.8c0-0.4-0.2-0.7-0.6-0.8c0.2-0.2,0.3-0.4,0.3-0.6
			c0-0.3-0.2-0.6-0.5-0.7c0.3-0.2,0.5-0.4,0.5-0.7c0-0.5-0.4-0.8-0.8-0.8c-0.5,0-0.8,0.4-0.8,0.8c0,0.3,0.2,0.6,0.4,0.7
			c-0.3,0.1-0.4,0.4-0.4,0.7c0,0.4,0.3,0.7,0.6,0.8c-0.2,0.2-0.3,0.4-0.3,0.6c0,0.3,0.2,0.6,0.4,0.7c-0.4,0.1-0.7,0.4-0.7,0.8
			c0,0.3,0.2,0.6,0.4,0.7c-0.3,0.1-0.4,0.4-0.4,0.7c0,0.2,0.1,0.5,0.3,0.6c-0.4,0.1-0.7,0.4-0.7,0.8C50.9,35.9,51.3,36.3,51.7,36.3"
			/>
		<path class="st1" d="M74.4,47.6c0.5,0,0.8-0.4,0.8-0.8c0-0.5-0.4-0.8-0.8-0.8c-0.5,0-0.8,0.4-0.8,0.8
			C73.6,47.2,73.9,47.6,74.4,47.6"/>
		<path class="st1" d="M72.6,51L72.6,51c-0.1,0.2-0.1,0.3-0.2,0.4c-0.1-0.1-0.3-0.2-0.5-0.2c-0.4,0-0.7,0.3-0.8,0.6
			c-0.1-0.1-0.3-0.2-0.6-0.2c-0.3,0-0.5,0.1-0.7,0.3c-0.2-0.2-0.4-0.3-0.6-0.3c-0.5,0-0.8,0.4-0.8,0.8c0,0.5,0.4,0.8,0.8,0.8
			c0.3,0,0.5-0.1,0.7-0.4c0.1,0.2,0.4,0.3,0.6,0.3c0.4,0,0.7-0.3,0.8-0.6c0.1,0.1,0.3,0.2,0.6,0.2c0.4,0,0.7-0.2,0.8-0.6
			c0.1,0.1,0.3,0.2,0.5,0.2c0.3,0,0.6-0.2,0.8-0.5c0.1,0.1,0.3,0.2,0.5,0.2c0.4,0,0.8-0.3,0.8-0.7c0.1,0.1,0.3,0.1,0.5,0.1
			c0.4,0,0.8-0.3,0.8-0.7c0.1,0.1,0.3,0.2,0.6,0.2c0.5,0,0.8-0.4,0.8-0.8l0-0.2c0.1,0.1,0.3,0.1,0.5,0.1c0.5,0,0.8-0.4,0.8-0.8
			c0.1,0.1,0.3,0.1,0.5,0.1c0.5,0,0.8-0.4,0.8-0.8l0-0.1c0.1,0,0.2,0.1,0.4,0.1c0.5,0,0.8-0.4,0.8-0.8c0-0.5-0.4-0.9-0.8-0.9
			c-0.2,0-0.4,0.1-0.6,0.2c-0.2-0.3-0.4-0.4-0.7-0.4c-0.5,0-0.8,0.4-0.8,0.8c0,0.2,0.1,0.5,0.3,0.6L79,48.4
			c-0.1-0.4-0.4-0.7-0.8-0.7c-0.5,0-0.8,0.4-0.8,0.8c0,0.1,0,0.1,0,0.2c-0.2-0.1-0.3-0.2-0.5-0.2c-0.5,0-0.8,0.4-0.8,0.8
			c0,0.3,0.1,0.5,0.4,0.7l0,0.1c-0.1-0.1-0.2-0.1-0.3-0.2c-0.1-0.3-0.4-0.5-0.8-0.5c-0.5,0-0.8,0.4-0.8,0.8l0,0.2
			c-0.1,0-0.2,0-0.3,0.1c-0.1-0.2-0.4-0.4-0.7-0.4C73,50.2,72.6,50.6,72.6,51"/>
		<path class="st1" d="M63.1,44.1c0.5,0,0.8-0.4,0.8-0.8c0-0.5-0.4-0.8-0.8-0.8c-0.5,0-0.9,0.4-0.9,0.8
			C62.2,43.8,62.6,44.1,63.1,44.1"/>
		<path class="st1" d="M57.9,41.1c0.5,0,0.9-0.4,0.9-0.8c0-0.5-0.4-0.8-0.9-0.8c-0.5,0-0.8,0.4-0.8,0.8C57,40.8,57.4,41.1,57.9,41.1
			"/>
		<path class="st1" d="M55.4,36c0.5,0,0.8-0.4,0.8-0.8c0-0.5-0.4-0.8-0.8-0.8c-0.5,0-0.8,0.4-0.8,0.8C54.6,35.7,54.9,36,55.4,36"/>
		<path class="st1" d="M67.5,51.8c-0.5,0-0.8,0.4-0.8,0.8c0,0.5,0.4,0.8,0.8,0.8c0.5,0,0.8-0.4,0.8-0.8C68.3,52.2,68,51.8,67.5,51.8
			"/>
		<path class="st1" d="M65.3,51.8c-0.5,0-0.8,0.4-0.8,0.8c0,0.5,0.4,0.8,0.8,0.8c0.5,0,0.8-0.4,0.8-0.8
			C66.2,52.2,65.8,51.8,65.3,51.8"/>
		<path class="st1" d="M62.3,51.9c-0.5,0-0.8,0.4-0.8,0.8c0,0.5,0.4,0.8,0.8,0.8c0.5,0,0.8-0.4,0.8-0.8
			C63.1,52.3,62.8,51.9,62.3,51.9"/>
		<path class="st1" d="M27,49.2c0-0.5-0.4-0.8-0.8-0.8c-0.5,0-0.8,0.4-0.8,0.8c0,0.5,0.4,0.8,0.8,0.8C26.7,50.1,27,49.7,27,49.2"/>
		<path class="st1" d="M29.5,51.8c0-0.4-0.4-0.8-0.8-0.8c-0.5,0-0.8,0.4-0.8,0.8c0,0.5,0.4,0.9,0.8,0.9
			C29.1,52.7,29.5,52.3,29.5,51.8"/>
		<path class="st1" d="M37.8,54.9c0-0.5-0.4-0.8-0.8-0.8c-0.5,0-0.8,0.4-0.8,0.8c0,0.5,0.4,0.8,0.8,0.8
			C37.4,55.7,37.8,55.4,37.8,54.9"/>
		<path class="st1" d="M41.5,58.9c0-0.5-0.4-0.8-0.8-0.8c-0.5,0-0.8,0.4-0.8,0.8c0,0.5,0.4,0.8,0.8,0.8
			C41.1,59.7,41.5,59.3,41.5,58.9"/>
		<path class="st1" d="M43.3,65.1c0.5,0,0.8-0.4,0.8-0.8c0-0.5-0.4-0.8-0.8-0.8c-0.5,0-0.8,0.4-0.8,0.8
			C42.5,64.7,42.9,65.1,43.3,65.1"/>
		<path class="st1" d="M36.4,52.7c0,0.4,0.4,0.8,0.8,0.8c0.2,0,0.4-0.1,0.6-0.2v0.1c0,0.5,0.4,0.8,0.8,0.8c0.4,0,0.7-0.2,0.8-0.6
			l0,0.1c-0.1,0.1-0.1,0.3-0.1,0.4c0,0.5,0.4,0.8,0.8,0.8c0.5,0,0.8-0.4,0.8-0.8c0-0.1,0.1-0.4,0-0.5c0.1,0.3,0.3,0.8,0.7,0.8
			c0.3,0,0.6-0.2,0.7-0.4c0.1,0.3,0.4,0.4,0.7,0.4c0.3,0,0.5-0.1,0.7-0.3v0.3c0,0.1,0,0.2,0.1,0.3c-0.4,0.1-0.7,0.4-0.7,0.8
			c0,0-0.1,0.3-0.1,0.4c-0.1-0.1-0.2-0.1-0.3-0.1c-0.3,0-0.5,0.1-0.6,0.3l-0.1,0c-0.5,0-0.8,0.4-0.8,0.8c0,0.5,0.4,0.8,0.8,0.8
			c0.3,0,0.4-0.3,0.5-0.5l0.2,0c0.1,0,0.2,0.2,0.2,0.2c0,0,0,0.2-0.4,0.2c-0.4,0.1-0.5,0.2-0.5,0.6c0,0.3,0,0.6,0.2,0.8
			c-0.2,0.1-0.4,0.4-0.4,0.7c0,0.2,0.1,0.4,0.2,0.5l-0.2,0c-0.5,0-0.8,0.4-0.8,0.8c0,0.5,0.4,0.8,0.8,0.8c0.3,0,0.6-0.2,0.7-0.4
			c0.1,0.2,0.4,0.3,0.6,0.3c0.1,0,0.2,0,0.3,0c0,0.1,0,0.1,0,0.2c0,0.5,0.4,0.8,0.8,0.8c0.5,0,0.8-0.4,0.8-0.8l0-0.1
			c0.1,0.1,0.4,0.1,0.5,0.2c-0.2,0.2-0.4,0.4-0.4,0.7c0,0.5,0.2,0.8,0.6,0.8c0.2,0,0.3-0.1,0.4-0.1c0.1,0.4,0.4,0.7,0.8,0.7
			c0.2,0,0.4-0.1,0.5-0.2c0.1,0.1,0.2,0.1,0.3,0.2c-0.4,0-0.8,0.4-0.8,0.8c0,0.5,0.4,0.8,0.8,0.8c0.5,0,0.8-0.4,0.8-0.8
			c0-0.4-0.2-0.7-0.6-0.8c0.1,0,0.2,0,0.3-0.1c0.1,0.2,0.4,0.4,0.7,0.4c0.3,0,0.6-0.2,0.7-0.4v0c0,0.5,0.4,0.8,0.8,0.8
			c0.5,0,0.8-0.4,0.8-0.8v0l0.1,0v0.1c0,0.4,0.3,0.7,0.6,0.8c-0.2,0.2-0.3,0.4-0.3,0.7c0,0.5,0.4,0.8,0.8,0.8c0.5,0,0.8-0.4,0.8-0.8
			c0-0.1,0-0.2,0-0.3c0.1,0.1,0.2,0.1,0.4,0.1c0.4,0,0.8-0.3,0.8-0.8c0.1,0.3,0.4,0.6,0.8,0.6c0.3,0,0.5-0.1,0.7-0.4
			c0,0.5,0.4,0.8,0.8,0.8l0,0c0.1,0.4,0.4,0.7,0.8,0.7c0.5,0,0.8-0.4,0.8-0.8l0-0.2c0.4,0,0.8-0.4,0.8-0.8c0-0.1,0-0.3-0.1-0.4
			l0.1,0c0.1,0.3,0.4,0.6,0.7,0.6c0,0.1,0,0.2,0,0.3c0,0.5,0.4,0.8,0.8,0.8c0.5,0,0.8-0.4,0.8-0.8l0-0.2l0.1,0
			c0.4,0,0.8-0.3,0.8-0.7c0.2,0.2,0.4,0.3,0.6,0.3c0.4,0,0.7-0.2,0.8-0.5c0.1,0.3,0.4,0.5,0.8,0.5c0.4,0,0.7-0.3,0.8-0.6
			c0.2,0.1,0.4,0.2,0.6,0.2c0.4,0,0.7-0.3,0.8-0.6c0.1,0.1,0.3,0.1,0.5,0.1c0.4,0,0.8-0.4,0.8-0.8c0-0.5-0.4-0.8-0.8-0.8
			c-0.4,0-0.7,0.3-0.8,0.6c-0.1-0.1-0.3-0.1-0.5-0.1c-0.4,0-0.7,0.3-0.8,0.6c-0.2-0.1-0.4-0.2-0.6-0.2c-0.4,0-0.7,0.2-0.8,0.6
			c-0.1-0.3-0.4-0.6-0.8-0.6c-0.2,0-0.4,0.1-0.6,0.2c-0.1-0.4-0.4-0.7-0.8-0.7l-0.1,0c-0.1-0.4-0.4-0.7-0.8-0.7
			c-0.3,0-0.5,0.1-0.7,0.3c-0.1,0-0.1,0-0.2,0c-0.5,0-0.8,0.4-0.8,0.8c0-0.5-0.4-0.8-0.8-0.8c-0.4,0-0.7,0.3-0.8,0.6l-0.2-0.1l0-0.2
			c0-0.5-0.4-0.8-0.8-0.8c-0.3,0-0.6,0.2-0.7,0.4h0c0.1-0.1,0.1-0.3,0.1-0.4c0-0.5-0.4-0.8-0.8-0.8c0-0.1,0-0.2,0-0.3
			c0-0.5-0.4-0.8-0.8-0.8c-0.5,0-0.5,0.3-0.5,0.8c0,0.2-0.2,0.4-0.1,0.6c-0.1-0.1-0.2-0.1-0.3-0.2c0.1-0.1,0.1-0.3,0.1-0.4
			c0-0.5-0.4-0.8-0.8-0.8c-0.2,0-0.3,0.1-0.5,0.2c-0.1-0.4-0.4-0.7-0.8-0.7l-0.2,0c-0.1-0.4-0.4-0.7-0.8-0.7c-0.2,0-0.4,0.1-0.6,0.2
			c0.1-0.2,0.2-0.4,0.2-0.6c0-0.4-0.2-0.7-0.6-0.8c0.1-0.1,0.1-0.2,0.1-0.4c0-0.5-0.4-0.8-0.8-0.8c-0.2,0-0.4,0.1-0.6,0.2
			c-0.1-0.3-0.4-0.5-0.8-0.5l-0.2,0c-0.1-0.4-0.4-0.7-0.8-0.7l-0.2,0c0.1-0.1,0.2-0.3,0.2-0.5c0-0.5-0.4-0.8-0.8-0.8
			c0.1-0.1,0.1-0.3,0.1-0.4c0-0.5-0.4-0.8-0.8-0.8c-0.4,0-0.7,0.3-0.8,0.6l0,0l0-0.1c0-0.5-0.4-0.8-0.8-0.8c-0.1,0-0.3,0-0.4,0.1
			c-0.2-0.2-0.4-0.4-0.7-0.4c-0.2,0-0.3,0.1-0.5,0.1c0-0.4-0.4-0.7-0.8-0.7c-0.2,0-0.4,0.1-0.6,0.2c-0.1-0.3-0.4-0.6-0.8-0.6
			c-0.2,0-0.3,0.1-0.4,0.1l0-0.1c0-0.5-0.4-0.8-0.8-0.8c-0.2,0-0.4,0.1-0.6,0.2c-0.1-0.4-0.4-0.7-0.8-0.7l0-0.1
			c0-0.5-0.4-0.8-0.8-0.8l-0.2,0c0-0.1,0-0.2,0-0.2c0-0.5-0.4-0.8-0.8-0.8c-0.4,0-0.4,0.1-0.4-0.2c0-0.5-0.4-0.8-0.8-0.8
			c-0.1,0-0.2,0-0.2,0c0.1-0.1,0.1-0.2,0.1-0.4c0-0.5-0.4-0.8-0.8-0.8c-0.1,0-0.2,0-0.3,0.1c0-0.1,0.1-0.2,0.1-0.3
			c0-0.5-0.4-0.8-0.8-0.8l-0.1,0l0-0.2c0-0.5-0.4-0.8-0.8-0.8h0c0,0,0-0.1,0-0.2c0-0.5-0.4-0.9-0.9-0.9c-0.2,0-0.4,0.1-0.5,0.2
			c-0.1-0.3-0.4-0.6-0.8-0.6c-0.2,0-0.3,0.1-0.4,0.1c-0.1-0.1-0.2-0.1-0.4-0.1c-0.1-0.3-0.4-0.5-0.8-0.5c-0.3,0-0.6,0.2-0.8,0.5h0
			c0.1-0.1,0.1-0.3,0.1-0.5c0-0.5-0.4-0.8-0.8-0.8c-0.1,0-0.2,0-0.3,0.1c-0.1-0.3-0.4-0.5-0.7-0.5c-0.2,0-0.5,0.1-0.6,0.3
			c0-0.1,0.1-0.2,0.1-0.3c0-0.5-0.4-0.8-0.8-0.8c-0.2,0-0.5,0.1-0.6,0.3l0,0c0.1-0.1,0.1-0.3,0.1-0.4c0-0.5-0.4-0.8-0.8-0.8
			c-0.1,0-0.2,0-0.3,0l0-0.2c0-0.5-0.4-0.8-0.8-0.8l0,0l0-0.1c0-0.3-0.2-0.6-0.4-0.7c0-0.1,0.1-0.2,0.1-0.3c0-0.5-0.4-0.8-0.8-0.8
			c-0.3,0-0.6,0.2-0.7,0.4c-0.1-0.3-0.4-0.4-0.7-0.4c-0.2,0-0.3,0-0.4,0.1c-0.1-0.4-0.4-0.7-0.8-0.7c-0.3,0-0.5,0.1-0.6,0.3
			c0-0.4-0.3-0.7-0.7-0.8c0-0.4-0.4-0.8-0.8-0.8c-0.1,0-0.2,0-0.3,0.1v0c0-0.5-0.4-0.8-0.8-0.8c-0.1,0-0.2,0-0.3,0.1l0-0.1
			c0-0.5-0.4-0.8-0.8-0.8c-0.2,0-0.3,0-0.4,0.1c-0.1-0.3-0.4-0.6-0.8-0.6c-0.3,0-0.5,0.1-0.7,0.3c0-0.4-0.4-0.8-0.8-0.8L10,31
			c-0.1-0.4-0.4-0.7-0.8-0.7c-0.3,0-0.5,0.1-0.7,0.3c0-0.1,0-0.1,0-0.2c0-0.5-0.4-0.8-0.8-0.8c-0.1,0-0.2,0-0.3,0.1
			c0-0.1,0-0.2,0-0.2c0-0.5-0.4-0.8-0.8-0.8l-0.1,0l0-0.2c0-0.3-0.2-0.6-0.5-0.8C6,27.3,5.6,27,5.2,27c-0.3,0-0.6,0.2-0.8,0.5
			c-0.1-0.1-0.4-0.2-0.6-0.2c-0.5,0-0.8,0.4-0.8,0.8c0,0.2,0.1,0.5,0.3,0.6c-0.1,0.1-0.2,0.3-0.2,0.5c0,0.5,0.4,0.8,0.8,0.8
			c0.1,0,0.2,0,0.3-0.1l0,0.1c-0.4,0.1-0.6,0.4-0.6,0.8c0,0.5,0.4,0.8,0.8,0.8c0.5,0,0.8-0.4,0.8-0.8l0-0.1c0.1,0,0.2-0.1,0.3-0.1
			c0,0.4,0.4,0.8,0.8,0.8c0.3,0,0.6-0.2,0.7-0.4c0.1,0.2,0.4,0.3,0.6,0.3c0.3,0,0.5-0.1,0.7-0.3l0,0.2c0,0.5,0.4,0.8,0.8,0.8l0.1,0
			c0.1,0.4,0.4,0.6,0.8,0.7L10,32.8c-0.4,0-0.8,0.4-0.8,0.8c0,0.4,0.3,0.8,0.8,0.8l0,0.2c0,0.5,0.4,0.8,0.8,0.8
			c0.3,0,0.6-0.1,0.7-0.4c0,0.4,0.4,0.8,0.8,0.8c0.4,0,0.7-0.2,0.8-0.6l0.2,0.1l0,0.2c0,0.5,0.4,0.8,0.8,0.8c0.2,0,0.4-0.1,0.6-0.2
			h0.1c0.1,0,0.1,0,0.2,0c0.1,0.4,0.4,0.6,0.8,0.6c0.4,0,0.7-0.2,0.8-0.6c0.2,0.2,0.4,0.4,0.7,0.4c0.2,0,0.3-0.1,0.4-0.2
			c0,0.1,0.1,0.3,0.1,0.3c-0.1,0-0.2-0.1-0.3-0.1c-0.4,0-0.7,0.3-0.8,0.7c-0.4,0.1-0.7,0.4-0.7,0.8c0,0.5,0.4,0.8,0.8,0.8l0.2,0
			C17,39.2,17,39.3,17,39.4c0,0.5,0.4,0.8,0.8,0.8c0.2,0,0.4-0.1,0.5-0.2l0,0c0,0.5,0.4,0.8,0.8,0.8c0.1,0,0.2,0,0.3-0.1l0,0.1
			c0,0.1,0,0.2,0.1,0.3c-0.1,0-0.2-0.1-0.3-0.1c-0.5,0-0.8,0.4-0.8,0.8c0,0.5,0.4,0.8,0.8,0.8c0.5,0,0.8-0.4,0.8-0.8
			c0-0.1,0-0.2-0.1-0.3c0.1,0,0.2,0.1,0.3,0.1c0.3,0,0.5-0.1,0.7-0.4c0.1,0.2,0.2,0.3,0.3,0.4c-0.1,0.1-0.1,0.3-0.1,0.4
			c0,0.5,0.4,0.8,0.8,0.8c0.4,0,0.7-0.2,0.8-0.5c0.1,0.1,0.3,0.1,0.4,0.1c0.3,0,0.5-0.1,0.6-0.3l0,0.1c0,0.5,0.4,0.8,0.8,0.8
			c0.2,0,0.3,0,0.5-0.1c0.1,0.2,0.4,0.3,0.6,0.3c0.1,0,0.2,0,0.3-0.1c0.2,0.2,0.4,0.3,0.6,0.3c0.3,0,0.6-0.2,0.8-0.5l0.1,0
			c0.1,0.3,0.4,0.5,0.8,0.5c0.2,0,0.3,0,0.4-0.1c0.1,0.1,0.2,0.1,0.3,0.1c0,0.1,0,0.1,0,0.2l-0.2,0c-0.4,0-0.8,0.3-0.8,0.7l-0.2,0
			c-0.5,0-0.8,0.4-0.8,0.8c0,0.1,0,0.3,0.1,0.4c-0.2-0.2-0.4-0.3-0.6-0.3c-0.5,0-0.8,0.4-0.8,0.8c0,0.5,0.4,0.8,0.8,0.8
			c0.2,0,0.4-0.1,0.5-0.2c0,0.2,0.1,0.4,0.2,0.5c-0.3,0.1-0.5,0.4-0.5,0.8c0,0.5,0.4,0.8,0.8,0.8c0.1,0,0.3,0,0.4-0.1
			c-0.1,0.1-0.1,0.3-0.1,0.4c0,0.5,0.4,0.8,0.8,0.8c0.1,0,0.2,0,0.3-0.1c0.1,0.4,0.4,0.7,0.8,0.7c0.1,0,0.3,0,0.4-0.1
			c0,0.3,0.2,0.6,0.5,0.7l0,0.2c0,0.5,0.4,0.8,0.8,0.8c0.3,0,0.5-0.1,0.7-0.4c0.1,0.1,0.2,0,0.4,0c0.2,0,0.2,0,0.4-0.1l0.1,0.3
			l-0.1,0c-0.5,0-0.8,0.4-0.8,0.8c0,0.5,0.4,0.8,0.8,0.8c0.4,0,0.7-0.3,0.8-0.7l0.1,0c0.5,0,0.8-0.4,0.8-0.9l0-0.2l0.3,0
			c0,0.1-0.1,0.2-0.1,0.3c0,0.5,0.3,0.8,0.7,0.8C36,53.3,36.3,53,36.4,52.7"/>
		<path class="st1" d="M71,63.3c0-0.5-0.4-0.8-0.9-0.8c-0.5,0-0.8,0.4-0.8,0.8c0,0.5,0.4,0.8,0.8,0.8C70.6,64.1,71,63.7,71,63.3"/>
		<path class="st1" d="M73.7,62.6c0-0.5-0.4-0.8-0.8-0.8c-0.4,0-0.8,0.4-0.8,0.8c0,0.5,0.4,0.8,0.8,0.8C73.3,63.4,73.7,63,73.7,62.6
			"/>
		<path class="st1" d="M16.7,40.4c0-0.5-0.4-0.8-0.8-0.8c-0.5,0-0.8,0.4-0.8,0.8c0,0.5,0.4,0.8,0.8,0.8
			C16.3,41.2,16.7,40.9,16.7,40.4"/>
		<path class="st1" d="M13.1,37.2c0-0.5-0.4-0.8-0.8-0.8c-0.5,0-0.8,0.4-0.8,0.8c0,0.5,0.4,0.8,0.8,0.8
			C12.8,38.1,13.1,37.7,13.1,37.2"/>
		<path class="st1" d="M8.9,34.6c0-0.5-0.4-0.9-0.8-0.9c-0.5,0-0.8,0.4-0.8,0.9c0,0.5,0.4,0.8,0.8,0.8C8.5,35.4,8.9,35,8.9,34.6"/>
		<path class="st1" d="M1.8,29.9c0.5,0,0.8-0.4,0.8-0.8c0-0.5-0.4-0.8-0.8-0.8C1.4,28.2,1,28.6,1,29C1,29.5,1.4,29.9,1.8,29.9"/>
		<path class="st1" d="M99,62.6c1.9,0,3.1-1.1,3.1-2.8c0-1.7-1.1-2.2-2.9-2.9c-1.9-0.7-2.8-1.5-2.8-3c0-1.9,1.4-3.1,3.5-3.1
			c2.3,0,3.6,1.3,3.6,3.5v0H103v-0.1c0-1.9-1.1-2.9-3-2.9c-1.9,0-3,1.1-3,2.6c0,1.7,1.3,2.1,3.1,2.9c1.7,0.7,2.5,1.6,2.5,3.1
			c0,2-1.4,3.3-3.8,3.3c-2.4,0-3.7-1.3-3.7-3.7v-0.2h0.5C95.7,61.5,96.8,62.6,99,62.6"/>
		<path class="st1" d="M99,62.6c1.9,0,3.1-1.1,3.1-2.8c0-1.7-1.1-2.2-2.9-2.9c-1.9-0.7-2.8-1.5-2.8-3c0-1.9,1.4-3.1,3.5-3.1
			c2.3,0,3.6,1.3,3.6,3.5v0H103v-0.1c0-1.9-1.1-2.9-3-2.9c-1.9,0-3,1.1-3,2.6c0,1.7,1.3,2.1,3.1,2.9c1.7,0.7,2.5,1.6,2.5,3.1
			c0,2-1.4,3.3-3.8,3.3c-2.4,0-3.7-1.3-3.7-3.7v-0.2h0.5C95.7,61.5,96.8,62.6,99,62.6"/>
		<path class="st1" d="M109.1,50.9h0.5l-1,4.9c0.8-1.1,1.9-1.7,3.2-1.7c1.6,0,2.4,0.8,2.4,2.2c0,0.4-0.1,0.9-0.2,1.4l-1.1,5.2h-0.5
			l1.2-5.8c0.1-0.3,0.1-0.5,0.1-0.8c0-1.1-0.7-1.8-1.9-1.8c-1.9,0-3.2,1.3-3.8,4l-0.9,4.3h-0.5L109.1,50.9z"/>
		<path class="st1" d="M109.1,50.9h0.5l-1,4.9c0.8-1.1,1.9-1.7,3.2-1.7c1.6,0,2.4,0.8,2.4,2.2c0,0.4-0.1,0.9-0.2,1.4l-1.1,5.2h-0.5
			l1.2-5.8c0.1-0.3,0.1-0.5,0.1-0.8c0-1.1-0.7-1.8-1.9-1.8c-1.9,0-3.2,1.3-3.8,4l-0.9,4.3h-0.5L109.1,50.9z"/>
	</g>
	<path class="st1" d="M120.4,50.9l-0.3,1.4h0.6l0.3-1.4H120.4z M119.7,54.2l-1.8,8.6h0.5l1.8-8.6H119.7z"/>
	<path class="st1" d="M120.4,50.9l-0.3,1.4h0.6l0.3-1.4H120.4z M119.7,54.2l-1.8,8.6h0.5l1.8-8.6H119.7z"/>
	<g>
		<path class="st1" d="M125.3,54.2h0.5l-0.3,1.4c0.5-1,1.2-1.5,2.1-1.5c0.2,0,0.5,0,0.8,0.1l-0.1,0.5c-0.3-0.1-0.5-0.1-0.7-0.1
			c-1.2,0-2.1,1.1-2.6,3.3l-1.1,5h-0.5L125.3,54.2z"/>
		<path class="st1" d="M125.3,54.2h0.5l-0.3,1.4c0.5-1,1.2-1.5,2.1-1.5c0.2,0,0.5,0,0.8,0.1l-0.1,0.5c-0.3-0.1-0.5-0.1-0.7-0.1
			c-1.2,0-2.1,1.1-2.6,3.3l-1.1,5h-0.5L125.3,54.2z"/>
		<path class="st1" d="M131.8,59.6c0,1.8,1,3,2.5,3c1.5,0,2.7-0.9,3.3-2.5h0.6c-0.6,1.8-2.1,2.9-3.8,2.9c-1.9,0-3.2-1.3-3.2-3.6
			c0-3,1.8-5.5,4.3-5.5c1.9,0,3.1,1.3,3.1,3.6c0,0.1,0,0.4,0,0.8h-6.8C131.8,59.1,131.8,59.4,131.8,59.6 M138.2,58.1
			c0-0.1,0-0.3,0-0.4c0-2.1-1-3.2-2.7-3.2c-1.5,0-3,1.3-3.5,3.5H138.2z"/>
		<path class="st1" d="M131.8,59.6c0,1.8,1,3,2.5,3c1.5,0,2.7-0.9,3.3-2.5h0.6c-0.6,1.8-2.1,2.9-3.8,2.9c-1.9,0-3.2-1.3-3.2-3.6
			c0-3,1.8-5.5,4.3-5.5c1.9,0,3.1,1.3,3.1,3.6c0,0.1,0,0.4,0,0.8h-6.8C131.8,59.1,131.8,59.4,131.8,59.6 M138.2,58.1
			c0-0.1,0-0.3,0-0.4c0-2.1-1-3.2-2.7-3.2c-1.5,0-3,1.3-3.5,3.5H138.2z"/>
	</g>
	<polygon class="st1" points="107.1,18.7 102.3,29.2 97.7,18.7 95.1,18.7 95.1,30.7 96.8,30.7 96.7,20 101.5,30.7 103.2,30.7 
		108,20 107.9,30.7 109.6,30.7 109.6,18.7 	"/>
	<polygon class="st1" points="107.1,18.7 102.3,29.2 97.7,18.7 95.1,18.7 95.1,30.7 96.8,30.7 96.7,20 101.5,30.7 103.2,30.7 
		108,20 107.9,30.7 109.6,30.7 109.6,18.7 	"/>
	<g>
		<path class="st1" d="M119.9,18.4c4.1,0,6.6,2.5,6.6,6.3c0,3.8-2.5,6.3-6.6,6.3c-4.1,0-6.6-2.5-6.6-6.3
			C113.4,20.9,115.8,18.4,119.9,18.4 M119.9,29.5c3.1,0,4.8-1.8,4.8-4.7c0-2.9-1.8-4.7-4.8-4.7c-3,0-4.8,1.8-4.8,4.7
			C115.1,27.7,116.9,29.5,119.9,29.5"/>
		<path class="st1" d="M119.9,18.4c4.1,0,6.6,2.5,6.6,6.3c0,3.8-2.5,6.3-6.6,6.3c-4.1,0-6.6-2.5-6.6-6.3
			C113.4,20.9,115.8,18.4,119.9,18.4 M119.9,29.5c3.1,0,4.8-1.8,4.8-4.7c0-2.9-1.8-4.7-4.8-4.7c-3,0-4.8,1.8-4.8,4.7
			C115.1,27.7,116.9,29.5,119.9,29.5"/>
		<path class="st1" d="M130.3,18.7h6.3c2.8,0,4.3,1.1,4.3,3.3c0,1.5-0.7,2.5-2.1,2.9c1.2,0.2,1.7,0.9,1.8,2.3l0.1,1.9
			c0.1,0.6,0.1,1.1,0.4,1.6h-2c-0.1-0.3-0.2-0.7-0.2-1.2l-0.2-1.8c-0.1-1.6-0.6-2.1-2.4-2.1h-4.5v5.2h-1.7V18.7z M131.9,20.2v3.9h4
			c2.2,0,3.2-0.4,3.2-2c0-1.6-1.1-2-3.4-2H131.9z"/>
		<path class="st1" d="M130.3,18.7h6.3c2.8,0,4.3,1.1,4.3,3.3c0,1.5-0.7,2.5-2.1,2.9c1.2,0.2,1.7,0.9,1.8,2.3l0.1,1.9
			c0.1,0.6,0.1,1.1,0.4,1.6h-2c-0.1-0.3-0.2-0.7-0.2-1.2l-0.2-1.8c-0.1-1.6-0.6-2.1-2.4-2.1h-4.5v5.2h-1.7V18.7z M131.9,20.2v3.9h4
			c2.2,0,3.2-0.4,3.2-2c0-1.6-1.1-2-3.4-2H131.9z"/>
	</g>
	<polygon class="st1" points="145,18.7 147.3,18.7 154.9,29 154.9,18.7 156.6,18.7 156.6,30.7 154.3,30.7 146.7,20.5 146.7,30.7 
		145,30.7 	"/>
	<polygon class="st1" points="145,18.7 147.3,18.7 154.9,29 154.9,18.7 156.6,18.7 156.6,30.7 154.3,30.7 146.7,20.5 146.7,30.7 
		145,30.7 	"/>
	<rect x="161.1" y="18.7" class="st1" width="1.7" height="12"/>
	<rect x="161.1" y="18.7" class="st1" width="1.7" height="12"/>
	<polygon class="st1" points="167.3,18.7 169.6,18.7 177.2,29 177.2,18.7 178.8,18.7 178.8,30.7 176.6,30.7 169,20.5 169,30.7 
		167.3,30.7 	"/>
	<polygon class="st1" points="167.3,18.7 169.6,18.7 177.2,29 177.2,18.7 178.8,18.7 178.8,30.7 176.6,30.7 169,20.5 169,30.7 
		167.3,30.7 	"/>
	<g>
		<path class="st1" d="M188.9,20c-2.8,0-4.5,1.8-4.5,4.7s1.7,4.7,4.5,4.7c2.5,0,4.2-1.4,4.4-3.6h-3.8v-1.6h5.4v6.4h-1.2l-0.2-2
			c-0.9,1.5-2.5,2.3-4.7,2.3c-3.7,0-6.2-2.5-6.2-6.3c0-3.8,2.4-6.3,6.4-6.3c3.1,0,5.5,1.7,5.7,4.1h-1.7C192.5,20.9,191,20,188.9,20"
			/>
		<path class="st1" d="M188.9,20c-2.8,0-4.5,1.8-4.5,4.7s1.7,4.7,4.5,4.7c2.5,0,4.2-1.4,4.4-3.6h-3.8v-1.6h5.4v6.4h-1.2l-0.2-2
			c-0.9,1.5-2.5,2.3-4.7,2.3c-3.7,0-6.2-2.5-6.2-6.3c0-3.8,2.4-6.3,6.4-6.3c3.1,0,5.5,1.7,5.7,4.1h-1.7C192.5,20.9,191,20,188.9,20"
			/>
	</g>
	<polygon class="st1" points="203.7,30.7 202,30.7 202,20.3 197.5,20.3 197.5,18.7 208.3,18.7 208.3,20.3 203.7,20.3 	"/>
	<polygon class="st1" points="203.7,30.7 202,30.7 202,20.3 197.5,20.3 197.5,18.7 208.3,18.7 208.3,20.3 203.7,20.3 	"/>
	<g>
		<path class="st1" d="M217.2,18.4c4.1,0,6.6,2.5,6.6,6.3c0,3.8-2.5,6.3-6.6,6.3c-4.1,0-6.6-2.5-6.6-6.3
			C210.6,20.9,213.1,18.4,217.2,18.4 M217.2,29.5c3.1,0,4.8-1.8,4.8-4.7c0-2.9-1.8-4.7-4.8-4.7c-3,0-4.8,1.8-4.8,4.7
			C212.4,27.7,214.1,29.5,217.2,29.5"/>
		<path class="st1" d="M217.2,18.4c4.1,0,6.6,2.5,6.6,6.3c0,3.8-2.5,6.3-6.6,6.3c-4.1,0-6.6-2.5-6.6-6.3
			C210.6,20.9,213.1,18.4,217.2,18.4 M217.2,29.5c3.1,0,4.8-1.8,4.8-4.7c0-2.9-1.8-4.7-4.8-4.7c-3,0-4.8,1.8-4.8,4.7
			C212.4,27.7,214.1,29.5,217.2,29.5"/>
	</g>
	<polygon class="st1" points="237.4,18.7 237.4,29 229.8,18.7 227.5,18.7 227.5,30.7 229.2,30.7 229.2,20.5 236.7,30.7 239,30.7 
		239,18.7 	"/>
	<polygon class="st1" points="237.4,18.7 237.4,29 229.8,18.7 227.5,18.7 227.5,30.7 229.2,30.7 229.2,20.5 236.7,30.7 239,30.7 
		239,18.7 	"/>
	<g>
		<path class="st1" d="M95.1,34.9h5.5c3,0,4.4,1.1,4.4,3.5c0,2.4-1.4,3.5-4.4,3.5h-3.8v4.9h-1.7V34.9z M100,40.6
			c2.3,0,3.4-0.4,3.4-2.1c0-1.7-1-2.1-3.3-2.1h-3.3v4.2H100z"/>
		<path class="st1" d="M95.1,34.9h5.5c3,0,4.4,1.1,4.4,3.5c0,2.4-1.4,3.5-4.4,3.5h-3.8v4.9h-1.7V34.9z M100,40.6
			c2.3,0,3.4-0.4,3.4-2.1c0-1.7-1-2.1-3.3-2.1h-3.3v4.2H100z"/>
	</g>
	<polygon class="st1" points="108.6,34.9 118.2,34.9 118.2,36.4 110.3,36.4 110.3,40 117.7,40 117.7,41.6 110.3,41.6 110.3,45.3 
		118.3,45.3 118.3,46.9 108.6,46.9 	"/>
	<polygon class="st1" points="108.6,34.9 118.2,34.9 118.2,36.4 110.3,36.4 110.3,40 117.7,40 117.7,41.6 110.3,41.6 110.3,45.3 
		118.3,45.3 118.3,46.9 108.6,46.9 	"/>
	<polygon class="st1" points="122.1,34.9 124.4,34.9 132,45.1 132,34.9 133.6,34.9 133.6,46.9 131.3,46.9 123.8,36.7 123.8,46.9 
		122.1,46.9 	"/>
	<polygon class="st1" points="122.1,34.9 124.4,34.9 132,45.1 132,34.9 133.6,34.9 133.6,46.9 131.3,46.9 123.8,36.7 123.8,46.9 
		122.1,46.9 	"/>
	<rect x="138.2" y="34.9" class="st1" width="1.7" height="12"/>
	<rect x="138.2" y="34.9" class="st1" width="1.7" height="12"/>
	<polygon class="st1" points="144.4,34.9 146.7,34.9 154.3,45.1 154.3,34.9 155.9,34.9 155.9,46.9 153.6,46.9 146.1,36.7 
		146.1,46.9 144.4,46.9 	"/>
	<polygon class="st1" points="144.4,34.9 146.7,34.9 154.3,45.1 154.3,34.9 155.9,34.9 155.9,46.9 153.6,46.9 146.1,36.7 
		146.1,46.9 144.4,46.9 	"/>
	<g>
		<path class="st1" d="M161.6,42.9c0.1,1.9,1.3,2.8,3.8,2.8c2.2,0,3.3-0.8,3.3-2c0-1-0.6-1.4-2.1-1.7l-3-0.5
			c-2.3-0.4-3.5-1.4-3.5-3.2c0-2.3,1.7-3.6,5.1-3.6c3.1,0,4.8,1.4,4.8,3.8h-1.7c-0.1-1.5-1.1-2.2-3.2-2.2c-2.1,0-3.1,0.7-3.1,1.9
			c0,1,0.7,1.3,2.1,1.6l2.6,0.5c2.5,0.5,3.7,1.2,3.7,3.3c0,2.3-1.8,3.8-5.2,3.8c-3.6,0-5.4-1.5-5.5-4.4H161.6z"/>
		<path class="st1" d="M161.6,42.9c0.1,1.9,1.3,2.8,3.8,2.8c2.2,0,3.3-0.8,3.3-2c0-1-0.6-1.4-2.1-1.7l-3-0.5
			c-2.3-0.4-3.5-1.4-3.5-3.2c0-2.3,1.7-3.6,5.1-3.6c3.1,0,4.8,1.4,4.8,3.8h-1.7c-0.1-1.5-1.1-2.2-3.2-2.2c-2.1,0-3.1,0.7-3.1,1.9
			c0,1,0.7,1.3,2.1,1.6l2.6,0.5c2.5,0.5,3.7,1.2,3.7,3.3c0,2.3-1.8,3.8-5.2,3.8c-3.6,0-5.4-1.5-5.5-4.4H161.6z"/>
		<path class="st1" d="M184.9,42.4c0,3.1-1.8,4.8-5.3,4.8c-3.5,0-5.3-1.7-5.3-4.8v-7.5h1.7v6.8c0,2.6,1.1,3.9,3.6,3.9
			c2.5,0,3.6-1.2,3.6-3.9v-6.8h1.7V42.4z"/>
		<path class="st1" d="M184.9,42.4c0,3.1-1.8,4.8-5.3,4.8c-3.5,0-5.3-1.7-5.3-4.8v-7.5h1.7v6.8c0,2.6,1.1,3.9,3.6,3.9
			c2.5,0,3.6-1.2,3.6-3.9v-6.8h1.7V42.4z"/>
	</g>
	<polygon class="st1" points="189,34.9 190.7,34.9 190.7,45.3 198.1,45.3 198.1,46.9 189,46.9 	"/>
	<polygon class="st1" points="189,34.9 190.7,34.9 190.7,45.3 198.1,45.3 198.1,46.9 189,46.9 	"/>
	<path class="st1" d="M205.9,34.9h1.8l5.3,12h-1.8l-1.5-3.4h-6.1l-1.6,3.4h-1.8L205.9,34.9z M209,41.9l-2.3-5.1l-2.4,5.1H209z"/>
	<path class="st1" d="M205.9,34.9h1.8l5.3,12h-1.8l-1.5-3.4h-6.1l-1.6,3.4h-1.8L205.9,34.9z M209,41.9l-2.3-5.1l-2.4,5.1H209z"/>
</g>
</svg>
