<?xml version="1.0" encoding="utf-8"?>
<!-- Generator: Adobe Illustrator 26.0.0, SVG Export Plug-In . SVG Version: 6.00 Build 0)  -->
<svg version="1.1" id="Layer_1" xmlns="http://www.w3.org/2000/svg" xmlns:xlink="http://www.w3.org/1999/xlink" x="0px" y="0px"
	 viewBox="0 0 240 80" style="enable-background:new 0 0 240 80;" xml:space="preserve">
<style type="text/css">
	.st0{display:none;}
	.st1{fill:#002D40;}
</style>
<g id="guides" class="st0">
</g>
<g>
	<g>
		<path class="st1" d="M93.9,5.2c0.5-0.3,1.4-0.2,2-0.1l0,2.8c-0.4-0.1-1-0.4-1.4-0.8c-0.5-0.4-0.8-1-0.8-1.5
			C93.7,5.4,93.8,5.3,93.9,5.2 M98.1,5.1c1.1-0.4,2.3-0.4,3-0.1l0,5.8c-0.9-0.2-2.5-1.2-3-2.1V5.1z M103.3,5
			c1.8-0.9,4.2-0.8,5.3-0.1v10.5c-0.2,0-0.5-0.1-1-0.3c-1.7-0.7-3.7-2.3-4.3-3.6V5z M110.8,5c2.8-1.8,6.7-1.8,8.6-0.1v17.7
			c-0.1,0-0.3,0.1-0.6,0c-2.3-0.2-6.8-3.7-8-6.8L110.8,5z M121.5,5c3.1-1.5,6.4-1.9,9-1c2.7,1,4.8,3.3,6.3,6.8
			c2.3,5.7,4.8,8.8,8.4,10.6c0,0.8,0,1.9,0,1.9c0,0.2-0.1,0.2-0.2,0.3c-1.3,0.1-2.3,1.1-2.3,2.4c0,0.2-0.1,0.3-0.3,0.3
			c-0.6-0.1-1.2,0-1.7,0.3c-0.6,0.3-1,0.8-1.2,1.5c0,0.1-0.1,0.2-0.1,0.2c-0.1,0-0.1,0-0.2,0c-1.2-0.6-2.5-0.2-3.2,1
			c-0.1,0.2-0.3,0.2-0.4,0.2c-1-0.8-2.4-0.8-3.3,0.1c-0.1,0.1-0.1,0.1-0.2,0.1c-0.1,0-0.1,0-0.1-0.1c-0.7-1.1-2.1-1.4-3.3-0.7
			c-0.1,0-0.2,0.1-0.2,0.1c-0.1,0-0.1-0.1-0.1-0.1c-0.5-1.2-1.7-1.8-3-1.5c-0.1,0-0.2,0-0.2,0c-0.1,0-0.1-0.1-0.1-0.1
			c-0.1-1.3-1.2-2.2-2.5-2.2c-0.1,0-0.2,0-0.2-0.1c-0.1,0-0.1-0.1-0.1-0.2l0-0.1l0-0.1c0-0.2-0.1-0.4-0.1-0.6
			c-0.1-0.5-0.2-1.1-0.6-1.6V5z M94.9,9.9c0.3,0.1,1,0.3,1.6,0.3c1.1,1.4,3.3,2.6,4.7,2.8c0.2,0,0.4,0,0.5,0
			c1.4,2.1,4.4,4.2,6.6,4.5c0.3,0,0.6,0,0.9,0c1.9,3.4,6.3,6.9,9.4,7.2c0.6,0,1,0,1.4-0.1c0,0.1,0,0.3,0.1,0.4
			c0.1,0.6,0.3,1.2,0.8,1.6c0.5,0.4,1.1,0.7,1.8,0.6c0.2,0,0.3,0.1,0.3,0.3l0,0.1l0,0.1c0.2,0.6,0.6,1.2,1.2,1.5
			c0.6,0.3,1.2,0.4,1.9,0.2c0.2-0.1,0.3,0,0.4,0.2l0,0.1l0.1,0.1c0.3,0.6,0.9,1,1.5,1.1c0.6,0.2,1.3,0.1,1.9-0.3
			c0.2-0.1,0.3-0.1,0.4,0.1l0.1,0.1l0.1,0.1c0.5,0.5,1.1,0.7,1.7,0.7c0.6,0,1.3-0.3,1.7-0.7c0.1-0.2,0.3-0.2,0.4,0l0.1,0.1l0.1,0.1
			c1.2,0.7,2.7,0.3,3.4-0.9c0.1-0.2,0.3-0.2,0.4-0.1l0.1,0.1l0.1,0c0.6,0.2,1.3,0.1,1.9-0.2c0.6-0.3,1-0.8,1.2-1.5
			c0-0.1,0.1-0.2,0.1-0.2c0.1,0,0.2,0,0.2,0l0.1,0l0.1,0c1.4,0,2.5-1,2.5-2.4c0-0.2,0.1-0.3,0.3-0.3h0.1l0.1,0
			c1.1-0.3,1.9-1.2,1.9-2.4l0-2.6l0-0.7l-0.6-0.3c-3.5-1.5-5.7-4.2-7.9-9.7c-1.7-4.2-4.2-6.9-7.6-8.1c-4.3-1.5-8.5,0-10.6,1.1
			c-2.6-2.2-7.4-2.2-10.9,0c-1.9-1.2-5.1-1.2-7.5,0.1c-1.4-0.7-3.5-0.7-5.2,0.1c-1.1-0.4-2.8-0.6-4,0c-1,0.5-1.5,1.3-1.5,2.4
			C91.5,7.9,93.2,9.3,94.9,9.9"/>
		<path class="st1" d="M122.8,6.9c-0.2,0.1-0.3,0.3-0.3,0.5c0,0.3,0.3,0.6,0.6,0.6c0.3,0,0.6-0.3,0.6-0.6c0-0.2-0.2-0.4-0.3-0.5
			c0.2-0.1,0.3-0.3,0.3-0.5c0-0.3-0.3-0.6-0.6-0.6c-0.3,0-0.6,0.3-0.6,0.6C122.5,6.6,122.6,6.8,122.8,6.9"/>
		<path class="st1" d="M112.1,6.6c0.3,0,0.6-0.3,0.6-0.6c0-0.3-0.3-0.6-0.6-0.6c-0.3,0-0.6,0.3-0.6,0.6
			C111.6,6.4,111.8,6.6,112.1,6.6"/>
		<path class="st1" d="M104.6,6.5c0.3,0,0.6-0.3,0.6-0.6c0-0.3-0.3-0.6-0.6-0.6c-0.3,0-0.6,0.3-0.6,0.6C104,6.3,104.3,6.5,104.6,6.5
			"/>
		<path class="st1" d="M99.2,6.6c0.3,0,0.6-0.3,0.6-0.6c0-0.3-0.3-0.6-0.6-0.6c-0.3,0-0.6,0.3-0.6,0.6C98.6,6.3,98.9,6.6,99.2,6.6"
			/>
		<path class="st1" d="M99.1,8.7c0.1,0,0.1,0,0.2,0c0,0.3,0.3,0.6,0.6,0.6c0.3,0,0.6-0.3,0.6-0.6c0-0.3-0.3-0.6-0.6-0.6
			c-0.1,0-0.1,0-0.2,0c0-0.2-0.1-0.3-0.2-0.4c0.1-0.1,0.2-0.3,0.2-0.5c0-0.3-0.3-0.6-0.6-0.6c-0.3,0-0.6,0.3-0.6,0.6
			c0,0.2,0.1,0.3,0.2,0.4c-0.1,0.1-0.2,0.3-0.2,0.5C98.6,8.4,98.8,8.7,99.1,8.7"/>
		<path class="st1" d="M105,11.9c0.1,0,0.2,0,0.2,0l0,0c0,0.3,0.3,0.6,0.6,0.6l0,0c0,0.3,0.3,0.6,0.6,0.6c0.1,0,0.1,0,0.2,0l0,0.1
			c0,0.3,0.3,0.6,0.6,0.6c0.3,0,0.6-0.3,0.6-0.6c0-0.3-0.6-0.6-0.5-0.6c0.3,0,0.6-0.3,0.6-0.6c0-0.3-0.3-0.6-0.6-0.6l-0.1,0
			c0-0.3-0.3-0.6-0.6-0.6c-0.1,0-0.3,0-0.4,0.1c-0.1-0.1-0.2-0.2-0.4-0.2c-0.2,0-0.3,0.1-0.4,0.2l-0.1-0.1c0-0.1,0-0.3,0-0.4l0-0.1
			c0.1,0.1,0.2,0.1,0.3,0.1c0.3,0,0.6-0.2,0.6-0.5c0-0.3-0.3-0.5-0.6-0.5c-0.1,0-0.1,0-0.1,0c0-0.1-0.1-0.1-0.1-0.2
			c0.2-0.1,0.3-0.3,0.3-0.5c0-0.2-0.2-0.4-0.4-0.5c0-0.1-0.1-0.2-0.3-0.3c0.2-0.1,0.3-0.3,0.3-0.5c0-0.3-0.3-0.6-0.6-0.6
			c-0.3,0-0.6,0.3-0.6,0.6c0,0.2,0.1,0.4,0.3,0.5c-0.2,0.1-0.3,0.3-0.3,0.5c0,0.2,0.1,0.3,0.2,0.4c-0.3,0.1-0.5,0.3-0.5,0.6
			c0,0.3,0.2,0.6,0.5,0.6c-0.1,0.1-0.3,0.3-0.3,0.5c0,0.2,0.1,0.4,0.3,0.5c0,0.1,0,0.1,0,0.2C104.4,11.7,104.7,11.9,105,11.9"/>
		<path class="st1" d="M113.4,17.3c0,0.1-0.1,0.2-0.1,0.3c0,0.3,0.2,0.5,0.4,0.6c0,0.1,0,0.1,0,0.2c0,0.3,0.3,0.6,0.6,0.6
			c0.1,0,0.2,0,0.3-0.1v0c0,0.3,0.3,0.6,0.6,0.6c0.1,0,0.2,0,0.3-0.1l0,0.1c0,0.3,0.3,0.6,0.6,0.6l0.1,0c0.1,0.1,0.2,0.2,0.4,0.2
			c0.3,0,0.6-0.2,0.6-0.5l0,0c0.1,0.1,0.1,0.2,0.2,0.3c-0.2,0.1-0.3,0.3-0.3,0.5c0,0.3,0.3,0.6,0.6,0.6c0.3,0,0.6-0.3,0.6-0.6
			c0-0.2-0.1-0.4-0.2-0.5c0.2-0.1,0.3-0.3,0.3-0.5c0-0.3-0.3-0.6-0.6-0.6v0c0.3,0,0.6-0.3,0.6-0.6c0-0.3-0.3-0.6-0.6-0.6
			c-0.3,0-0.5,0.2-0.6,0.4l0,0c0-0.1,0.1-0.2,0.1-0.3c0-0.3-0.3-0.6-0.6-0.6c-0.1,0-0.3,0.1-0.4,0.1c0-0.1,0.1-0.2,0.1-0.3
			c0-0.3-0.3-0.6-0.6-0.6c-0.2,0-0.3,0.1-0.4,0.2l0,0c0-0.1,0-0.1,0-0.2c0-0.3-0.3-0.6-0.6-0.6l0,0c0-0.1,0.1-0.1,0.1-0.2
			c0.1,0.1,0.2,0.1,0.3,0.1c0.3,0,0.6-0.3,0.6-0.6c0-0.3-0.3-0.6-0.6-0.6c-0.3,0-0.5,0.2-0.6,0.5c-0.1-0.1-0.2-0.1-0.3-0.1
			c-0.1,0-0.4,0.1-0.4,0.1c0.1-0.1,0.2-0.2,0.2-0.4c0-0.3-0.3-0.6-0.6-0.6c0,0,0-0.2,0-0.3c0-0.3-0.3-0.6-0.6-0.6
			c0,0,0.5-0.3,0.5-0.6c0-0.3-0.2-0.6-0.6-0.6l0,0c0-0.2-0.1-0.4-0.3-0.5c0.1-0.1,0.2-0.3,0.2-0.5c0-0.1,0-0.2-0.1-0.3
			c0.2-0.1,0.3-0.3,0.3-0.5c0-0.2-0.1-0.4-0.2-0.5c0.1-0.1,0.3-0.3,0.3-0.5c0-0.2-0.1-0.4-0.4-0.5c-0.1-0.1-0.2-0.2-0.3-0.3
			c0.2-0.1,0.3-0.3,0.3-0.5c0-0.3-0.3-0.6-0.6-0.6c-0.3,0-0.6,0.3-0.6,0.6c0,0.2,0.1,0.4,0.3,0.5c-0.2,0.1-0.3,0.3-0.3,0.5
			c0,0.2,0.1,0.3,0.2,0.4c-0.3,0.1-0.5,0.3-0.5,0.6c0,0.3,0.2,0.5,0.5,0.6c-0.2,0.1-0.3,0.3-0.3,0.5c0,0.2,0.1,0.4,0.3,0.5
			c-0.1,0.1-0.2,0.3-0.2,0.5c0,0.2,0.2,0.5,0.4,0.5c-0.2,0.1-0.4,0.3-0.4,0.6c0,0.3,0.2,0.5,0.4,0.6c-0.1,0.1-0.1,0.2-0.1,0.4
			c0,0.2,0.2,0.5,0.4,0.5v0l-0.1,0c-0.3,0-0.6,0.3-0.6,0.6c0,0.3,0.2,0.6,0.5,0.6l0,0.1c0,0.3,0.3,0.6,0.6,0.6l0.1,0
			c0,0.1-0.1,0.2-0.1,0.3c0,0.3,0.3,0.6,0.6,0.6C113.3,17.4,113.4,17.4,113.4,17.3"/>
		<path class="st1" d="M117.7,17.3c0.3,0,0.6-0.2,0.6-0.6c0-0.3-0.3-0.6-0.6-0.6c-0.3,0-0.6,0.3-0.6,0.6
			C117.1,17.1,117.4,17.3,117.7,17.3"/>
		<path class="st1" d="M122.8,14.6c-0.2,0.1-0.3,0.3-0.3,0.5c0,0.3,0.2,0.6,0.5,0.6v0.1c-0.3,0.1-0.5,0.3-0.5,0.6
			c0,0.1,0,0.3,0.1,0.3c-0.1,0.1-0.2,0.2-0.2,0.4c0,0.3,0.2,0.5,0.4,0.5c-0.1,0.1-0.1,0.2-0.1,0.4c0,0.2,0.1,0.4,0.2,0.5v0.1
			c-0.3,0-0.5,0.3-0.5,0.6c0,0.2,0.1,0.4,0.3,0.5c-0.2,0.1-0.3,0.3-0.3,0.5c0,0.2,0.1,0.3,0.2,0.4c-0.2,0.1-0.4,0.3-0.4,0.5
			c0,0.3,0.2,0.5,0.5,0.6c-0.2,0.1-0.3,0.3-0.3,0.5c0,0.3,0.3,0.6,0.6,0.6l0.1,0c0,0.3,0.3,0.5,0.6,0.5c0.1,0,0.3-0.1,0.4-0.1l0,0.1
			c0,0.3,0.3,0.6,0.6,0.6c0.3,0,0.5-0.2,0.5-0.4c0.1,0.2,0.3,0.4,0.5,0.4c0.2,0,0.4-0.1,0.5-0.2c0.1,0.2,0.3,0.4,0.5,0.4
			c0.1,0,0.2,0,0.3-0.1c0,0.3,0.3,0.6,0.6,0.6c0.3,0,0.6-0.3,0.6-0.6c0,0,0.3,0.3,0.5,0.3c0.1,0,0.2,0,0.2,0
			c0.1,0.1,0.3,0.2,0.4,0.2c0.3,0,0.5-0.2,0.5-0.4c0.1,0.2,0.3,0.4,0.5,0.4c0.3,0,0.6-0.3,0.6-0.6c0,0,0.3,0.4,0.6,0.4
			c0.1,0,0.2,0,0.3-0.1c0.1,0.1,0.3,0.2,0.5,0.2c0.3,0,0.5-0.2,0.5-0.4c0.1,0.1,0.2,0.1,0.3,0.1c0.3,0,0.6-0.3,0.6-0.6l0.1-0.1
			c0,0.3,0.2,0.6,0.6,0.6c0.3,0,0.5-0.2,0.6-0.5c0.1,0.1,0.2,0.1,0.4,0.1c0.2,0,0.4-0.1,0.5-0.4c0.2-0.1,0.3-0.3,0.3-0.4
			c0.1,0.2,0.3,0.4,0.5,0.4c0.3,0,0.6-0.3,0.6-0.6c0-0.3-0.3-0.6-0.6-0.6c-0.3,0-0.5,0.2-0.6,0.5c0-0.1-0.1-0.2-0.2-0.3
			c-0.1-0.2-0.3-0.4-0.5-0.4c-0.2,0-0.4,0.1-0.5,0.3c-0.1-0.1-0.3-0.2-0.5-0.2c0,0-0.1,0-0.2,0c0-0.1,0-0.2,0-0.2
			c0.2-0.1,0.3-0.3,0.3-0.5c0-0.3-0.3-0.6-0.6-0.6c-0.3,0-0.6,0.3-0.6,0.6c0,0.1,0,0.2,0.1,0.2c-0.2,0.1-0.4,0.5-0.4,0.5l0-0.1
			c0-0.3-0.3-0.6-0.6-0.6c-0.1,0-0.1,0-0.2,0c0-0.3-0.3-0.5-0.6-0.5c-0.2,0-0.4,0.1-0.5,0.3c-0.1-0.2-0.3-0.3-0.5-0.3
			c-0.2,0-0.5,0.2-0.5,0.4c-0.1-0.2-0.3-0.4-0.6-0.4c-0.2,0-0.5,0.3-0.5,0.3c0.1-0.1,0.1-0.2,0.1-0.3c0-0.3-0.3-0.6-0.6-0.6
			c-0.3,0-0.4,0.2-0.4,0l0-0.1c0.3-0.1,0.5-0.3,0.5-0.6c0-0.3-0.3-0.6-0.6-0.6c-0.3,0-0.6,0.3-0.6,0.6l0,0.1h-0.2l0-0.2
			c0-0.4-0.4-0.5-0.5-0.5c-0.2,0-0.4,0.1-0.5,0.4c0-0.3-0.3-0.5-0.5-0.5c0.1-0.1,0.1-0.2,0.1-0.4c0-0.3-0.3-0.6-0.6-0.6
			c-0.1,0-0.2,0-0.3,0.1c0,0,0-0.1,0-0.2l0-0.1l0.1,0c0.3,0,0.6-0.3,0.6-0.6c0-0.3-0.1-0.5-0.5-0.5c-0.3,0-0.6,0.1-0.6,0.4l-0.1,0.3
			l-0.2,0c-0.2,0-0.3,0.1-0.4,0.2c0-0.1-0.1-0.3-0.1-0.3l0.1,0c0.3,0,0.6-0.3,0.6-0.6c0-0.3-0.3-0.6-0.6-0.6l-0.1,0
			c0.2-0.1,0.3-0.2,0.3-0.4c0.2-0.1,0.4-0.3,0.4-0.5c0-0.3-0.3-0.6-0.6-0.6c-0.1,0-0.2,0.1-0.3,0.1c0-0.1,0-0.1,0-0.2
			c0-0.2-0.1-0.4-0.2-0.5c0.1-0.1,0.2-0.2,0.2-0.3c0.1-0.1,0.2-0.3,0.2-0.4c0-0.3-0.3-0.6-0.6-0.6c-0.1,0-0.1,0-0.2,0l0,0
			c0.2-0.1,0.3-0.3,0.3-0.5c0-0.2-0.1-0.4-0.3-0.5c0.3-0.1,0.5-0.3,0.5-0.6c0-0.3-0.2-0.5-0.4-0.5c0.1-0.1,0.2-0.3,0.2-0.4
			c0-0.2-0.1-0.4-0.3-0.5c0.2-0.1,0.3-0.3,0.3-0.5c0-0.3-0.3-0.6-0.6-0.6c-0.3,0-0.6,0.2-0.6,0.6c0,0.2,0.1,0.4,0.3,0.5
			c-0.2,0.1-0.3,0.3-0.3,0.5c0,0.3,0.2,0.5,0.4,0.5c-0.1,0.1-0.2,0.3-0.2,0.4c0,0.2,0.1,0.4,0.3,0.5c-0.3,0.1-0.5,0.3-0.5,0.6
			c0,0.2,0.1,0.4,0.3,0.5c-0.2,0.1-0.3,0.3-0.3,0.5c0,0.2,0.1,0.3,0.2,0.4c-0.3,0.1-0.5,0.3-0.5,0.6
			C122.3,14.3,122.5,14.6,122.8,14.6"/>
		<path class="st1" d="M138.5,22.4c0.3,0,0.6-0.3,0.6-0.6c0-0.3-0.3-0.6-0.6-0.6c-0.3,0-0.6,0.3-0.6,0.6
			C138,22.1,138.2,22.4,138.5,22.4"/>
		<path class="st1" d="M137.3,24.8L137.3,24.8c0,0.1-0.1,0.2-0.1,0.3c-0.1-0.1-0.2-0.1-0.3-0.1c-0.3,0-0.5,0.2-0.6,0.4
			c-0.1-0.1-0.2-0.2-0.4-0.2c-0.2,0-0.4,0.1-0.5,0.2c-0.1-0.1-0.3-0.2-0.4-0.2c-0.3,0-0.6,0.3-0.6,0.6c0,0.3,0.3,0.6,0.6,0.6
			c0.2,0,0.4-0.1,0.5-0.2c0.1,0.1,0.2,0.2,0.4,0.2c0.3,0,0.5-0.2,0.6-0.4c0.1,0.1,0.2,0.2,0.4,0.2c0.2,0,0.5-0.2,0.5-0.4
			c0.1,0.1,0.2,0.1,0.3,0.1c0.2,0,0.4-0.1,0.5-0.3c0.1,0.1,0.2,0.1,0.4,0.1c0.3,0,0.5-0.2,0.6-0.5c0.1,0.1,0.2,0.1,0.3,0.1
			c0.3,0,0.5-0.2,0.6-0.5c0.1,0.1,0.2,0.1,0.4,0.1c0.3,0,0.6-0.3,0.6-0.6l0-0.1c0.1,0.1,0.2,0.1,0.3,0.1c0.3,0,0.6-0.3,0.6-0.6
			c0.1,0.1,0.2,0.1,0.3,0.1c0.3,0,0.6-0.3,0.6-0.6l0-0.1c0.1,0,0.2,0.1,0.2,0.1c0.3,0,0.6-0.3,0.6-0.6c0-0.3-0.3-0.6-0.6-0.6
			c-0.1,0-0.3,0.1-0.4,0.2c-0.1-0.2-0.3-0.3-0.5-0.3c-0.3,0-0.6,0.3-0.6,0.6c0,0.2,0.1,0.3,0.2,0.4l0,0.1c0-0.3-0.3-0.5-0.6-0.5
			c-0.3,0-0.6,0.3-0.6,0.6c0,0,0,0.1,0,0.1c-0.1-0.1-0.2-0.1-0.3-0.1c-0.3,0-0.6,0.3-0.6,0.6c0,0.2,0.1,0.4,0.2,0.5l0,0.1
			c-0.1,0-0.1-0.1-0.2-0.1c-0.1-0.2-0.3-0.3-0.5-0.3c-0.3,0-0.6,0.3-0.6,0.6l0,0.1c-0.1,0-0.2,0-0.2,0.1c-0.1-0.2-0.3-0.3-0.5-0.3
			C137.5,24.2,137.3,24.5,137.3,24.8"/>
		<path class="st1" d="M130.7,20c0.3,0,0.6-0.3,0.6-0.6c0-0.3-0.3-0.6-0.6-0.6c-0.3,0-0.6,0.3-0.6,0.6C130.1,19.8,130.3,20,130.7,20
			"/>
		<path class="st1" d="M127.1,17.9c0.3,0,0.6-0.3,0.6-0.6c0-0.3-0.3-0.6-0.6-0.6c-0.3,0-0.6,0.3-0.6,0.6
			C126.5,17.7,126.7,17.9,127.1,17.9"/>
		<path class="st1" d="M125.4,14.4c0.3,0,0.6-0.3,0.6-0.6c0-0.3-0.3-0.6-0.6-0.6c-0.3,0-0.6,0.3-0.6,0.6
			C124.8,14.1,125,14.4,125.4,14.4"/>
		<path class="st1" d="M133.8,25.4c-0.3,0-0.6,0.3-0.6,0.6c0,0.3,0.3,0.6,0.6,0.6c0.3,0,0.6-0.3,0.6-0.6
			C134.3,25.6,134.1,25.4,133.8,25.4"/>
		<path class="st1" d="M132.3,25.4c-0.3,0-0.6,0.3-0.6,0.6c0,0.3,0.3,0.6,0.6,0.6c0.3,0,0.6-0.3,0.6-0.6
			C132.8,25.6,132.6,25.4,132.3,25.4"/>
		<path class="st1" d="M130.1,25.4c-0.3,0-0.6,0.3-0.6,0.6c0,0.3,0.3,0.6,0.6,0.6c0.3,0,0.6-0.3,0.6-0.6
			C130.7,25.7,130.5,25.4,130.1,25.4"/>
		<path class="st1" d="M105.7,23.5c0-0.3-0.3-0.6-0.6-0.6c-0.3,0-0.6,0.3-0.6,0.6c0,0.3,0.3,0.6,0.6,0.6
			C105.4,24.1,105.7,23.9,105.7,23.5"/>
		<path class="st1" d="M107.4,25.4c0-0.3-0.3-0.6-0.6-0.6c-0.3,0-0.6,0.3-0.6,0.6c0,0.3,0.3,0.6,0.6,0.6
			C107.1,26,107.4,25.7,107.4,25.4"/>
		<path class="st1" d="M113.1,27.5c0-0.3-0.3-0.6-0.6-0.6c-0.3,0-0.6,0.3-0.6,0.6c0,0.3,0.2,0.6,0.6,0.6
			C112.9,28,113.1,27.8,113.1,27.5"/>
		<path class="st1" d="M115.7,30.2c0-0.3-0.3-0.6-0.6-0.6c-0.3,0-0.6,0.3-0.6,0.6c0,0.3,0.3,0.6,0.6,0.6
			C115.5,30.8,115.7,30.6,115.7,30.2"/>
		<path class="st1" d="M117,34.5c0.3,0,0.6-0.3,0.6-0.6c0-0.3-0.3-0.6-0.6-0.6c-0.3,0-0.6,0.3-0.6,0.6
			C116.4,34.3,116.7,34.5,117,34.5"/>
		<path class="st1" d="M112.2,26c0,0.3,0.3,0.5,0.6,0.5c0.1,0,0.3-0.1,0.4-0.2v0.1c0,0.3,0.3,0.6,0.6,0.6c0.3,0,0.5-0.2,0.5-0.4l0,0
			c0,0.1-0.1,0.2-0.1,0.3c0,0.3,0.3,0.6,0.6,0.6c0.3,0,0.6-0.3,0.6-0.6c0-0.1,0-0.3,0-0.4c0.1,0.2,0.2,0.5,0.5,0.5
			c0.2,0,0.4-0.1,0.5-0.3c0.1,0.2,0.3,0.3,0.5,0.3c0.2,0,0.3-0.1,0.5-0.2v0.2c0,0.1,0,0.2,0,0.2c-0.3,0.1-0.5,0.3-0.5,0.6
			c0,0,0,0.2-0.1,0.3c-0.1,0-0.1,0-0.2,0c-0.2,0-0.3,0.1-0.4,0.2l-0.1,0c-0.3,0-0.6,0.3-0.6,0.6c0,0.3,0.3,0.6,0.6,0.6
			c0.2,0,0.3-0.2,0.4-0.3l0.2,0c0.1,0,0.1,0.1,0.2,0.1c0,0,0,0.1-0.2,0.2c-0.3,0-0.3,0.1-0.3,0.4c0,0.2,0,0.4,0.1,0.6
			c-0.1,0.1-0.3,0.3-0.3,0.5c0,0.1,0.1,0.3,0.1,0.4l-0.1,0c-0.3,0-0.6,0.3-0.6,0.6c0,0.3,0.3,0.6,0.6,0.6c0.2,0,0.4-0.1,0.5-0.3
			c0.1,0.1,0.3,0.2,0.4,0.2c0.1,0,0.1,0,0.2,0c0,0.1,0,0.1,0,0.1c0,0.3,0.3,0.6,0.6,0.6c0.3,0,0.6-0.3,0.6-0.6l0-0.1
			c0.1,0,0.3,0.1,0.4,0.1c-0.2,0.1-0.3,0.3-0.3,0.5c0,0.3,0.1,0.6,0.4,0.6c0.1,0,0.2,0,0.3-0.1c0,0.3,0.3,0.5,0.6,0.5
			c0.1,0,0.3,0,0.4-0.1c0.1,0.1,0.1,0.1,0.2,0.1c-0.3,0-0.5,0.3-0.5,0.6c0,0.3,0.3,0.6,0.6,0.6c0.3,0,0.6-0.3,0.6-0.6
			c0-0.3-0.2-0.5-0.4-0.6c0.1,0,0.2,0,0.2-0.1c0.1,0.2,0.3,0.3,0.5,0.3c0.2,0,0.4-0.1,0.5-0.3v0c0,0.3,0.3,0.6,0.6,0.6
			c0.3,0,0.6-0.3,0.6-0.6v0l0.1,0V34c0,0.3,0.2,0.5,0.4,0.6c-0.1,0.1-0.2,0.3-0.2,0.5c0,0.3,0.3,0.6,0.6,0.6c0.3,0,0.6-0.3,0.6-0.6
			c0-0.1,0-0.1,0-0.2c0.1,0,0.2,0.1,0.3,0.1c0.3,0,0.5-0.2,0.6-0.5c0.1,0.2,0.3,0.4,0.6,0.4c0.2,0,0.4-0.1,0.5-0.3
			c0,0.3,0.3,0.6,0.6,0.6l0,0c0.1,0.3,0.3,0.5,0.6,0.5c0.3,0,0.6-0.3,0.6-0.6l0-0.1c0.3,0,0.6-0.3,0.6-0.6c0-0.1,0-0.2-0.1-0.3
			l0.1,0c0.1,0.2,0.3,0.4,0.5,0.4c0,0.1,0,0.1,0,0.2c0,0.3,0.3,0.6,0.6,0.6c0.3,0,0.6-0.3,0.6-0.6l0-0.1l0.1,0
			c0.3,0,0.5-0.2,0.6-0.5c0.1,0.1,0.3,0.2,0.4,0.2c0.3,0,0.5-0.2,0.5-0.4c0.1,0.2,0.3,0.4,0.6,0.4c0.3,0,0.5-0.2,0.6-0.4
			c0.1,0.1,0.2,0.2,0.4,0.2c0.3,0,0.5-0.2,0.6-0.4c0.1,0.1,0.2,0.1,0.3,0.1c0.3,0,0.6-0.3,0.6-0.6c0-0.3-0.3-0.6-0.6-0.6
			c-0.3,0-0.5,0.2-0.6,0.5c-0.1-0.1-0.2-0.1-0.3-0.1c-0.3,0-0.5,0.2-0.6,0.4c-0.1-0.1-0.3-0.2-0.4-0.2c-0.3,0-0.5,0.2-0.6,0.4
			c-0.1-0.2-0.3-0.4-0.5-0.4c-0.1,0-0.3,0.1-0.4,0.2c0-0.3-0.3-0.5-0.6-0.5l0,0c0-0.3-0.3-0.5-0.6-0.5c-0.2,0-0.3,0.1-0.5,0.2
			c0,0-0.1,0-0.2,0c-0.3,0-0.6,0.3-0.6,0.6c0-0.3-0.3-0.6-0.6-0.6c-0.3,0-0.5,0.2-0.6,0.4l-0.1,0l0-0.1c0-0.3-0.3-0.6-0.6-0.6
			c-0.2,0-0.4,0.1-0.5,0.3h0c0-0.1,0.1-0.2,0.1-0.3c0-0.3-0.3-0.6-0.6-0.6c0-0.1,0-0.1,0-0.2c0-0.3-0.3-0.6-0.6-0.6
			c-0.3,0-0.4,0.2-0.4,0.5c0,0.1-0.2,0.3-0.1,0.4c-0.1,0-0.1-0.1-0.2-0.1c0.1-0.1,0.1-0.2,0.1-0.3c0-0.3-0.3-0.6-0.6-0.6
			c-0.1,0-0.2,0-0.3,0.1c-0.1-0.3-0.3-0.5-0.6-0.5l-0.1,0c0-0.3-0.3-0.5-0.6-0.5c-0.2,0-0.3,0.1-0.4,0.2c0.1-0.1,0.2-0.2,0.2-0.4
			c0-0.3-0.2-0.5-0.4-0.6c0-0.1,0.1-0.2,0.1-0.3c0-0.3-0.3-0.6-0.6-0.6c-0.2,0-0.3,0.1-0.4,0.2c-0.1-0.2-0.3-0.4-0.5-0.4l-0.1,0
			c0-0.3-0.3-0.5-0.6-0.5l-0.1,0c0.1-0.1,0.1-0.2,0.1-0.3c0-0.3-0.3-0.6-0.6-0.6c0.1-0.1,0.1-0.2,0.1-0.3c0-0.3-0.3-0.6-0.6-0.6
			c-0.3,0-0.5,0.2-0.6,0.4l0,0l0-0.1c0-0.3-0.3-0.6-0.6-0.6c-0.1,0-0.2,0-0.3,0.1c-0.1-0.2-0.3-0.3-0.5-0.3c-0.1,0-0.2,0-0.3,0.1
			c0-0.3-0.3-0.5-0.6-0.5c-0.2,0-0.3,0.1-0.4,0.2c-0.1-0.2-0.3-0.4-0.6-0.4c-0.1,0-0.2,0-0.3,0.1l0-0.1c0-0.3-0.3-0.6-0.6-0.6
			c-0.2,0-0.3,0-0.4,0.1c0-0.3-0.3-0.5-0.5-0.5l0,0c0-0.3-0.3-0.6-0.6-0.6l-0.1,0c0-0.1,0-0.1,0-0.2c0-0.3-0.3-0.6-0.6-0.6
			c-0.3,0-0.3,0.1-0.3-0.2c0-0.3-0.3-0.6-0.6-0.6c-0.1,0-0.1,0-0.2,0c0-0.1,0.1-0.2,0.1-0.3c0-0.3-0.3-0.6-0.6-0.6
			c-0.1,0-0.2,0-0.2,0c0-0.1,0-0.1,0-0.2c0-0.3-0.3-0.6-0.6-0.6l0,0l0-0.1c0-0.3-0.3-0.6-0.6-0.6h0c0,0,0-0.1,0-0.1
			c0-0.3-0.3-0.6-0.6-0.6c-0.1,0-0.3,0.1-0.4,0.1c-0.1-0.2-0.3-0.4-0.5-0.4c-0.1,0-0.2,0-0.3,0.1c-0.1,0-0.2-0.1-0.3-0.1
			c-0.1-0.2-0.3-0.3-0.5-0.3c-0.2,0-0.4,0.1-0.5,0.4h0c0.1-0.1,0.1-0.2,0.1-0.3c0-0.3-0.3-0.6-0.6-0.6c-0.1,0-0.2,0-0.2,0.1
			c-0.1-0.2-0.3-0.3-0.5-0.3c-0.2,0-0.3,0.1-0.4,0.2c0-0.1,0-0.1,0-0.2c0-0.3-0.3-0.6-0.6-0.6c-0.2,0-0.3,0.1-0.4,0.2l0,0
			c0-0.1,0.1-0.2,0.1-0.3c0-0.3-0.3-0.6-0.6-0.6c-0.1,0-0.1,0-0.2,0l0-0.1c0-0.3-0.3-0.6-0.6-0.6l0,0l0,0c0-0.2-0.1-0.4-0.3-0.5
			c0-0.1,0-0.1,0-0.2c0-0.3-0.3-0.6-0.6-0.6c-0.2,0-0.4,0.1-0.5,0.3c-0.1-0.2-0.3-0.3-0.5-0.3c-0.1,0-0.2,0-0.3,0.1
			c0-0.3-0.3-0.5-0.6-0.5c-0.2,0-0.3,0.1-0.5,0.2c0-0.3-0.2-0.5-0.5-0.5c0-0.3-0.3-0.6-0.6-0.6c-0.1,0-0.2,0-0.2,0.1v0
			c0-0.3-0.3-0.6-0.6-0.6c-0.1,0-0.1,0-0.2,0l0-0.1c0-0.3-0.3-0.6-0.6-0.6c-0.1,0-0.2,0-0.3,0.1c-0.1-0.2-0.3-0.4-0.6-0.4
			c-0.2,0-0.4,0.1-0.5,0.2c0-0.3-0.3-0.5-0.6-0.5l-0.1,0c-0.1-0.3-0.3-0.5-0.6-0.5c-0.2,0-0.4,0.1-0.5,0.2c0,0,0-0.1,0-0.1
			c0-0.3-0.3-0.6-0.6-0.6c-0.1,0-0.1,0-0.2,0c0-0.1,0-0.1,0-0.2c0-0.3-0.3-0.6-0.6-0.6l-0.1,0l0-0.1c0-0.2-0.1-0.4-0.4-0.5
			c0-0.3-0.3-0.5-0.6-0.5c-0.2,0-0.4,0.1-0.5,0.4c-0.1-0.1-0.2-0.2-0.4-0.2c-0.3,0-0.6,0.3-0.6,0.6c0,0.2,0.1,0.3,0.2,0.4
			c-0.1,0.1-0.1,0.2-0.1,0.4c0,0.3,0.3,0.6,0.6,0.6c0.1,0,0.1,0,0.2,0l0,0.1c-0.3,0.1-0.4,0.3-0.4,0.6c0,0.3,0.3,0.6,0.6,0.6
			c0.3,0,0.6-0.3,0.6-0.6l0-0.1c0.1,0,0.1,0,0.2-0.1c0,0.3,0.3,0.5,0.6,0.5c0.2,0,0.4-0.1,0.5-0.3c0.1,0.1,0.3,0.2,0.4,0.2
			c0.2,0,0.4-0.1,0.5-0.2l0,0.1c0,0.3,0.3,0.6,0.6,0.6l0.1,0c0.1,0.2,0.3,0.4,0.5,0.5l-0.1,0.1c-0.3,0-0.5,0.3-0.5,0.6
			c0,0.3,0.2,0.5,0.5,0.6l0,0.1c0,0.3,0.3,0.6,0.6,0.6c0.2,0,0.4-0.1,0.5-0.3c0,0.3,0.3,0.5,0.6,0.5c0.3,0,0.5-0.2,0.5-0.4l0.1,0.1
			l0,0.1c0,0.3,0.3,0.6,0.6,0.6c0.2,0,0.3-0.1,0.4-0.1h0.1c0.1,0,0.1,0,0.2,0c0.1,0.3,0.3,0.4,0.6,0.4c0.3,0,0.5-0.2,0.5-0.4
			c0.1,0.2,0.3,0.3,0.5,0.3c0.1,0,0.2,0,0.3-0.1c0,0.1,0,0.2,0.1,0.2c-0.1,0-0.1,0-0.2,0c-0.3,0-0.5,0.2-0.6,0.5
			c-0.3,0-0.5,0.3-0.5,0.6c0,0.3,0.3,0.6,0.6,0.6l0.1,0c0,0.1-0.1,0.1-0.1,0.2c0,0.3,0.3,0.6,0.6,0.6c0.1,0,0.3,0,0.4-0.1l0,0
			c0,0.3,0.3,0.6,0.6,0.6c0.1,0,0.2,0,0.2,0l0,0c0,0.1,0,0.1,0,0.2c-0.1,0-0.1,0-0.2,0c-0.3,0-0.6,0.3-0.6,0.6
			c0,0.3,0.3,0.6,0.6,0.6c0.3,0,0.6-0.3,0.6-0.6c0-0.1,0-0.1,0-0.2c0.1,0,0.1,0,0.2,0c0.2,0,0.4-0.1,0.5-0.3c0,0.1,0.1,0.2,0.2,0.3
			c-0.1,0.1-0.1,0.2-0.1,0.3c0,0.3,0.3,0.6,0.6,0.6c0.2,0,0.5-0.2,0.5-0.4c0.1,0,0.2,0.1,0.3,0.1c0.2,0,0.3-0.1,0.5-0.2l0,0
			c0,0.3,0.3,0.6,0.6,0.6c0.1,0,0.2,0,0.3-0.1c0.1,0.1,0.3,0.2,0.4,0.2c0.1,0,0.2,0,0.2,0c0.1,0.1,0.3,0.2,0.4,0.2
			c0.2,0,0.4-0.1,0.5-0.4l0.1,0c0.1,0.2,0.3,0.3,0.5,0.3c0.1,0,0.2,0,0.3-0.1c0.1,0,0.1,0.1,0.2,0.1c0,0.1,0,0.1,0,0.1l-0.1,0
			c-0.3,0-0.5,0.2-0.6,0.5l-0.1,0c-0.3,0-0.6,0.3-0.6,0.6c0,0.1,0,0.2,0.1,0.2c-0.1-0.1-0.3-0.2-0.4-0.2c-0.3,0-0.6,0.3-0.6,0.6
			c0,0.3,0.3,0.6,0.6,0.6c0.1,0,0.3-0.1,0.4-0.1c0,0.1,0.1,0.3,0.2,0.3c-0.2,0.1-0.4,0.3-0.4,0.5c0,0.3,0.3,0.6,0.6,0.6
			c0.1,0,0.2,0,0.3-0.1c-0.1,0.1-0.1,0.2-0.1,0.3c0,0.3,0.3,0.6,0.6,0.6c0.1,0,0.1,0,0.2,0c0.1,0.3,0.3,0.5,0.6,0.5
			c0.1,0,0.2,0,0.3-0.1c0,0.2,0.1,0.4,0.3,0.5l0,0.1c0,0.3,0.3,0.6,0.6,0.6c0.2,0,0.4-0.1,0.5-0.3c0.1,0.1,0.2,0,0.3,0
			c0.1,0,0.2,0,0.3-0.1l0,0.2l0,0c-0.3,0-0.6,0.3-0.6,0.6c0,0.3,0.3,0.6,0.6,0.6c0.3,0,0.5-0.2,0.6-0.5l0,0c0.3,0,0.6-0.3,0.6-0.6
			l0-0.1l0.2,0c0,0.1-0.1,0.1-0.1,0.2c0,0.3,0.2,0.6,0.5,0.6C111.9,26.4,112.1,26.2,112.2,26"/>
		<path class="st1" d="M136.2,33.3c0-0.3-0.3-0.6-0.6-0.6c-0.3,0-0.6,0.3-0.6,0.6c0,0.3,0.3,0.6,0.6,0.6
			C135.9,33.8,136.2,33.6,136.2,33.3"/>
		<path class="st1" d="M138,32.8c0-0.3-0.3-0.6-0.6-0.6c-0.3,0-0.6,0.3-0.6,0.6c0,0.3,0.3,0.6,0.6,0.6C137.8,33.4,138,33.1,138,32.8
			"/>
		<path class="st1" d="M98.5,17.4c0-0.3-0.3-0.6-0.6-0.6c-0.3,0-0.6,0.3-0.6,0.6c0,0.3,0.3,0.6,0.6,0.6C98.2,18,98.5,17.8,98.5,17.4
			"/>
		<path class="st1" d="M96.1,15.2c0-0.3-0.3-0.6-0.6-0.6c-0.3,0-0.6,0.3-0.6,0.6c0,0.3,0.3,0.6,0.6,0.6
			C95.8,15.8,96.1,15.6,96.1,15.2"/>
		<path class="st1" d="M93.1,13.4c0-0.3-0.3-0.6-0.6-0.6c-0.3,0-0.6,0.3-0.6,0.6c0,0.3,0.3,0.6,0.6,0.6C92.8,14,93.1,13.7,93.1,13.4
			"/>
		<path class="st1" d="M88.2,10.1c0.3,0,0.6-0.3,0.6-0.6c0-0.3-0.3-0.6-0.6-0.6c-0.3,0-0.6,0.3-0.6,0.6
			C87.6,9.9,87.9,10.1,88.2,10.1"/>
		<path class="st1" d="M107.8,75.9c1.3,0,2.2-0.7,2.2-2c0-1.2-0.8-1.6-2-2c-1.3-0.5-1.9-1.1-1.9-2.1c0-1.3,0.9-2.2,2.4-2.2
			c1.6,0,2.5,0.9,2.5,2.4v0h-0.4V70c0-1.3-0.8-2-2.1-2c-1.3,0-2.1,0.7-2.1,1.8c0,1.2,0.9,1.5,2.2,2c1.2,0.5,1.7,1.1,1.7,2.2
			c0,1.4-1,2.3-2.6,2.3c-1.6,0-2.6-0.9-2.6-2.6v-0.1h0.4C105.5,75.1,106.3,75.9,107.8,75.9"/>
		<path class="st1" d="M107.8,75.9c1.3,0,2.2-0.7,2.2-2c0-1.2-0.8-1.6-2-2c-1.3-0.5-1.9-1.1-1.9-2.1c0-1.3,0.9-2.2,2.4-2.2
			c1.6,0,2.5,0.9,2.5,2.4v0h-0.4V70c0-1.3-0.8-2-2.1-2c-1.3,0-2.1,0.7-2.1,1.8c0,1.2,0.9,1.5,2.2,2c1.2,0.5,1.7,1.1,1.7,2.2
			c0,1.4-1,2.3-2.6,2.3c-1.6,0-2.6-0.9-2.6-2.6v-0.1h0.4C105.5,75.1,106.3,75.9,107.8,75.9"/>
		<path class="st1" d="M114.8,67.8h0.4l-0.7,3.4c0.6-0.8,1.3-1.2,2.2-1.2c1.1,0,1.7,0.6,1.7,1.5c0,0.3-0.1,0.6-0.1,1l-0.8,3.6h-0.4
			l0.8-4c0-0.2,0.1-0.4,0.1-0.5c0-0.8-0.5-1.2-1.3-1.2c-1.3,0-2.2,0.9-2.6,2.8l-0.6,3H113L114.8,67.8z"/>
		<path class="st1" d="M114.8,67.8h0.4l-0.7,3.4c0.6-0.8,1.3-1.2,2.2-1.2c1.1,0,1.7,0.6,1.7,1.5c0,0.3-0.1,0.6-0.1,1l-0.8,3.6h-0.4
			l0.8-4c0-0.2,0.1-0.4,0.1-0.5c0-0.8-0.5-1.2-1.3-1.2c-1.3,0-2.2,0.9-2.6,2.8l-0.6,3H113L114.8,67.8z"/>
	</g>
	<path class="st1" d="M122.6,67.8l-0.2,1h0.4l0.2-1H122.6z M122.2,70.1l-1.3,6h0.4l1.3-6H122.2z"/>
	<path class="st1" d="M122.6,67.8l-0.2,1h0.4l0.2-1H122.6z M122.2,70.1l-1.3,6h0.4l1.3-6H122.2z"/>
	<g>
		<path class="st1" d="M126.1,70.1h0.4l-0.2,0.9c0.3-0.7,0.9-1,1.5-1c0.2,0,0.3,0,0.6,0.1l-0.1,0.3c-0.2,0-0.3-0.1-0.5-0.1
			c-0.8,0-1.5,0.8-1.8,2.3l-0.7,3.5h-0.3L126.1,70.1z"/>
		<path class="st1" d="M126.1,70.1h0.4l-0.2,0.9c0.3-0.7,0.9-1,1.5-1c0.2,0,0.3,0,0.6,0.1l-0.1,0.3c-0.2,0-0.3-0.1-0.5-0.1
			c-0.8,0-1.5,0.8-1.8,2.3l-0.7,3.5h-0.3L126.1,70.1z"/>
		<path class="st1" d="M130.5,73.8c0,1.2,0.7,2.1,1.8,2.1c1,0,1.9-0.6,2.3-1.7h0.4c-0.5,1.2-1.5,2-2.6,2c-1.3,0-2.2-0.9-2.2-2.5
			c0-2.1,1.2-3.8,3-3.8c1.3,0,2.2,0.9,2.2,2.5c0,0.1,0,0.3,0,0.6h-4.7C130.5,73.4,130.5,73.7,130.5,73.8 M134.9,72.7
			c0-0.1,0-0.2,0-0.3c0-1.4-0.7-2.2-1.9-2.2c-1.1,0-2.1,0.9-2.4,2.5H134.9z"/>
		<path class="st1" d="M130.5,73.8c0,1.2,0.7,2.1,1.8,2.1c1,0,1.9-0.6,2.3-1.7h0.4c-0.5,1.2-1.5,2-2.6,2c-1.3,0-2.2-0.9-2.2-2.5
			c0-2.1,1.2-3.8,3-3.8c1.3,0,2.2,0.9,2.2,2.5c0,0.1,0,0.3,0,0.6h-4.7C130.5,73.4,130.5,73.7,130.5,73.8 M134.9,72.7
			c0-0.1,0-0.2,0-0.3c0-1.4-0.7-2.2-1.9-2.2c-1.1,0-2.1,0.9-2.4,2.5H134.9z"/>
	</g>
	<polygon class="st1" points="78.4,41.8 75.1,49 71.9,41.8 70.1,41.8 70.1,50.1 71.3,50.1 71.2,42.7 74.5,50.1 75.7,50.1 79.1,42.7 
		79,50.1 80.2,50.1 80.2,41.8 	"/>
	<polygon class="st1" points="78.4,41.8 75.1,49 71.9,41.8 70.1,41.8 70.1,50.1 71.3,50.1 71.2,42.7 74.5,50.1 75.7,50.1 79.1,42.7 
		79,50.1 80.2,50.1 80.2,41.8 	"/>
	<g>
		<path class="st1" d="M87.3,41.6c2.8,0,4.6,1.7,4.6,4.4c0,2.7-1.7,4.4-4.6,4.4c-2.8,0-4.6-1.7-4.6-4.4
			C82.8,43.3,84.5,41.6,87.3,41.6 M87.3,49.2c2.1,0,3.3-1.2,3.3-3.3c0-2-1.2-3.3-3.3-3.3c-2.1,0-3.3,1.2-3.3,3.3
			C84,48,85.2,49.2,87.3,49.2"/>
		<path class="st1" d="M87.3,41.6c2.8,0,4.6,1.7,4.6,4.4c0,2.7-1.7,4.4-4.6,4.4c-2.8,0-4.6-1.7-4.6-4.4
			C82.8,43.3,84.5,41.6,87.3,41.6 M87.3,49.2c2.1,0,3.3-1.2,3.3-3.3c0-2-1.2-3.3-3.3-3.3c-2.1,0-3.3,1.2-3.3,3.3
			C84,48,85.2,49.2,87.3,49.2"/>
		<path class="st1" d="M94.5,41.8h4.4c1.9,0,3,0.8,3,2.3c0,1.1-0.5,1.7-1.4,2c0.9,0.1,1.2,0.6,1.3,1.6l0.1,1.3
			c0,0.4,0.1,0.8,0.3,1.1h-1.4c-0.1-0.2-0.1-0.5-0.1-0.9l-0.1-1.2c-0.1-1.1-0.4-1.5-1.7-1.5h-3.1v3.6h-1.2V41.8z M95.6,42.8v2.7h2.8
			c1.5,0,2.2-0.3,2.2-1.4c0-1.1-0.7-1.4-2.3-1.4H95.6z"/>
		<path class="st1" d="M94.5,41.8h4.4c1.9,0,3,0.8,3,2.3c0,1.1-0.5,1.7-1.4,2c0.9,0.1,1.2,0.6,1.3,1.6l0.1,1.3
			c0,0.4,0.1,0.8,0.3,1.1h-1.4c-0.1-0.2-0.1-0.5-0.1-0.9l-0.1-1.2c-0.1-1.1-0.4-1.5-1.7-1.5h-3.1v3.6h-1.2V41.8z M95.6,42.8v2.7h2.8
			c1.5,0,2.2-0.3,2.2-1.4c0-1.1-0.7-1.4-2.3-1.4H95.6z"/>
	</g>
	<polygon class="st1" points="104.7,41.8 106.3,41.8 111.6,48.9 111.6,41.8 112.7,41.8 112.7,50.1 111.1,50.1 105.9,43 105.9,50.1 
		104.7,50.1 	"/>
	<polygon class="st1" points="104.7,41.8 106.3,41.8 111.6,48.9 111.6,41.8 112.7,41.8 112.7,50.1 111.1,50.1 105.9,43 105.9,50.1 
		104.7,50.1 	"/>
	<rect x="115.9" y="41.8" class="st1" width="1.2" height="8.3"/>
	<rect x="115.9" y="41.8" class="st1" width="1.2" height="8.3"/>
	<polygon class="st1" points="120.2,41.8 121.8,41.8 127,48.9 127,41.8 128.2,41.8 128.2,50.1 126.6,50.1 121.3,43 121.3,50.1 
		120.2,50.1 	"/>
	<polygon class="st1" points="120.2,41.8 121.8,41.8 127,48.9 127,41.8 128.2,41.8 128.2,50.1 126.6,50.1 121.3,43 121.3,50.1 
		120.2,50.1 	"/>
	<g>
		<path class="st1" d="M135.1,42.7c-1.9,0-3.1,1.3-3.1,3.3c0,2,1.2,3.3,3.1,3.3c1.7,0,2.9-1,3.1-2.5h-2.6v-1.1h3.7v4.5h-0.8
			l-0.1-1.4c-0.6,1-1.8,1.6-3.2,1.6c-2.6,0-4.3-1.8-4.3-4.4c0-2.7,1.7-4.4,4.4-4.4c2.2,0,3.8,1.2,3.9,2.8h-1.2
			C137.6,43.3,136.6,42.7,135.1,42.7"/>
		<path class="st1" d="M135.1,42.7c-1.9,0-3.1,1.3-3.1,3.3c0,2,1.2,3.3,3.1,3.3c1.7,0,2.9-1,3.1-2.5h-2.6v-1.1h3.7v4.5h-0.8
			l-0.1-1.4c-0.6,1-1.8,1.6-3.2,1.6c-2.6,0-4.3-1.8-4.3-4.4c0-2.7,1.7-4.4,4.4-4.4c2.2,0,3.8,1.2,3.9,2.8h-1.2
			C137.6,43.3,136.6,42.7,135.1,42.7"/>
	</g>
	<polygon class="st1" points="145.4,50.1 144.2,50.1 144.2,42.9 141.1,42.9 141.1,41.8 148.6,41.8 148.6,42.9 145.4,42.9 	"/>
	<polygon class="st1" points="145.4,50.1 144.2,50.1 144.2,42.9 141.1,42.9 141.1,41.8 148.6,41.8 148.6,42.9 145.4,42.9 	"/>
	<g>
		<path class="st1" d="M154.7,41.6c2.8,0,4.6,1.7,4.6,4.4c0,2.7-1.7,4.4-4.6,4.4c-2.8,0-4.6-1.7-4.6-4.4
			C150.2,43.3,151.9,41.6,154.7,41.6 M154.7,49.2c2.1,0,3.3-1.2,3.3-3.3c0-2-1.2-3.3-3.3-3.3c-2.1,0-3.3,1.2-3.3,3.3
			C151.4,48,152.6,49.2,154.7,49.2"/>
		<path class="st1" d="M154.7,41.6c2.8,0,4.6,1.7,4.6,4.4c0,2.7-1.7,4.4-4.6,4.4c-2.8,0-4.6-1.7-4.6-4.4
			C150.2,43.3,151.9,41.6,154.7,41.6 M154.7,49.2c2.1,0,3.3-1.2,3.3-3.3c0-2-1.2-3.3-3.3-3.3c-2.1,0-3.3,1.2-3.3,3.3
			C151.4,48,152.6,49.2,154.7,49.2"/>
	</g>
	<polygon class="st1" points="168.7,41.8 168.7,48.9 163.5,41.8 161.9,41.8 161.9,50.1 163.1,50.1 163.1,43 168.3,50.1 169.9,50.1 
		169.9,41.8 	"/>
	<polygon class="st1" points="168.7,41.8 168.7,48.9 163.5,41.8 161.9,41.8 161.9,50.1 163.1,50.1 163.1,43 168.3,50.1 169.9,50.1 
		169.9,41.8 	"/>
	<g>
		<path class="st1" d="M79.6,54.6h3.8c2.1,0,3.1,0.8,3.1,2.5c0,1.7-1,2.5-3.1,2.5h-2.7v3.4h-1.2V54.6z M83,58.5
			c1.6,0,2.4-0.3,2.4-1.4c0-1.2-0.7-1.5-2.3-1.5h-2.3v2.9H83z"/>
		<path class="st1" d="M79.6,54.6h3.8c2.1,0,3.1,0.8,3.1,2.5c0,1.7-1,2.5-3.1,2.5h-2.7v3.4h-1.2V54.6z M83,58.5
			c1.6,0,2.4-0.3,2.4-1.4c0-1.2-0.7-1.5-2.3-1.5h-2.3v2.9H83z"/>
	</g>
	<polygon class="st1" points="89,54.6 95.6,54.6 95.6,55.7 90.2,55.7 90.2,58.1 95.3,58.1 95.3,59.2 90.2,59.2 90.2,61.8 95.7,61.8 
		95.7,62.9 89,62.9 	"/>
	<polygon class="st1" points="89,54.6 95.6,54.6 95.6,55.7 90.2,55.7 90.2,58.1 95.3,58.1 95.3,59.2 90.2,59.2 90.2,61.8 95.7,61.8 
		95.7,62.9 89,62.9 	"/>
	<polygon class="st1" points="98.3,54.6 99.9,54.6 105.2,61.7 105.2,54.6 106.3,54.6 106.3,62.9 104.7,62.9 99.5,55.8 99.5,62.9 
		98.3,62.9 	"/>
	<polygon class="st1" points="98.3,54.6 99.9,54.6 105.2,61.7 105.2,54.6 106.3,54.6 106.3,62.9 104.7,62.9 99.5,55.8 99.5,62.9 
		98.3,62.9 	"/>
	<rect x="109.5" y="54.6" class="st1" width="1.2" height="8.3"/>
	<rect x="109.5" y="54.6" class="st1" width="1.2" height="8.3"/>
	<polygon class="st1" points="113.8,54.6 115.4,54.6 120.6,61.7 120.6,54.6 121.8,54.6 121.8,62.9 120.2,62.9 114.9,55.8 
		114.9,62.9 113.8,62.9 	"/>
	<polygon class="st1" points="113.8,54.6 115.4,54.6 120.6,61.7 120.6,54.6 121.8,54.6 121.8,62.9 120.2,62.9 114.9,55.8 
		114.9,62.9 113.8,62.9 	"/>
	<g>
		<path class="st1" d="M125.7,60.1c0,1.3,0.9,1.9,2.6,1.9c1.5,0,2.3-0.5,2.3-1.4c0-0.7-0.4-1-1.4-1.2l-2.1-0.4
			c-1.6-0.3-2.4-0.9-2.4-2.2c0-1.6,1.2-2.5,3.5-2.5c2.1,0,3.3,0.9,3.3,2.6h-1.2c-0.1-1.1-0.8-1.6-2.2-1.6S126,56,126,56.8
			c0,0.7,0.5,0.9,1.5,1.1l1.8,0.4c1.8,0.3,2.6,0.9,2.6,2.3c0,1.6-1.3,2.6-3.6,2.6c-2.5,0-3.8-1-3.8-3H125.7z"/>
		<path class="st1" d="M125.7,60.1c0,1.3,0.9,1.9,2.6,1.9c1.5,0,2.3-0.5,2.3-1.4c0-0.7-0.4-1-1.4-1.2l-2.1-0.4
			c-1.6-0.3-2.4-0.9-2.4-2.2c0-1.6,1.2-2.5,3.5-2.5c2.1,0,3.3,0.9,3.3,2.6h-1.2c-0.1-1.1-0.8-1.6-2.2-1.6S126,56,126,56.8
			c0,0.7,0.5,0.9,1.5,1.1l1.8,0.4c1.8,0.3,2.6,0.9,2.6,2.3c0,1.6-1.3,2.6-3.6,2.6c-2.5,0-3.8-1-3.8-3H125.7z"/>
		<path class="st1" d="M141.9,59.8c0,2.2-1.3,3.3-3.7,3.3c-2.4,0-3.7-1.2-3.7-3.3v-5.2h1.2v4.7c0,1.8,0.8,2.7,2.5,2.7
			c1.7,0,2.5-0.9,2.5-2.7v-4.7h1.2V59.8z"/>
		<path class="st1" d="M141.9,59.8c0,2.2-1.3,3.3-3.7,3.3c-2.4,0-3.7-1.2-3.7-3.3v-5.2h1.2v4.7c0,1.8,0.8,2.7,2.5,2.7
			c1.7,0,2.5-0.9,2.5-2.7v-4.7h1.2V59.8z"/>
	</g>
	<polygon class="st1" points="144.7,54.6 145.9,54.6 145.9,61.8 151,61.8 151,62.9 144.7,62.9 	"/>
	<polygon class="st1" points="144.7,54.6 145.9,54.6 145.9,61.8 151,61.8 151,62.9 144.7,62.9 	"/>
	<path class="st1" d="M156.4,54.6h1.2l3.7,8.3h-1.2l-1.1-2.4h-4.3l-1.1,2.4h-1.2L156.4,54.6z M158.6,59.5l-1.6-3.6l-1.7,3.6H158.6z"
		/>
	<path class="st1" d="M156.4,54.6h1.2l3.7,8.3h-1.2l-1.1-2.4h-4.3l-1.1,2.4h-1.2L156.4,54.6z M158.6,59.5l-1.6-3.6l-1.7,3.6H158.6z"
		/>
</g>
</svg>
