<?xml version="1.0" encoding="utf-8"?>
<!-- Generator: Adobe Illustrator 24.0.3, SVG Export Plug-In . SVG Version: 6.00 Build 0)  -->
<svg version="1.1" id="Layer_1" xmlns="http://www.w3.org/2000/svg" xmlns:xlink="http://www.w3.org/1999/xlink" x="0px" y="0px"
	 viewBox="0 0 240 80" style="enable-background:new 0 0 240 80;" xml:space="preserve">
<style type="text/css">
	.st0{display:none;}
	.st1{fill:#FFFFFF;}
	.st2{fill:#7C7C7C;}
</style>
<g id="guides" class="st0">
</g>
<g id="guides_1_" class="st0">
</g>
<g>
	<polygon class="st1" points="94,65.9 155,65.9 94,6.8 	"/>
	<path class="st2" d="M94,6.8l0,15.3c0,0.5,0.1,1.4,0.2,1.9c2.4,8,16.2,4.8,25.2,18.4c0,0,1.7,0.2,2.9-2c0,0-2.4-0.2-2.5-2.1
		c0,0,4.9,1,7.8,3.5c0,0,0,1.1-3.4,1.1c-0.7,0-1,0.1-2,1.2c0,0-2.7,3.1-5.5,3.1c-0.8,0-1.5-0.4-1.5-0.6c0,0-0.1-0.4,0.5-0.2
		c0,0,1.5,0.4,2.2-0.3c0,0-0.6-1-1.7-0.9c-0.7,0-1.4,0.2-1.8,0.8c0,0-2.2,2.9,4.1,6c9.1,4.2,14.2,10.4,13.5,12
		c-0.9-0.7-8.3-10.4-21.1-11.5c0,0,0.1-0.2,0.1-0.5c1.3-6.7-1.6-11.3-5-13.9c-3.4-2.9-9.9-5.3-11.8-11.7l0,39.4l60.9,0L94,6.8z"/>
</g>
</svg>
