<?xml version="1.0" encoding="utf-8"?>
<!-- Generator: Adobe Illustrator 24.0.1, SVG Export Plug-In . SVG Version: 6.00 Build 0)  -->
<svg version="1.1" id="Layer_1" xmlns="http://www.w3.org/2000/svg" xmlns:xlink="http://www.w3.org/1999/xlink" x="0px" y="0px"
	 viewBox="0 0 240 80" style="enable-background:new 0 0 240 80;" xml:space="preserve">
<style type="text/css">
	.st0{display:none;}
	.st1{fill-rule:evenodd;clip-rule:evenodd;fill:#A6A8AB;}
	.st2{fill-rule:evenodd;clip-rule:evenodd;fill:#FFFFFF;}
	.st3{fill-rule:evenodd;clip-rule:evenodd;fill:#000707;}
</style>
<g id="guides" class="st0">
</g>
<path class="st1" d="M170.7,36c0-3.3-2-6-4.8-7.2l0,0l0,0c0,0,0,0,0,0l-37.5-15.7l0,0c-2-0.9-4.2-1.3-6.4-1.3
	c-2.3,0-4.4,0.5-6.3,1.3l0,0L78,28.7c0,0-0.1,0-0.1,0.1l-0.1,0.1l0,0c-2.7,1.2-4.6,4-4.6,7.2c0,3.2,2,6,4.7,7.2l0,0l0.1,0
	c0,0,0,0,0,0l37.6,21.1l0,0c1.9,0.8,4.1,1.3,6.3,1.3c2.3,0,4.4-0.5,6.4-1.3l0.1,0l37.6-21l0,0C168.7,42,170.7,39.3,170.7,36z"/>
<polygon class="st2" points="94.5,48.8 94.5,48.9 94.5,48.9 94.5,49 94.5,49 94.5,49 94.5,49.1 94.5,49.3 94.5,49.4 94.5,49.5 
	94.4,49.6 94.4,49.7 94.4,49.8 94.3,49.9 94.2,49.9 94.2,50 94.1,50 94,50.1 93.9,50.1 93.8,50.2 93.7,50.2 93.6,50.2 93.5,50.2 
	93.4,50.2 93.3,50.2 93.2,50.2 93.1,50.1 93,50.1 92.9,50.1 92.9,50 92.8,50 92.7,49.9 92.7,49.9 92.7,49.8 92.6,49.8 92.6,49.7 
	92.6,49.6 92.5,49.5 92.5,49.3 92.5,49.2 92.4,49 92.4,48.9 92.4,47.8 92.5,47.7 92.5,47.5 92.5,47.4 92.5,47.1 92.6,46.9 
	92.6,46.8 92.6,46.8 92.7,46.7 92.7,46.7 92.8,46.6 92.8,46.6 92.8,46.6 92.9,46.5 93,46.5 93,46.5 93.1,46.5 93.1,46.4 93.2,46.4 
	93.3,46.4 93.4,46.4 93.5,46.4 93.6,46.4 93.7,46.4 93.8,46.4 93.9,46.4 93.9,46.4 94,46.5 94.1,46.5 94.2,46.6 94.2,46.6 
	94.3,46.7 94.3,46.8 94.4,46.8 94.4,46.9 94.4,47 94.5,47.1 94.5,47.2 94.5,47.3 94.5,47.4 94.5,47.4 94.5,47.5 94.5,47.5 
	94.5,47.6 93.9,47.6 93.9,47.5 93.9,47.4 93.9,47.3 93.8,47.2 93.8,47.1 93.8,47.1 93.8,47 93.7,47 93.7,47 93.7,46.9 93.6,46.9 
	93.6,46.9 93.5,46.9 93.5,46.9 93.4,46.9 93.4,47 93.3,47 93.3,47 93.2,47.1 93.2,47.1 93.2,47.2 93.1,47.3 93.1,47.4 93.1,47.4 
	93.1,47.6 93.1,49 93.1,49.1 93.1,49.2 93.1,49.2 93.1,49.3 93.2,49.4 93.2,49.5 93.3,49.5 93.3,49.6 93.4,49.6 93.4,49.6 
	93.5,49.6 93.6,49.6 93.6,49.6 93.7,49.6 93.7,49.6 93.8,49.5 93.8,49.5 93.8,49.4 93.8,49.4 93.9,49.3 93.9,49.2 93.9,49 
	93.9,48.9 93.9,48.8 94.5,48.8 "/>
<path class="st2" d="M94.9,48l0-0.2l0-0.2l0-0.2l0-0.1l0-0.1l0-0.1l0-0.1l0.1-0.1l0.1-0.1l0,0l0,0l0,0l0,0l0.1,0l0.1,0l0.1,0l0.1,0
	l0.1,0l0.1,0l0.1,0l0.1,0l0.1,0h0.2l0.1,0l0.1,0l0.1,0l0.1,0l0.1,0l0.1,0l0.1,0l0.1,0l0.1,0l0,0l0,0l0,0l0,0l0.1,0.1l0.1,0.1l0,0.1
	l0,0.1l0,0.1l0,0.1l0,0.2l0,0.2l0,0.2v0.7l0,0.3l0,0.2l0,0.1l0,0.1l0,0.1L97,49.7l0,0.1l-0.1,0.1l0,0l0,0l-0.1,0l-0.1,0l-0.1,0
	l-0.1,0l-0.1,0l-0.1,0l-0.1,0l-0.1,0l-0.1,0h-0.1l-0.1,0l-0.1,0h-0.1l-0.1,0l-0.1,0l-0.1,0l-0.1,0l-0.1,0l-0.1,0l-0.1,0l-0.1,0
	l-0.1,0l0,0l0,0l-0.1-0.1l0-0.1L95,49.6l0-0.1l0-0.1l0-0.1l0-0.2l0-0.3V48L94.9,48z M95.5,48.9V49l0,0.1l0,0.1l0,0.1l0,0.1l0,0.1
	l0.1,0.1l0,0l0,0l0.1,0l0.1,0l0.1,0l0.1,0l0.1,0l0.1,0l0.1,0l0.1,0l0,0l0-0.1l0.1-0.1l0-0.1l0-0.1l0-0.1l0-0.1v-1.2l0-0.1l0-0.1
	l0-0.1l0-0.1l0-0.1l0-0.1l0-0.1l0-0.1l0-0.1l-0.1,0l-0.1,0l0,0l0,0l0,0H96l0,0l0,0l0,0l-0.1,0l-0.1,0l0,0.1l0,0.1l0,0.1l0,0.1l0,0.1
	l0,0.1l0,0.1l0,0.1V48.9L95.5,48.9z"/>
<polygon class="st2" points="99.1,46.5 99.8,46.5 99.8,50.1 99.1,50.1 98.6,48.8 98.5,48.6 98.4,48.1 98.3,48 98.3,47.8 98.2,47.6 
	98.1,47.4 98.1,47.4 98.1,47.5 98.2,47.7 98.2,47.9 98.2,48 98.2,48.3 98.2,48.4 98.2,48.5 98.2,48.7 98.2,48.8 98.2,48.9 
	98.2,49.1 98.2,50.1 97.6,50.1 97.6,46.5 98.3,46.5 98.8,47.8 98.8,48 98.9,48.1 98.9,48.3 99,48.4 99,48.6 99.1,48.8 99.2,49 
	99.2,49.2 99.2,49.2 99.2,49 99.2,48.9 99.2,48.7 99.2,48.5 99.2,48.3 99.2,48.1 99.1,47.9 99.1,47.8 99.1,47.7 99.1,47.6 
	99.1,47.4 99.1,46.5 "/>
<polygon class="st2" points="102.3,48.8 102.3,48.9 102.3,48.9 102.3,49 102.3,49 102.3,49.1 102.3,49.3 102.2,49.4 102.2,49.5 
	102.2,49.6 102.2,49.7 102.1,49.8 102.1,49.9 102,49.9 101.9,50 101.9,50 101.8,50.1 101.7,50.1 101.6,50.2 101.5,50.2 101.3,50.2 
	101.2,50.2 101.1,50.2 101,50.2 100.9,50.1 100.8,50.1 100.8,50.1 100.7,50.1 100.6,50 100.6,50 100.5,50 100.5,49.9 100.5,49.9 
	100.4,49.8 100.4,49.7 100.3,49.6 100.3,49.5 100.2,49.3 100.2,49.2 100.2,49 100.2,48.9 100.2,48 100.2,47.8 100.2,47.7 
	100.2,47.5 100.2,47.4 100.3,47.2 100.3,47.1 100.3,46.9 100.4,46.8 100.4,46.8 100.5,46.7 100.5,46.7 100.5,46.6 100.6,46.6 
	100.6,46.6 100.7,46.5 100.7,46.5 100.8,46.5 100.8,46.5 100.9,46.4 101,46.4 101.1,46.4 101.1,46.4 101.2,46.4 101.3,46.4 
	101.4,46.4 101.5,46.4 101.6,46.4 101.7,46.4 101.8,46.5 101.9,46.5 101.9,46.6 102,46.6 102.1,46.7 102.1,46.8 102.1,46.8 
	102.2,46.9 102.2,47 102.2,47.1 102.3,47.2 102.3,47.3 102.3,47.4 102.3,47.4 102.3,47.4 102.3,47.5 102.3,47.6 101.7,47.6 
	101.6,47.5 101.6,47.4 101.6,47.3 101.6,47.2 101.6,47.1 101.6,47.1 101.5,47 101.5,47 101.5,47 101.4,46.9 101.4,46.9 101.3,46.9 
	101.3,46.9 101.2,46.9 101.2,46.9 101.2,47 101.1,47 101,47 101,47.1 101,47.1 100.9,47.2 100.9,47.3 100.9,47.4 100.9,47.4 
	100.9,47.5 100.9,47.6 100.9,47.7 100.9,48.9 100.9,49 100.9,49.1 100.9,49.2 100.9,49.2 100.9,49.3 100.9,49.4 101,49.4 101,49.5 
	101,49.5 101.1,49.6 101.1,49.6 101.2,49.6 101.2,49.6 101.3,49.6 101.4,49.6 101.4,49.6 101.5,49.6 101.5,49.5 101.6,49.5 
	101.6,49.4 101.6,49.4 101.6,49.3 101.6,49.2 101.7,49 101.7,48.9 101.7,48.8 102.3,48.8 "/>
<polygon class="st2" points="102.7,50.1 102.7,46.5 104.5,46.5 104.5,47 103.3,47 103.3,47.9 104.4,47.9 104.4,48.4 103.3,48.4 
	103.3,49.6 104.5,49.6 104.5,50.1 102.7,50.1 "/>
<polygon class="st2" points="106.4,46.5 107,46.5 107,50.1 106.4,50.1 105.9,48.8 105.8,48.6 105.7,48.5 105.7,48.3 105.6,48.1 
	105.6,48 105.5,47.8 105.5,47.6 105.4,47.4 105.4,47.4 105.4,47.5 105.4,47.6 105.4,47.7 105.4,48 105.4,48.3 105.5,48.4 
	105.5,48.5 105.5,48.7 105.5,48.8 105.5,48.9 105.5,49.1 105.5,49.2 105.5,49.3 105.5,50.1 104.8,50.1 104.8,46.5 105.5,46.5 
	106,47.8 106.1,48 106.2,48.3 106.2,48.4 106.4,48.8 106.4,49 106.5,49.2 106.5,49.2 106.5,49.1 106.5,49 106.5,48.9 106.4,48.7 
	106.4,48.3 106.4,48.2 106.4,48.1 106.4,47.9 106.4,47.8 106.4,47.7 106.4,47.6 106.4,47.3 106.4,47.2 106.4,46.5 "/>
<polygon class="st2" points="107.3,46.5 109.4,46.5 109.4,47 108.7,47 108.7,50.1 108,50.1 108,47 107.3,47 107.3,46.5 "/>
<path class="st2" d="M110.3,48.5v1.6h-0.6v-3.6h1.3l0.1,0l0.1,0l0.1,0l0.1,0l0.1,0l0.1,0l0.1,0l0.1,0.1l0.1,0.1l0.1,0.1l0,0.1l0,0.1
	l0,0.1l0,0.1v0.3l0,0.1l0,0.1l0,0.1l0,0.1l-0.1,0.1l0,0.1l0,0.1l-0.1,0l-0.1,0l-0.1,0l-0.1,0l-0.1,0v0l0.1,0l0.1,0l0.1,0l0.1,0l0,0
	l0,0l0,0l0,0l0,0.1l0,0l0,0.1l0,0.1l0,0.1l0,0.1v0.4l0,0.2l0,0.2l0,0.2l0,0.1l0,0.1l0,0.1l0,0v0.1h-0.7l0-0.1l0-0.1l0-0.1l0-0.1
	l0-0.1v-0.3l0-0.1V49l0-0.1l0-0.1l0,0l0,0l0,0l0,0l0,0l0,0l0,0l0,0l-0.1,0l-0.1,0l-0.1,0l-0.1,0H110.3L110.3,48.5z M110.3,48h0.5
	l0.1,0l0.1,0l0,0l0,0l0.1-0.1l0,0l0,0l0,0l0-0.1l0-0.1l0-0.1v-0.1l0-0.1l0-0.1v-0.1l0-0.1l0-0.1l0,0l0,0l0,0l0,0l0,0l0,0l0,0l0,0
	l-0.1,0l-0.1,0h-0.5V48L110.3,48z"/>
<path class="st2" d="M112.1,50.1l0.8-3.6h0.9l0.8,3.6h-0.7l-0.2-0.9h-0.8l-0.2,0.9H112.1L112.1,50.1z M113,48.6h0.5l-0.2-1l0-0.1
	l0-0.1l0-0.1l0-0.1l0-0.1v-0.1l0-0.1l0-0.1l0,0V47l0,0v-0.1l0,0v0h0v0l0,0V47l0,0v0l0,0v0l0,0.1l0,0.1l0,0.1l0,0.1l0,0.1l0,0.1
	l0,0.1L113,48.6L113,48.6z"/>
<polygon class="st2" points="114.3,46.5 116.4,46.5 116.4,47 115.7,47 115.7,50.1 115,50.1 115,47 114.3,47 114.3,46.5 "/>
<polygon class="st2" points="116.7,50.1 116.7,46.5 118.5,46.5 118.5,47 117.3,47 117.3,47.9 118.4,47.9 118.4,48.4 117.3,48.4 
	117.3,49.6 118.5,49.6 118.5,50.1 116.7,50.1 "/>
<path class="st2" d="M118.9,50.1v-3.6h1.3l0.1,0l0.1,0l0.1,0l0.1,0l0.1,0l0,0l0,0l0,0l0,0l0,0.1l0,0.1l0,0.1l0.1,0.1l0,0.1l0,0.1
	l0,0.1l0,0.2l0,0.2v0.2l0,0.2v0.3l0,0.3l0,0.1l0,0.3l0,0.1l0,0.1l0,0.1l0,0.1l-0.1,0.1l-0.1,0.1l-0.1,0.1l0,0l0,0l0,0l-0.1,0l-0.1,0
	l-0.1,0l-0.1,0l-0.1,0l-0.1,0h-0.1l-0.1,0H118.9L118.9,50.1z M119.8,49.6l0.1,0l0.1,0l0.1,0l0.1,0l0.1,0l0,0l0-0.1l0-0.1l0-0.1
	l0-0.1l0-0.1l0-0.1l0-0.3v-0.7l0-0.2l0-0.1l0-0.1l0-0.1l0-0.1l0-0.1l0-0.1l0-0.1l0,0l-0.1,0l-0.1,0l-0.1,0h-0.5v2.6H119.8
	L119.8,49.6z"/>
<polygon class="st2" points="123.3,47.4 123.4,47.5 123.4,47.6 123.4,47.6 123.4,47.7 123.4,47.8 123.5,47.8 123.5,47.9 123.5,48 
	123.5,48 123.5,47.9 123.5,47.8 123.6,47.7 123.6,47.6 123.6,47.5 123.7,47.4 123.7,47.4 123.7,47.3 124,46.5 124.7,46.5 
	123.8,48.6 123.8,50.1 123.2,50.1 123.2,48.6 122.3,46.5 123,46.5 123.3,47.4 "/>
<polygon class="st2" points="124.9,50.1 124.9,46.5 126.7,46.5 126.7,47 125.6,47 125.6,47.9 126.7,47.9 126.7,48.4 125.6,48.4 
	125.6,49.6 126.7,49.6 126.7,50.1 124.9,50.1 "/>
<path class="st2" d="M126.8,50.1l0.8-3.6h0.9l0.8,3.6h-0.7l-0.2-0.9h-0.8l-0.2,0.9H126.8L126.8,50.1z M127.8,48.6h0.5l-0.2-1l0-0.1
	l0-0.1l0-0.1l0-0.1l0-0.1l0-0.1l0-0.1l0-0.1v-0.1l0,0V47l0,0v0l0,0h0l0,0V47l0,0v0l0,0v0.1l0,0.1l0,0.1l0,0.1l0,0.1l0,0.1l0,0.1
	l0,0.1l0,0.1L127.8,48.6L127.8,48.6z"/>
<polygon class="st2" points="130.9,47.6 130.9,47.5 130.8,47.3 130.8,47.3 130.8,47.2 130.8,47.1 130.8,47.1 130.7,47 130.7,47 
	130.7,47 130.6,47 130.6,46.9 130.5,46.9 130.5,46.9 130.4,46.9 130.3,46.9 130.3,47 130.2,47 130.2,47 130.2,47.1 130.2,47.1 
	130.1,47.1 130.1,47.2 130.1,47.3 130.1,47.3 130.1,47.4 130.1,47.4 130.1,47.4 130.2,47.5 130.2,47.6 130.3,47.6 130.3,47.7 
	130.4,47.7 130.5,47.8 130.6,47.8 130.7,47.9 130.8,48 130.9,48.1 131,48.1 131.1,48.2 131.2,48.3 131.3,48.4 131.3,48.5 
	131.4,48.6 131.5,48.6 131.5,48.7 131.5,48.8 131.5,48.9 131.6,49 131.6,49.1 131.6,49.3 131.5,49.4 131.5,49.5 131.5,49.6 
	131.4,49.7 131.4,49.8 131.3,49.9 131.3,49.9 131.2,50 131.1,50 131,50.1 130.9,50.1 130.8,50.2 130.7,50.2 130.6,50.2 130.5,50.2 
	130.4,50.2 130.2,50.2 130.1,50.1 130,50.1 129.9,50.1 129.8,50 129.7,49.9 129.7,49.9 129.6,49.8 129.6,49.7 129.5,49.6 
	129.5,49.5 129.5,49.4 129.5,49.3 129.4,49.1 129.4,48.8 130.1,48.8 130.1,49.2 130.1,49.3 130.1,49.3 130.1,49.4 130.1,49.4 
	130.2,49.5 130.2,49.5 130.2,49.5 130.3,49.6 130.3,49.6 130.3,49.6 130.4,49.6 130.4,49.6 130.5,49.6 130.6,49.6 130.6,49.6 
	130.7,49.6 130.7,49.6 130.7,49.6 130.8,49.6 130.8,49.5 130.8,49.5 130.8,49.5 130.9,49.4 130.9,49.3 130.9,49.1 130.9,49.1 
	130.9,49 130.8,48.9 130.8,48.9 130.7,48.8 130.7,48.8 130.6,48.7 130.5,48.6 130.4,48.5 130.2,48.4 130.1,48.3 130,48.3 
	129.8,48.1 129.8,48.1 129.7,48 129.7,48 129.6,47.9 129.6,47.8 129.6,47.8 129.5,47.7 129.5,47.6 129.5,47.6 129.5,47.5 
	129.5,47.4 129.5,47.3 129.5,47.2 129.5,47.1 129.5,47 129.5,46.9 129.6,46.8 129.6,46.8 129.7,46.7 129.7,46.6 129.8,46.6 
	129.8,46.5 129.9,46.5 130,46.4 130.1,46.4 130.2,46.4 130.3,46.4 130.5,46.4 130.6,46.4 130.7,46.4 130.7,46.4 130.8,46.4 
	130.9,46.4 130.9,46.5 131,46.5 131.1,46.5 131.1,46.5 131.2,46.6 131.2,46.6 131.2,46.7 131.3,46.8 131.4,46.8 131.4,46.9 
	131.4,47 131.4,47.1 131.5,47.2 131.5,47.4 131.5,47.6 130.9,47.6 "/>
<polygon class="st2" points="131.7,46.5 133.9,46.5 133.9,47 133.1,47 133.1,50.1 132.5,50.1 132.5,47 131.7,47 131.7,46.5 "/>
<polygon class="st2" points="135.1,50.1 135.1,46.5 136.9,46.5 136.9,47 135.8,47 135.8,47.9 136.8,47.9 136.8,48.4 135.8,48.4 
	135.8,49.6 136.9,49.6 136.9,50.1 135.1,50.1 "/>
<polygon class="st2" points="139.5,50.1 138.8,50.1 138.4,49.2 138.4,49.2 138.3,49.1 138.3,49 138.3,49 138.3,48.9 138.3,48.9 
	138.3,48.8 138.3,48.8 138.2,48.8 138.2,48.8 138.2,48.9 138.2,49 138.2,49.1 138.1,49.2 138.1,49.3 138.1,49.3 138,49.4 
	137.7,50.1 137,50.1 137.9,48.3 137.1,46.5 137.8,46.5 138.1,47.3 138.2,47.3 138.2,47.4 138.2,47.5 138.2,47.5 138.2,47.6 
	138.2,47.6 138.3,47.7 138.3,47.7 138.3,47.7 138.3,47.6 138.3,47.5 138.4,47.4 138.4,47.3 138.4,47.2 138.4,47.2 138.5,47.1 
	138.7,46.5 139.5,46.5 138.6,48.3 139.5,50.1 "/>
<polygon class="st2" points="139.5,46.5 141.6,46.5 141.6,47 140.9,47 140.9,50.1 140.2,50.1 140.2,47 139.5,47 139.5,46.5 "/>
<path class="st2" d="M142.5,48.5v1.6h-0.6v-3.6h1.3l0.1,0l0.1,0l0.1,0l0.1,0l0.1,0l0.1,0l0.1,0l0.1,0.1l0.1,0.1l0,0.1l0,0.1l0,0.1
	l0,0.1v0.3l0,0.1l0,0.1l0,0.1l0,0.1l-0.1,0.1l0,0.1l0,0.1l-0.1,0l-0.1,0l-0.1,0l-0.1,0l-0.1,0v0l0.1,0l0.1,0l0.1,0l0.1,0l0,0l0,0
	l0.1,0.1l0,0.1l0,0l0,0.1l0,0.1l0,0.1l0,0.1v0.4l0,0.2l0,0.2l0,0.2l0,0.1l0,0.1l0,0.1l0,0v0.1h-0.7l0-0.1l0-0.2l0-0.1v-0.4l0-0.1V49
	l0-0.1l0-0.1l0,0l0,0l0,0l0,0l0,0l0,0l0,0l0,0l-0.1,0l-0.1,0l-0.1,0l-0.1,0H142.5L142.5,48.5z M142.5,48h0.5l0.1,0l0.1,0l0,0l0,0
	l0,0l0,0l0,0l0,0l0,0l0-0.1l0-0.1l0-0.1l0-0.1v-0.1l0-0.1l0-0.1l0-0.1l0,0l0,0l0,0l0,0l0,0l0,0l0,0l0,0l-0.1,0l-0.1,0h-0.5V48
	L142.5,48z"/>
<path class="st2" d="M144.3,50.1l0.8-3.6h0.9l0.8,3.6h-0.7l-0.2-0.9h-0.8l-0.2,0.9H144.3L144.3,50.1z M145.2,48.6h0.5l-0.2-1l0-0.1
	l0-0.1l0-0.1l0-0.1l0-0.1l0-0.1v-0.1l0,0V47l0,0v0l0,0v0l0,0h0v0l0,0v0l0,0v0.1l0,0v0l0,0.1l0,0.1l0,0.1l0,0.1l0,0.1l0,0.1l0,0.1
	L145.2,48.6L145.2,48.6z"/>
<polygon class="st2" points="149,48.8 149,48.8 149,48.9 149,49 149,49 149,49.1 149,49.3 149,49.4 148.9,49.5 148.9,49.6 
	148.9,49.7 148.8,49.8 148.8,49.9 148.7,49.9 148.7,50 148.6,50 148.5,50.1 148.4,50.1 148.3,50.2 148.2,50.2 148,50.2 147.9,50.2 
	147.9,50.2 147.8,50.2 147.7,50.2 147.6,50.1 147.5,50.1 147.5,50.1 147.4,50.1 147.4,50 147.3,50 147.3,50 147.2,49.9 147.2,49.9 
	147.1,49.8 147.1,49.8 147.1,49.7 147,49.6 147,49.5 147,49.3 146.9,49.2 146.9,49 146.9,48.7 146.9,48 146.9,47.8 146.9,47.7 
	146.9,47.5 147,47.4 147,47.2 147,47.1 147,46.9 147.1,46.8 147.2,46.7 147.2,46.7 147.2,46.6 147.3,46.6 147.3,46.6 147.4,46.5 
	147.4,46.5 147.5,46.5 147.6,46.5 147.6,46.4 147.7,46.4 147.8,46.4 147.9,46.4 147.9,46.4 148,46.4 148.1,46.4 148.3,46.4 
	148.4,46.4 148.5,46.5 148.6,46.5 148.6,46.6 148.7,46.6 148.8,46.7 148.8,46.8 148.9,46.9 148.9,47 149,47.1 149,47.2 149,47.3 
	149,47.4 149,47.4 149,47.4 149,47.6 148.4,47.6 148.4,47.5 148.3,47.4 148.3,47.3 148.3,47.2 148.3,47.1 148.3,47.1 148.2,47 
	148.2,47 148.2,47 148.1,46.9 148.1,46.9 148,46.9 148,46.9 147.9,46.9 147.9,46.9 147.9,47 147.8,47 147.8,47 147.7,47.1 
	147.7,47.1 147.6,47.2 147.6,47.3 147.6,47.4 147.6,47.4 147.6,47.6 147.6,49 147.6,49.1 147.6,49.2 147.6,49.2 147.6,49.3 
	147.7,49.4 147.7,49.5 147.7,49.5 147.8,49.6 147.8,49.6 147.9,49.6 148,49.6 148,49.6 148.1,49.6 148.2,49.6 148.2,49.6 
	148.2,49.5 148.3,49.5 148.3,49.4 148.3,49.4 148.3,49.3 148.4,49.2 148.4,49 148.4,48.9 148.4,48.8 149,48.8 "/>
<polygon class="st2" points="149.2,46.5 151.3,46.5 151.3,47 150.6,47 150.6,50.1 149.9,50.1 149.9,47 149.2,47 149.2,46.5 "/>
<polygon class="st3" points="82.5,28.8 86.2,28.8 88.3,37.5 88.3,37.5 89.9,28.8 93.5,28.8 90.5,44.1 86.2,44.1 82.5,28.8 "/>
<polygon class="st3" points="113.1,39.1 113.1,39.3 113,39.5 113,39.8 112.9,40 112.9,40.3 112.8,40.5 112.8,40.7 112.6,41.2 
	112.5,41.4 112.4,41.6 112.4,41.8 112.3,41.9 112.2,42.1 112.1,42.3 112,42.4 111.9,42.5 111.8,42.6 111.7,42.7 111.6,42.8 
	111.5,42.9 111.4,43 111.3,43.1 111.2,43.2 111.1,43.3 111,43.4 110.9,43.4 110.7,43.5 110.5,43.6 110.4,43.7 110.2,43.7 110,43.8 
	109.7,43.9 109.5,44 109.2,44 108.9,44.1 108.7,44.1 108.4,44.1 108.2,44.1 108,44.1 107.7,44.1 107.5,44.1 107.2,44 107,43.9 
	106.7,43.8 106.5,43.7 106.3,43.6 106.1,43.4 105.8,43.3 105.6,43.1 105.4,42.9 105.2,42.7 105.1,42.5 104.9,42.3 104.7,42 
	104.5,41.7 104.4,41.5 104.2,41.2 104.1,40.9 104,40.6 103.9,40.2 103.7,39.9 103.6,39.5 103.6,39.2 103.5,38.8 103.4,38.4 
	103.4,38 103.3,37.6 103.3,37.2 103.3,36.8 103.3,36.3 103.3,35.9 103.3,35.4 103.3,35 103.4,34.6 103.4,34.2 103.5,33.8 
	103.6,33.5 103.6,33.1 103.8,32.7 103.9,32.4 104,32.1 104.1,31.7 104.3,31.4 104.4,31.2 104.6,30.9 104.7,30.6 104.9,30.4 
	105.1,30.1 105.3,29.9 105.5,29.7 105.7,29.5 105.9,29.3 106.1,29.2 106.4,29 106.6,28.9 106.9,28.8 107.1,28.7 107.4,28.6 
	107.6,28.6 107.9,28.5 108.2,28.5 108.4,28.5 108.7,28.5 108.9,28.5 109.1,28.5 109.3,28.6 109.5,28.6 109.7,28.7 109.9,28.8 
	110.1,28.8 110.3,28.9 110.5,29 110.7,29.1 110.9,29.3 111.1,29.4 111.3,29.5 111.4,29.7 111.6,29.8 111.7,30 111.9,30.2 112,30.4 
	112.2,30.6 112.3,30.8 112.4,31 112.5,31.2 112.6,31.4 112.7,31.7 112.8,31.9 112.8,32.2 112.9,32.4 112.9,32.7 113,33 113,33.3 
	113,33.6 109.3,33.6 109.3,33.4 109.3,33.1 109.2,32.9 109.2,32.8 109.2,32.6 109.1,32.5 109,32.4 109,32.2 108.9,32.2 108.9,32.1 
	108.8,32.1 108.8,32 108.7,32 108.7,32 108.6,31.9 108.6,31.9 108.5,31.9 108.4,31.9 108.4,31.8 108.3,31.8 108.2,31.8 108.2,31.9 
	108.1,31.9 108.1,31.9 108,31.9 107.9,31.9 107.9,32 107.8,32 107.7,32.1 107.6,32.1 107.6,32.2 107.5,32.3 107.4,32.4 107.3,32.5 
	107.2,32.6 107.2,32.7 107.1,32.9 107,33 107,33.1 106.9,33.3 106.8,33.5 106.8,33.7 106.7,33.9 106.6,34.1 106.6,34.3 106.6,34.6 
	106.5,34.8 106.5,35.1 106.5,35.4 106.4,35.7 106.4,36 106.4,36.3 106.4,36.6 106.4,36.9 106.5,37.2 106.5,37.5 106.5,37.8 
	106.5,38 106.6,38.3 106.6,38.5 106.6,38.7 106.7,38.9 106.7,39.1 106.8,39.3 106.8,39.4 106.9,39.6 107,39.7 107,39.9 107.1,40 
	107.2,40.1 107.2,40.2 107.3,40.3 107.4,40.4 107.5,40.4 107.5,40.5 107.6,40.6 107.7,40.6 107.8,40.7 107.9,40.7 108,40.7 
	108,40.7 108.1,40.8 108.2,40.8 108.4,40.8 108.4,40.8 108.5,40.7 108.5,40.7 108.6,40.7 108.7,40.7 108.7,40.7 108.8,40.6 
	108.8,40.6 108.9,40.6 108.9,40.5 109,40.4 109,40.4 109.1,40.3 109.1,40.2 109.2,40.1 109.2,40 109.2,39.9 109.3,39.8 109.3,39.6 
	109.4,39.4 109.4,39.1 109.4,38.9 109.4,38.5 109.4,38.2 107.1,38.2 107.1,35.4 113.1,35.4 113.1,35.5 113.1,35.8 113.1,36.2 
	113.2,36.7 113.2,37.3 113.2,37.9 113.2,38.2 113.1,38.5 113.1,38.8 113.1,39.1 "/>
<polygon class="st3" points="94.6,28.8 102.2,28.8 102.2,31.9 97.9,31.9 97.9,34.6 102.1,34.6 102.1,37.7 97.9,37.7 97.9,40.8 
	102.4,40.8 102.4,44.1 94.6,44.1 94.6,28.8 "/>
<polygon class="st3" points="81.8,28.2 85.6,28.2 87.7,36.8 87.7,36.8 89.3,28.2 92.9,28.2 89.8,43.5 85.6,43.5 81.8,28.2 "/>
<polygon class="st2" points="85.9,43 89.5,43 92.3,28.7 89.5,28.7 87.7,38.3 85.3,28.7 82.4,28.7 85.9,43 "/>
<polygon class="st3" points="112.5,38.4 112.4,38.7 112.4,38.9 112.4,39.1 112.2,39.6 112.1,40.1 112,40.3 112,40.5 111.9,40.7 
	111.8,40.9 111.7,41.1 111.6,41.3 111.5,41.5 111.4,41.6 111.3,41.7 111.3,41.9 111.2,42 111.1,42.1 110.9,42.3 110.8,42.4 
	110.7,42.5 110.6,42.6 110.4,42.6 110.3,42.7 110.2,42.8 110.1,42.9 110,42.9 109.8,43 109.7,43 109.6,43.1 109.3,43.2 109.1,43.3 
	108.8,43.3 108.6,43.4 108.3,43.4 108,43.5 107.8,43.5 107.6,43.5 107.3,43.5 107.1,43.5 106.8,43.4 106.6,43.4 106.3,43.3 
	106.1,43.2 105.9,43.1 105.6,42.9 105.4,42.8 105.2,42.6 105,42.5 104.8,42.3 104.6,42.1 104.4,41.9 104.2,41.6 104.1,41.4 
	103.9,41.1 103.7,40.8 103.6,40.6 103.5,40.2 103.3,39.9 103.2,39.6 103.1,39.3 103,38.9 102.9,38.5 102.8,38.2 102.8,37.8 
	102.7,37.4 102.7,37 102.6,36.6 102.6,36.1 102.6,35.7 102.6,35.2 102.6,34.8 102.7,34.4 102.7,34 102.8,33.6 102.8,33.2 
	102.9,32.8 103,32.4 103.1,32.1 103.2,31.8 103.3,31.4 103.5,31.1 103.6,30.8 103.8,30.5 103.9,30.2 104.1,30 104.3,29.7 
	104.5,29.5 104.6,29.3 104.8,29.1 105.1,28.9 105.3,28.7 105.5,28.6 105.7,28.4 106,28.3 106.2,28.2 106.5,28.1 106.7,28 107,27.9 
	107.2,27.9 107.5,27.9 107.8,27.9 108,27.9 108.2,27.9 108.4,27.9 108.7,27.9 108.9,28 109.1,28.1 109.3,28.1 109.5,28.2 
	109.7,28.3 109.9,28.4 110.1,28.5 110.3,28.6 110.4,28.7 110.6,28.9 110.8,29 111,29.2 111.1,29.4 111.3,29.5 111.4,29.7 
	111.5,29.9 111.7,30.1 111.8,30.3 111.9,30.6 112,30.8 112.1,31 112.1,31.3 112.2,31.5 112.3,31.8 112.3,32.1 112.3,32.4 
	112.4,32.7 112.4,33 108.7,33 108.7,32.7 108.6,32.4 108.6,32.3 108.5,32 108.5,31.9 108.4,31.7 108.3,31.6 108.3,31.5 108.2,31.5 
	108.2,31.4 108.2,31.4 108.1,31.4 108,31.3 108,31.3 107.9,31.3 107.9,31.2 107.8,31.2 107.7,31.2 107.6,31.2 107.6,31.2 
	107.5,31.2 107.5,31.2 107.4,31.3 107.4,31.3 107.3,31.3 107.2,31.3 107.1,31.4 107.1,31.4 107,31.5 106.9,31.6 106.8,31.7 
	106.8,31.8 106.7,31.9 106.6,32 106.5,32.1 106.5,32.2 106.4,32.4 106.3,32.5 106.2,32.7 106.2,32.9 106.1,33 106.1,33.2 106,33.5 
	106,33.7 105.9,33.9 105.9,34.2 105.8,34.4 105.8,34.7 105.8,35 105.8,35.3 105.8,36 105.8,36.3 105.8,36.6 105.8,36.9 105.9,37.2 
	105.9,37.4 105.9,37.6 106,37.9 106,38.1 106,38.3 106.1,38.5 106.1,38.7 106.2,38.8 106.3,39 106.3,39.1 106.4,39.2 106.4,39.4 
	106.5,39.5 106.6,39.6 106.7,39.7 106.7,39.7 106.8,39.8 106.9,39.9 107,39.9 107.1,40 107.1,40 107.2,40.1 107.3,40.1 107.4,40.1 
	107.5,40.1 107.6,40.1 107.7,40.1 107.8,40.1 107.9,40.1 108,40.1 108,40.1 108.1,40 108.1,40 108.2,40 108.2,39.9 108.3,39.9 
	108.3,39.8 108.4,39.8 108.4,39.7 108.5,39.6 108.5,39.6 108.5,39.5 108.6,39.4 108.6,39.3 108.6,39.2 108.7,39 108.7,38.8 
	108.8,38.5 108.8,38.2 108.8,37.9 108.8,37.6 106.4,37.6 106.4,34.8 112.5,34.8 112.5,34.9 112.5,35.1 112.5,35.5 112.5,36.1 
	112.5,36.6 112.5,37.2 112.5,37.6 112.5,37.9 112.5,38.1 112.5,38.4 "/>
<polygon class="st2" points="112,35.2 106.8,35.2 106.8,37.1 109.3,37.1 109.3,37.5 109.3,37.9 109.3,38.3 109.3,38.7 109.2,38.8 
	109.2,39 109.2,39.1 109.2,39.2 109.1,39.4 109.1,39.5 109,39.7 109,39.8 108.9,39.9 108.9,40 108.8,40.1 108.7,40.2 108.7,40.3 
	108.6,40.3 108.5,40.4 108.4,40.4 108.3,40.5 108.2,40.5 108.1,40.5 108,40.6 107.9,40.6 107.6,40.6 107.5,40.6 107.4,40.6 
	107.2,40.5 107.1,40.5 107,40.5 106.7,40.3 106.6,40.2 106.5,40.2 106.4,40.1 106.3,39.9 106.2,39.7 106.1,39.6 106,39.4 
	105.9,39.3 105.9,39.1 105.8,38.9 105.7,38.7 105.7,38.5 105.6,38.3 105.6,38.1 105.5,37.9 105.5,37.7 105.4,37.2 105.4,37 
	105.4,36.7 105.4,36.5 105.4,36 105.4,35.7 105.4,35.4 105.4,35 105.4,34.7 105.4,34.4 105.4,34.2 105.5,33.9 105.5,33.6 
	105.6,33.4 105.6,33.2 105.7,32.9 105.7,32.7 105.8,32.5 105.9,32.3 105.9,32.2 106,32 106.1,31.8 106.2,31.7 106.3,31.6 
	106.4,31.4 106.4,31.3 106.5,31.2 106.6,31.1 106.7,31 106.9,31 107,30.9 107.1,30.8 107.2,30.8 107.3,30.8 107.4,30.7 107.5,30.7 
	107.6,30.7 107.8,30.7 107.9,30.7 107.9,30.7 108,30.7 108,30.8 108.1,30.8 108.2,30.8 108.2,30.8 108.3,30.9 108.3,30.9 108.4,31 
	108.4,31 108.5,31.1 108.6,31.3 108.7,31.4 108.8,31.5 108.8,31.7 108.9,31.8 108.9,32 109,32.3 109.1,32.5 112,32.5 112,32.3 
	111.9,32.2 111.9,32 111.9,31.9 111.9,31.7 111.8,31.6 111.8,31.4 111.7,31.2 111.6,30.9 111.5,30.7 111.4,30.5 111.3,30.4 
	111.2,30.2 111.1,30 110.9,29.8 110.8,29.7 110.7,29.5 110.5,29.4 110.4,29.2 110.2,29.1 110,29 109.8,28.9 109.6,28.8 109.4,28.7 
	109.2,28.6 109,28.5 108.8,28.4 108.5,28.4 108.3,28.4 108.1,28.3 107.8,28.3 107.5,28.3 107.3,28.4 107.1,28.4 106.8,28.4 
	106.6,28.5 106.4,28.6 106.1,28.7 105.9,28.8 105.7,28.9 105.5,29.1 105.3,29.2 105.1,29.4 104.9,29.6 104.7,29.8 104.5,30 
	104.4,30.2 104.2,30.5 104.1,30.7 103.9,31 103.8,31.3 103.7,31.6 103.5,31.9 103.4,32.2 103.3,32.6 103.3,32.9 103.2,33.3 
	103.1,33.6 103.1,34 103,34.4 103,34.8 103,35.2 103,35.7 103,36.1 103,36.5 103,36.9 103.1,37.3 103.1,37.7 103.2,38.1 103.2,38.5 
	103.3,38.8 103.4,39.1 103.5,39.5 103.6,39.8 103.8,40.1 103.9,40.3 104,40.6 104.2,40.9 104.3,41.1 104.5,41.3 104.7,41.6 
	104.9,41.8 105,41.9 105.2,42.1 105.4,42.3 105.6,42.4 105.8,42.5 106,42.7 106.2,42.8 106.5,42.8 106.7,42.9 106.9,43 107.1,43 
	107.3,43 107.6,43 107.8,43 108.1,43 108.3,43 108.6,42.9 108.7,42.9 108.9,42.9 109,42.9 109.1,42.8 109.2,42.8 109.3,42.7 
	109.6,42.6 109.8,42.5 109.9,42.5 110,42.4 110.1,42.3 110.2,42.2 110.3,42.1 110.4,42.1 110.6,42 110.7,41.9 110.8,41.6 
	110.9,41.5 111,41.4 111.1,41.3 111.2,41.1 111.3,40.9 111.5,40.6 111.5,40.4 111.6,40.2 111.7,40.1 111.7,39.9 111.8,39.7 
	111.8,39.5 111.9,39.2 111.9,39 111.9,38.7 112,38.5 112,38.2 112,37.9 112.1,37.7 112.1,37.4 112.1,37.2 112.1,37 112.1,36.5 
	112,36.1 112,35.8 112,35.5 112,35.3 112,35.2 "/>
<polygon class="st3" points="94,28.1 101.6,28.1 101.6,31.3 97.3,31.3 97.3,34 101.5,34 101.5,37 97.3,37 97.3,40.1 101.8,40.1 
	101.8,43.4 94,43.4 94,28.1 "/>
<polygon class="st2" points="94.4,42.9 101.3,42.9 101.3,40.6 96.8,40.6 96.8,36.6 101.1,36.6 101.1,34.5 96.8,34.5 96.8,30.8 
	101.1,30.8 101.1,28.6 94.4,28.6 94.4,42.9 "/>
<polygon class="st3" points="123.7,28.7 128,28.7 130.5,34 130.6,34 132.6,28.7 137,28.7 137,44 133.6,44 133.6,35.9 130.6,44 
	127.2,35.9 127.2,44 123.7,44 123.7,28.7 "/>
<polygon class="st3" points="139,28.8 143,28.8 143,44.1 139,44.1 139,28.8 "/>
<polygon class="st3" points="146.7,32.1 144.1,32.1 144.1,28.8 152.9,28.8 152.9,32.1 150.2,32.1 150.2,44.1 146.7,44.1 146.7,32.1 
	"/>
<polygon class="st3" points="153.9,28.8 161.5,28.8 161.5,32 157.2,32 157.2,34.7 161.4,34.7 161.4,37.7 157.2,37.7 157.2,40.8 
	161.7,40.8 161.7,44.1 153.9,44.1 153.9,28.8 "/>
<polygon class="st3" points="123.1,28.1 127.4,28.1 129.9,33.4 129.9,33.4 132,28.1 136.3,28.1 136.3,43.4 133,43.4 133,35.2 
	129.9,43.4 126.5,35.2 126.5,43.4 123.1,43.4 123.1,28.1 "/>
<polygon class="st2" points="123.5,42.9 126.1,42.9 126.1,32.5 129.9,41.9 133.4,32.6 133.4,42.9 135.9,42.9 135.9,28.6 132.3,28.6 
	129.9,34.9 127.1,28.6 123.5,28.6 123.5,42.9 "/>
<polygon class="st3" points="138.4,28.2 142.4,28.2 142.4,43.5 138.4,43.5 138.4,28.2 "/>
<polygon class="st2" points="138.8,43 141.9,43 141.9,28.7 138.8,28.7 138.8,43 "/>
<polygon class="st3" points="146,31.5 143.5,31.5 143.5,28.2 152.3,28.2 152.3,31.5 149.6,31.5 149.6,43.5 146,43.5 146,31.5 "/>
<polygon class="st2" points="146.5,43 149.1,43 149.1,31 151.8,31 151.8,28.7 143.9,28.7 143.9,31 146.5,31 146.5,43 "/>
<polygon class="st3" points="153.3,28.2 160.9,28.2 160.9,31.4 156.6,31.4 156.6,34.1 160.8,34.1 160.8,37.1 156.6,37.1 156.6,40.2 
	161.1,40.2 161.1,43.5 153.3,43.5 153.3,28.2 "/>
<polygon class="st2" points="153.7,43 160.6,43 160.6,40.7 156.1,40.7 156.1,36.6 160.4,36.6 160.4,34.5 156.1,34.5 156.1,30.9 
	160.4,30.9 160.4,28.7 153.7,28.7 153.7,43 "/>
<polygon class="st3" points="114.4,28.8 122,28.8 122,31.9 117.7,31.9 117.7,34.6 122,34.6 122,37.7 117.7,37.7 117.7,40.8 
	122.2,40.8 122.2,44.1 114.4,44.1 114.4,28.8 "/>
<polygon class="st3" points="113.8,28.1 121.4,28.1 121.4,31.3 117.1,31.3 117.1,34 121.3,34 121.3,37 117.1,37 117.1,40.1 
	121.6,40.1 121.6,43.4 113.8,43.4 113.8,28.1 "/>
<polygon class="st2" points="114.2,42.9 121.1,42.9 121.1,40.6 116.6,40.6 116.6,36.6 120.9,36.6 120.9,34.5 116.6,34.5 116.6,30.8 
	120.9,30.8 120.9,28.6 114.2,28.6 114.2,42.9 "/>
</svg>
