<?xml version="1.0" encoding="utf-8"?>
<!-- Generator: Adobe Illustrator 24.0.1, SVG Export Plug-In . SVG Version: 6.00 Build 0)  -->
<svg version="1.1" id="Layer_1" xmlns="http://www.w3.org/2000/svg" xmlns:xlink="http://www.w3.org/1999/xlink" x="0px" y="0px"
	 viewBox="0 0 240 80" style="enable-background:new 0 0 240 80;" xml:space="preserve">
<style type="text/css">
	.st0{display:none;}
	.st1{fill:#3F4042;}
	.st2{fill:#6D6E70;}
</style>
<g id="guides" class="st0">
</g>
<path class="st1" d="M156.6,63.3c0.1,0,0.2,0,0.2-0.1c0,0,0-0.1,0-0.1c0-0.1,0-0.1-0.1-0.2c-0.1,0-0.1,0-0.2,0h-0.1v0.4H156.6z
	 M156.5,62.7c0.2,0,0.3,0,0.4,0c0.2,0.1,0.2,0.3,0.2,0.4c0,0,0,0.1,0,0.1c0,0.1,0,0.2-0.2,0.2c0,0,0,0,0,0l0.3,0.5h-0.3l-0.3-0.5
	h-0.2V64h-0.3v-1.3H156.5z M156.6,64.5c0.7,0,1.2-0.5,1.2-1.2c0-0.7-0.5-1.2-1.2-1.2c-0.7,0-1.2,0.5-1.2,1.2
	C155.4,64,156,64.5,156.6,64.5 M155.7,63.4c0-0.5,0.4-0.9,0.9-0.9c0.5,0,0.9,0.4,0.9,0.9c0,0.5-0.4,0.9-0.9,0.9
	C156.1,64.3,155.7,63.9,155.7,63.4"/>
<g>
	<g>
		<path class="st1" d="M124.2,29.1l-3.5,4l2.4,3.5l12.6-14.2c-0.4-1.5-1.1-2.9-1.8-4.2l-1.1,1.3L124.2,29.1z"/>
		<path class="st1" d="M115.8,29.1l-3.5,3.9l2.4,3.6L118,33l-1.4-2l1.5-1.6l1.3,2l8.9-10.1l4.2-4.8c-0.8-1.1-1.8-2.2-2.8-3.2
			l-5.5,6.2L115.8,29.1z"/>
		<path class="st1" d="M122.8,40.1l-3.6-5.3l-4.7,5.3l-3.6-5.4l-4.7,5.4L100,31l1.5-1.6l4.9,7.3l3.3-3.7l-1.3-2l1.5-1.6l1.3,1.9
			l8.9-10l8.1-9.3c-3.4-2.6-7.7-4.1-12.3-4.1c-11.4,0-20.6,9.2-20.6,20.6c0,11.4,9.2,20.6,20.6,20.6c11.4,0,20.6-9.2,20.6-20.6
			c0-1.2-0.1-2.4-0.3-3.6l-3.7,4.2L122.8,40.1z"/>
		<path class="st1" d="M153,5.8l-2.9,0l-13.5,15.4l-1.1,1.2c0.2,0.8,0.4,1.6,0.6,2.4l4.8-5.4L153,5.8z"/>
		<path class="st1" d="M144.7,5.8l-2.8,0l-9.3,10.6c0.4,0.6,0.8,1.2,1.2,1.8L144.7,5.8z"/>
		<path class="st2" d="M136.3,5.8l-2.9,0l-5.3,6.1c0.6,0.4,1.1,0.9,1.6,1.3L136.3,5.8z"/>
	</g>
	<g>
		<polygon class="st1" points="84.5,71.5 82.8,71.5 78.1,57.2 80.4,57.2 83.6,67.6 86.9,57.2 89.2,57.2 		"/>
		<path class="st1" d="M90,57.2h2.2v2.2H90V57.2z M90.1,61.3h2v10.1h-2V61.3z"/>
		<path class="st1" d="M98.3,71.6c-2.3,0-4.5-1.4-4.5-5.2c0-3.8,2.2-5.2,4.5-5.2c1.4,0,2.4,0.4,3.3,1.4l-1.4,1.4
			c-0.6-0.7-1.1-1-1.9-1c-0.8,0-1.4,0.3-1.9,0.9c-0.4,0.6-0.6,1.3-0.6,2.5c0,1.2,0.2,1.9,0.6,2.5c0.4,0.6,1.1,0.9,1.9,0.9
			c0.8,0,1.3-0.3,1.9-1l1.4,1.3C100.7,71.2,99.7,71.6,98.3,71.6"/>
		<polygon class="st1" points="110.9,71.5 110.9,65.3 105.2,65.3 105.2,71.5 103,71.5 103,57.2 105.2,57.2 105.2,63.3 110.9,63.3 
			110.9,57.2 113.1,57.2 113.1,71.5 		"/>
		<path class="st1" d="M116.6,67c0,1.7,0.9,2.8,2.6,2.8c1.1,0,1.7-0.3,2.5-1l1.3,1.2c-1,1-2,1.6-3.8,1.6c-2.5,0-4.6-1.3-4.6-5.2
			c0-3.3,1.7-5.2,4.3-5.2c2.7,0,4.3,2,4.3,4.9V67H116.6z M120.8,64.2c-0.3-0.8-1-1.3-2-1.3c-1,0-1.7,0.5-2,1.3
			c-0.2,0.5-0.2,0.8-0.3,1.4h4.6C121.1,65,121,64.7,120.8,64.2"/>
		<path class="st1" d="M130.3,71.5v-0.9c-0.7,0.7-1.4,1-2.7,1s-2.1-0.3-2.7-0.9c-0.5-0.5-0.8-1.3-0.8-2.2c0-1.7,1.2-2.9,3.5-2.9h2.7
			v-0.7c0-1.3-0.6-1.9-2.2-1.9c-1.1,0-1.7,0.3-2.2,1l-1.3-1.3c1-1.1,2-1.5,3.6-1.5c2.8,0,4.2,1.2,4.2,3.5v6.8H130.3z M130.2,67h-2.4
			c-1.2,0-1.8,0.5-1.8,1.5s0.6,1.4,1.9,1.4c0.8,0,1.4-0.1,1.9-0.6c0.3-0.3,0.4-0.8,0.4-1.5V67z"/>
		<path class="st1" d="M136.9,71.5c-1.9,0-2.8-1.3-2.8-2.8V57.2h2v11.3c0,0.8,0.3,1.2,1.1,1.2h0.9v1.7H136.9z"/>
		<path class="st1" d="M142.2,71.5c-1.9,0-2.8-1.4-2.8-2.8v-5.6h-1.2v-1.6h1.2v-3.1h2v3.1h2v1.6h-2v5.5c0,0.7,0.4,1.2,1.1,1.2h0.8
			v1.7H142.2z"/>
		<path class="st1" d="M151.1,71.5v-6.2c0-1.5-0.9-2.2-2-2.2c-1.1,0-2.1,0.7-2.1,2.2v6.2h-2V57.2h2v5.1c0.7-0.8,1.6-1.1,2.6-1.1
			c2.3,0,3.5,1.5,3.5,3.7v6.5H151.1z"/>
	</g>
</g>
</svg>
