<?xml version="1.0" encoding="utf-8"?>
<!-- Generator: Adobe Illustrator 26.0.0, SVG Export Plug-In . SVG Version: 6.00 Build 0)  -->
<svg version="1.1" id="Layer_1" xmlns="http://www.w3.org/2000/svg" xmlns:xlink="http://www.w3.org/1999/xlink" x="0px" y="0px"
	 viewBox="0 0 240 96.8" style="enable-background:new 0 0 240 96.8;" xml:space="preserve">
<style type="text/css">
	.st0{display:none;}
	.st1{fill:#002D40;}
</style>
<g id="guides" class="st0">
</g>
<g>
	<path class="st1" d="M6.9,31.7c1.9,0,3.9-0.1,5.8-0.1c0.2,0,0.6,0.4,0.7,0.7c1.5,3.2,3,6.3,4.4,9.5c0.1,0.2,0.2,0.3,0.3,0.6
		c0.3-0.7,0.6-1.2,0.8-1.8c1.3-2.8,2.6-5.6,3.9-8.4c0.3-0.6,0.6-0.8,1.2-0.8c1.7,0,3.5,0,5.3,0c-0.1,0.3-0.1,0.5-0.2,0.7
		c-2.9,6.2-5.8,12.4-8.6,18.6c-0.3,0.6-0.6,0.9-1.3,0.8c-1-0.1-2.2,0.3-3-0.2c-0.7-0.5-1-1.7-1.4-2.6c-2.5-5.4-5-10.9-7.6-16.3
		c-0.1-0.3-0.3-0.5-0.5-0.8V31.7z"/>
	<path class="st1" d="M42,45.8c1.5,1.2,3.3,1.6,5.1,1.6c0.7,0,1.4-0.3,2-0.7c0.8-0.6,0.7-1.5-0.2-1.9c-0.8-0.3-1.6-0.5-2.4-0.7
		c-1.4-0.5-2.9-1-4.3-1.7c-3-1.7-3.6-5.7-1.3-8.3c1.6-1.8,3.7-2.7,6.1-2.8c2.7-0.1,5.3,0.5,7.7,2.1c-0.9,1.3-1.8,2.6-2.6,3.7
		c-1.5-0.4-2.8-0.7-4.1-1c-0.3-0.1-0.7-0.1-1,0c-0.8,0.1-1.5,0.5-1.6,1.4c-0.1,0.9,0.6,1.2,1.3,1.5c1.5,0.5,3.1,0.9,4.6,1.4
		c2.4,0.9,3.9,2.7,3.8,5.4c0,2.7-1.3,4.7-3.8,5.7c-4.2,1.7-8.2,0.8-12.2-1.2C40.1,48.5,41.1,47.2,42,45.8"/>
	<polygon class="st1" points="70.9,51.7 70.9,36.6 65.5,36.6 65.5,31.7 81.8,31.7 81.8,36.5 76.4,36.5 76.4,51.7 	"/>
	<rect x="31.3" y="31.7" class="st1" width="5.6" height="20"/>
	<rect x="204.7" y="31.3" class="st1" width="5.6" height="20.7"/>
	<rect x="57.5" y="31.7" class="st1" width="5.4" height="20"/>
	<path class="st1" d="M221.6,44.7c0.6-1.4,1.2-2.7,1.8-4.1c0.6,1.5,1.2,2.8,1.8,4.1H221.6z M233.5,50.9c-2.9-6.3-5.8-12.5-8.7-18.8
		c-0.4-0.8-0.9-0.9-1.6-0.9c-0.8,0-1.1,0.2-1.4,0.9c-2.9,6.4-5.9,12.7-8.8,19.1c-0.1,0.3-0.2,0.6-0.4,0.9c1.5,0,3-0.1,4.4,0
		c1.4,0.1,2.1-0.3,2.4-1.6c0.1-0.7,0.5-0.8,1.2-0.8c1.8,0,3.6,0.1,5.4,0c0.7,0,1.1,0.2,1.3,0.9c0.1,0.2,0.2,0.4,0.2,0.6
		c0.2,0.7,0.6,0.9,1.3,0.9c1.7,0,3.5,0,5.2,0.1v-0.4C233.9,51.5,233.7,51.2,233.5,50.9"/>
	<path class="st1" d="M115.1,51.8h-5.8V31.5h5.8V51.8z M143.2,31.2c4.5-9.7,8.9-19.3,13.4-29H71.1c0.1,0.3,0.1,0.4,0.2,0.6
		c4.3,9.4,8.7,18.7,13,28.1c0.2,0.5,0.5,0.6,1,0.6c1.6,0,3.2,0,4.7,0c0.6,0,0.9,0.2,1.2,0.7c0.8,1.9,1.7,3.7,2.5,5.5
		c0.7,1.6,1.5,3.2,2.3,5c1.5-3.3,3.1-6.4,4.4-9.6c0.5-1.2,1.1-1.7,2.5-1.6c1.5,0.1,3,0,4.5,0c-0.1,0.2-0.1,0.3-0.1,0.4
		c-3,6.5-6,13-9,19.5c-0.1,0.3-0.6,0.5-0.9,0.5c-1.1,0.1-2.2,0-3.4,0c6.6,14.3,13.2,28.4,19.8,42.7c6.8-14.6,13.5-29,20.2-43.6
		c-5.8,3-12.8,0.7-15.3-4.9c-2.4-5.3-0.1-11.6,5.2-14.1c5.2-2.4,11.8-0.4,13.9,4.2c-1.5,0.9-3.1,1.9-4.6,2.8
		c-2.4-2.8-5.5-3.3-7.9-1.2c-2.1,1.9-2.3,5.1-0.4,7.2c0.9,1.1,2.1,1.7,3.6,1.7c2,0.1,3.6-0.8,4.7-2.5c1.1,0.6,2.1,1.2,3.1,1.8
		c0.2-0.3,0.3-0.6,0.5-0.9c1.3-2.7,2.5-5.4,3.8-8.1c0.1-0.3,0.5-0.7,0.7-0.7c1.4-0.1,2.8,0,4.4,0V52h5.7V36.3h5.7v-5.1H143.2z"/>
	<path class="st1" d="M169.6,46.9c-2.9,0-5.3-2.3-5.3-5.2c0-2.9,2.4-5.3,5.3-5.3c2.9,0,5.2,2.4,5.2,5.2
		C174.8,44.5,172.4,46.9,169.6,46.9 M169.6,30.8c-6.4,0-11.3,4.7-11.3,10.9c0,6.1,4.9,10.9,11.3,10.9c6.3,0,11.3-4.8,11.3-10.8
		C180.9,35.6,175.9,30.8,169.6,30.8"/>
	<path class="st1" d="M195.4,39c-0.1,1.2-1,2.2-2.2,2.2c-1.1,0-2.2,0-3.3,0c-0.1,0-0.2,0-0.4-0.1v-4.8c1.4,0,2.8-0.1,4.2,0
		C194.7,36.5,195.5,37.9,195.4,39 M197.6,45.1c0.3-0.2,0.5-0.4,0.7-0.6c2.6-2.2,3.5-5.1,2.5-8c-1-3-3.6-5.1-6.9-5.2
		c-3.4-0.1-6.7,0-10.2,0V52h5.7v-5.6c0.6,0,1.2,0,1.7,0c0.7-0.1,1.1,0.2,1.3,0.9c0.6,1.4,1.3,2.8,1.9,4.2c0.1,0.2,0.4,0.6,0.6,0.6
		c2,0,3.9,0,6.1,0c-0.6-1.3-1.2-2.4-1.8-3.5C198.8,47.4,198.2,46.3,197.6,45.1"/>
</g>
</svg>
