<?xml version="1.0" encoding="utf-8"?>
<!-- Generator: Adobe Illustrator 25.4.1, SVG Export Plug-In . SVG Version: 6.00 Build 0)  -->
<svg version="1.1" id="Layer_1" xmlns="http://www.w3.org/2000/svg" xmlns:xlink="http://www.w3.org/1999/xlink" x="0px" y="0px"
	 viewBox="0 0 261.2 67.1" style="enable-background:new 0 0 261.2 67.1;" xml:space="preserve">
<style type="text/css">
	.st0{fill:#253148;}
	.st1{fill:#DD4B37;}
</style>
<g>
	<path class="st0" d="M74.7,9.1h16.2v4.4h-5.7V29h-4.8V13.4h-5.7C74.7,13.4,74.7,9.1,74.7,9.1z"/>
	<path class="st0" d="M97.2,29h-4.5V7.8h4.5v9.7h0.2c0.9-3,2.7-4.6,5.3-4.6c3,0,4.5,2.1,4.5,5.5v10.6h-4.5v-9.3
		c0-1.6-0.8-2.7-2.4-2.7c-1.9,0-3.1,1.3-3.1,3.3V29z"/>
	<path class="st0" d="M109.4,21.4c0-5.4,2.9-8.6,8-8.6c4.8,0,7.1,2.8,7.1,7.1c0,0.6,0,1.3-0.1,2.1h-10.6c0.2,2.5,1.4,3.6,3.5,3.6
		c2.1,0,2.7-1,3.1-2.2l3.8,1c-0.7,2.7-2.5,4.8-7,4.8C112.6,29.4,109.4,26.8,109.4,21.4z M113.9,19.9h6.5c-0.1-2.4-1.1-3.6-3.1-3.6
		C115.2,16.2,114.1,17.3,113.9,19.9z"/>
	<path class="st0" d="M145,24.6h-7.7l-1.3,4.4H131l6.9-19.9h6.5l6.9,19.9h-5.1L145,24.6z M138.4,21.1h5.5l-0.8-2.4
		c-0.5-1.8-1.1-3.6-1.6-5.4h-0.8c-0.5,1.8-1,3.6-1.6,5.4L138.4,21.1z"/>
	<path class="st0" d="M159.6,16.8c-2.1,0-3.4,1.3-3.4,4.3c0,2.7,1.1,4.4,3.5,4.4c2,0,2.7-1.3,3.1-3l4.2,1c-0.5,3.6-2.7,5.9-7.2,5.9
		c-4.9,0-8.1-2.7-8.1-8.1s3.1-8.5,8-8.5c4.6,0,6.7,2.2,7.2,6l-4.2,0.8C162.2,18,161.5,16.8,159.6,16.8z"/>
	<path class="st0" d="M176.4,16.8c-2.1,0-3.4,1.3-3.4,4.3c0,2.7,1.1,4.4,3.5,4.4c2,0,2.7-1.3,3.1-3l4.2,1c-0.5,3.6-2.7,5.9-7.2,5.9
		c-4.9,0-8.1-2.7-8.1-8.1s3.1-8.5,8-8.5c4.6,0,6.7,2.2,7.2,6l-4.2,0.8C179.1,18,178.3,16.8,176.4,16.8z"/>
	<path class="st0" d="M185.2,21.4c0-5.4,2.9-8.6,8-8.6c4.8,0,7.1,2.8,7.1,7.1c0,0.6,0,1.3-0.1,2.1h-10.7c0.2,2.5,1.4,3.6,3.5,3.6
		s2.7-1,3.1-2.2l3.8,1c-0.7,2.7-2.5,4.8-7,4.8C188.5,29.4,185.2,26.8,185.2,21.4z M189.7,19.9h6.5c-0.1-2.4-1.1-3.6-3.1-3.6
		C191,16.2,189.9,17.3,189.7,19.9z"/>
	<path class="st0" d="M201.8,24.4l4-0.9c0.4,1.7,1.5,2.6,3.4,2.6c1.5,0,2.3-0.5,2.3-1.5c0-0.9-0.6-1.5-3.5-2c-4.3-0.9-5.7-2.4-5.7-5
		c0-3,2.1-4.8,6.6-4.8c4.6,0,6,1.8,6.6,4.6l-4,0.9c-0.4-1.6-1.1-2.3-2.7-2.3c-1.5,0-2.2,0.5-2.2,1.4c0,0.9,0.4,1.5,3.2,2
		c4.9,1,6.1,2.7,6.1,5.1c0,3.1-2,4.9-6.8,4.9C203.8,29.4,202.2,27.3,201.8,24.4z"/>
	<path class="st0" d="M217.3,24.4l4-0.9c0.4,1.7,1.5,2.6,3.4,2.6c1.5,0,2.3-0.5,2.3-1.5c0-0.9-0.6-1.5-3.5-2c-4.3-0.9-5.7-2.4-5.7-5
		c0-3,2.1-4.8,6.6-4.8c4.6,0,6,1.8,6.6,4.6l-4,0.9c-0.4-1.6-1.1-2.3-2.7-2.3c-1.5,0-2.2,0.5-2.2,1.4c0,0.9,0.4,1.5,3.2,2
		c4.9,1,6.1,2.7,6.1,5.1c0,3.1-2,4.9-6.8,4.9C219.3,29.4,217.7,27.3,217.3,24.4z"/>
	<path class="st0" d="M88,49.3h-7.7L79,53.7H74l6.9-19.9h6.5l6.9,19.9h-5.1L88,49.3z M81.4,45.8h5.5l-0.8-2.4
		c-0.5-1.8-1.1-3.6-1.6-5.4h-0.8c-0.5,1.8-1,3.6-1.6,5.4L81.4,45.8z"/>
	<path class="st0" d="M102,59.5c-6,0-7.7-1.3-7.7-3.1c0-1.4,1.6-2.4,3.7-2.8v-0.2c-1.6-0.2-2.4-1-2.4-2.1c0-0.9,0.7-1.6,2-2.3
		l1.2-0.6c-2.4-0.8-3.6-2.4-3.6-4.9c0-3.5,2.7-5.5,7.1-5.5h7.9v3.4h-1.7c-0.8,0-1.7,0-3-0.2v0.4c2,0.4,3.6,1.1,3.6,2.9
		c0,2.6-2.5,4.3-6.9,4.3c-0.9,0-1.9-0.1-2.6-0.2l-0.2,0.4c-0.2,0.3-0.3,0.6-0.3,0.9c0,0.5,0.4,0.8,1.4,0.8c1.7,0,3.5-0.1,5.1-0.1
		c3.5,0,5,1.5,5,4.1C110.4,57.9,108.3,59.5,102,59.5z M107,54.7c0-0.8-0.5-1.3-1.8-1.3h-5.3c-1.4,0-2.2,0.6-2.2,1.4
		c0,1,0.9,1.5,4.6,1.5C106.1,56.4,107,55.8,107,54.7z M99.1,43.7c0,1.3,0.8,2.2,3,2.2c2.3,0,3.1-0.9,3.1-2.2c0-1.3-0.9-2.2-3.1-2.2
		C99.8,41.4,99.1,42.4,99.1,43.7z"/>
	<path class="st0" d="M111.1,46.2c0-5.4,2.9-8.6,8-8.6c4.8,0,7.1,2.8,7.1,7.1c0,0.6,0,1.3-0.1,2.1h-10.6c0.2,2.5,1.4,3.6,3.5,3.6
		s2.7-1,3.1-2.2l3.8,1c-0.7,2.7-2.5,4.8-7,4.8C114.4,54.1,111.1,51.5,111.1,46.2z M115.6,44.6h6.5c-0.1-2.4-1.1-3.6-3.1-3.6
		C117,40.9,115.8,42,115.6,44.6z"/>
	<path class="st0" d="M133.2,53.7h-4.5V38h4.4v4.2h0.3c0.9-3.1,2.8-4.6,5.3-4.6c3,0,4.6,2.1,4.6,5.5v10.6h-4.5v-9.4
		c0-1.6-0.7-2.7-2.4-2.7c-1.9,0-3.1,1.3-3.1,3.3L133.2,53.7L133.2,53.7z"/>
	<path class="st0" d="M153.4,41.5c-2.1,0-3.4,1.3-3.4,4.3c0,2.7,1.1,4.4,3.5,4.4c2,0,2.7-1.3,3.1-3l4.2,1c-0.5,3.6-2.7,5.9-7.2,5.9
		c-4.9,0-8.1-2.7-8.1-8.1s3.1-8.5,8-8.5c4.6,0,6.7,2.2,7.2,6l-4.2,0.8C156.1,42.7,155.4,41.5,153.4,41.5z"/>
	<path class="st0" d="M161.1,59l0.6-3.8c0.6,0.2,1.3,0.2,2,0.2c1.6,0,2.4-0.3,3.1-2L161.1,38h4.9l1.6,5.7c0.5,1.7,1,3.8,1.5,5.7h0.5
		c0.5-2,1-3.9,1.4-5.6l1.5-5.9h4.9l-6.2,15.8c-1.5,3.8-3.5,5.5-7.5,5.5C162.6,59.2,162,59.1,161.1,59z"/>
</g>
<g>
	<g>
		<path class="st1" d="M55.6,43H36.7c-4.5,0-8.1-3.6-8.1-8.1V16c0-4.5,3.6-8.1,8.1-8.1h18.9c4.5,0,8.1,3.6,8.1,8.1v18.9
			C63.7,39.4,60,43,55.6,43z M36.7,12.7c-1.8,0-3.3,1.5-3.3,3.3v18.9c0,1.8,1.5,3.3,3.3,3.3h18.9c1.8,0,3.3-1.5,3.3-3.3V16
			c0-1.8-1.5-3.3-3.3-3.3H36.7z"/>
		<polygon class="st0" points="43.9,35.7 40.6,32.1 47.2,25.8 40.6,19.5 43.9,16 54.2,25.8 		"/>
	</g>
</g>
</svg>
