<?xml version="1.0" encoding="utf-8"?>
<!-- Generator: Adobe Illustrator 25.3.1, SVG Export Plug-In . SVG Version: 6.00 Build 0)  -->
<svg version="1.1" id="Layer_1" xmlns="http://www.w3.org/2000/svg" xmlns:xlink="http://www.w3.org/1999/xlink" x="0px" y="0px"
	 viewBox="0 0 131.4 70.9" style="enable-background:new 0 0 131.4 70.9;" xml:space="preserve">
<style type="text/css">
	.st0{fill:#E99B41;}
	.st1{fill:#FFFFFF;}
</style>
<g>
	<path class="st0" d="M6.3,67c-1.1,0-2.2-0.3-3.2-0.8C1.2,65,0,62.9,0,60.7V9.1c0-2.3,1.2-4.4,3.2-5.5c2-1.1,4.4-1.1,6.3,0
		l44.4,25.7c2,1.1,3.2,3.2,3.2,5.5V35c0,2.3-1.2,4.4-3.2,5.5L9.5,66.2C8.5,66.7,7.4,67,6.3,67z"/>
	<path class="st1" d="M125.1,70.9c-3.5,0-6.3-2.8-6.3-6.3V12.7H76v51.9c0,3.5-2.8,6.3-6.3,6.3s-6.3-2.8-6.3-6.3V6.3
		c0-3.5,2.8-6.3,6.3-6.3h55.5c3.5,0,6.3,2.8,6.3,6.3v58.2C131.4,68.1,128.6,70.9,125.1,70.9z"/>
</g>
</svg>
