<?xml version="1.0" encoding="utf-8"?>
<!-- Generator: Adobe Illustrator 25.3.1, SVG Export Plug-In . SVG Version: 6.00 Build 0)  -->
<svg version="1.1" id="Layer_1" xmlns="http://www.w3.org/2000/svg" xmlns:xlink="http://www.w3.org/1999/xlink" x="0px" y="0px"
	 viewBox="0 0 72 70.9" style="enable-background:new 0 0 72 70.9;" xml:space="preserve">
<style type="text/css">
	.st0{fill:#493654;}
</style>
<path class="st0" d="M4.8,56.9c-1,0-1.9-0.4-2.6-1.2c-1.2-1.4-1-3.6,0.5-4.8l17.6-14.4L2.7,22c-1.4-1.2-1.6-3.3-0.5-4.7
	c1.2-1.4,3.3-1.7,4.7-0.5l20.7,17c0.8,0.6,1.2,1.6,1.2,2.6s-0.5,2.1-1.2,2.7L7,56.1C6.3,56.7,5.6,56.9,4.8,56.9z"/>
<path class="st0" d="M63.4,69.8c-0.3,0-0.5,0-0.8-0.1l-25.9-6c-1.5-0.4-2.6-1.7-2.6-3.3V11.7c0-1.5,1-2.8,2.4-3.2l25.9-8.2
	c1-0.3,2.1-0.1,3,0.5s1.4,1.6,1.4,2.7v62.9c0,1-0.5,2-1.3,2.6C64.9,69.6,64.1,69.8,63.4,69.8z M40.9,57.8L60,62.2v-54l-19.1,6V57.8z
	"/>
</svg>
